<?xml version="1.0" encoding="UTF-8" standalone="no"?>
<!-- Created with Inkscape (http://www.inkscape.org/) -->

<svg
   xmlns:dc="http://purl.org/dc/elements/1.1/"
   xmlns:cc="http://creativecommons.org/ns#"
   xmlns:rdf="http://www.w3.org/1999/02/22-rdf-syntax-ns#"
   xmlns:svg="http://www.w3.org/2000/svg"
   xmlns="http://www.w3.org/2000/svg"
   xmlns:sodipodi="http://sodipodi.sourceforge.net/DTD/sodipodi-0.dtd"
   xmlns:inkscape="http://www.inkscape.org/namespaces/inkscape"
   width="300"
   height="230"
   id="svg4209"
   version="1.1"
   inkscape:version="0.48+devel r"
   viewBox="0 0 299.99999 230"
   sodipodi:docname="nicon_logo.svg"
   inkscape:export-filename="/home/uri/Web/Nitrux SA/images/partners/nicon_logo_bottom.png"
   inkscape:export-xdpi="90"
   inkscape:export-ydpi="90">
  <defs
     id="defs4211" />
  <sodipodi:namedview
     id="base"
     pagecolor="#ffffff"
     bordercolor="#666666"
     borderopacity="1.0"
     inkscape:pageopacity="0.0"
     inkscape:pageshadow="2"
     inkscape:zoom="1.0289971"
     inkscape:cx="59.955182"
     inkscape:cy="46.895194"
     inkscape:document-units="px"
     inkscape:current-layer="layer1"
     showgrid="false"
     inkscape:showpageshadow="false"
     borderlayer="true"
     fit-margin-top="0"
     fit-margin-left="0"
     fit-margin-right="0"
     fit-margin-bottom="0"
     inkscape:window-width="1366"
     inkscape:window-height="668"
     inkscape:window-x="-2"
     inkscape:window-y="23"
     inkscape:window-maximized="1" />
  <metadata
     id="metadata4214">
    <rdf:RDF>
      <cc:Work
         rdf:about="">
        <dc:format>image/svg+xml</dc:format>
        <dc:type
           rdf:resource="http://purl.org/dc/dcmitype/StillImage" />
        <dc:title></dc:title>
      </cc:Work>
    </rdf:RDF>
  </metadata>
  <g
     inkscape:label="Capa 1"
     inkscape:groupmode="layer"
     id="layer1"
     transform="translate(-271.64287,-568.79077)">
    <rect
       style="fill:none;stroke:none"
       id="rect4190-7"
       width="331"
       height="230"
       x="271.64285"
       y="568.79077" />
    <path
       style="fill:#777777;fill-opacity:1;stroke:none"
       d="m 546.64481,633.79078 c -1.43723,0.57526 -2.87837,1.22599 -4.28905,1.92383 -1.20843,0.59824 -2.39031,1.23986 -3.57422,1.92578 -1.973,1.14388 -4.41636,3.08042 -6.29687,4.47657 -2.4358,1.80757 -4.66796,3.76876 -6.71875,5.83593 a 44,44 0 0 1 3.94922,-0.21093 44,44 0 0 1 3.72265,0.18554 c 5.54928,-3.02495 11.72498,-5.02079 16.53906,-5.5664 -0.43614,-1.65611 -0.96728,-3.28681 -1.61915,-4.87891 -0.1688,-0.41277 -0.27709,-0.85031 -0.46092,-1.25781 -0.36981,-0.82029 -0.82159,-1.63232 -1.25197,-2.43164 l 0,-0.002 z m 16.27345,8.11524 c -2.27926,0 -4.59595,0.1256 -6.91993,0.39062 -7.26455,0.83099 -13.9768,2.92858 -19.93164,5.96094 a 44,44 0 0 1 1.48633,0.22461 c 10.20242,-4.35174 23.29392,-5.656 31.51367,-4.12109 0,1.5e-4 0.0201,0 0.0234,0 -0.68698,5.24369 -3.081,12.70179 -6.07619,18.70117 a 44,44 0 0 1 1.23244,1.41797 c 3.72041,-5.41967 6.19997,-11.49547 7.0625,-17.91797 0.0599,-0.44225 0.16222,-0.86935 0.20703,-1.31446 0.0886,-0.89821 0.0985,-1.8132 0.125,-2.7207 -1.53257,-0.22323 -3.08505,-0.37895 -4.6543,-0.48242 -1.34619,-0.0885 -2.70118,-0.13895 -4.06836,-0.13867 z m -12.00977,5.02539 c -2.94476,0.022 -6.59257,0.65548 -11.22851,2 a 44,44 0 0 1 11.66992,4.5293 c 0.0179,-2.19707 -0.13066,-4.37786 -0.44141,-6.5293 z m -21.19335,2.76172 c -23.15589,0 -41.92774,18.82578 -41.92774,42.04882 0,0.61499 0.0647,1.21411 0.0918,1.82227 0.72593,0.018 1.23554,0.0581 2.08008,0.0684 3.06678,0.0426 7.11217,-0.006 11.04492,-0.0469 -0.042,-0.61354 -0.0918,-1.22082 -0.0918,-1.84375 0,-15.95188 12.89701,-28.88671 28.80274,-28.88671 15.90567,0 28.80273,12.9348 28.80273,28.88671 0,15.95122 -12.89703,28.88477 -28.80273,28.88477 -1.37733,0 -2.71895,-0.13511 -4.04494,-0.32227 l 0,13.2793 c 1.33218,0.12794 2.67946,0.20703 4.04494,0.20703 23.1558,0 41.92768,-18.82578 41.92773,-42.04883 0,-23.22366 -18.77195,-42.04882 -41.92773,-42.04882 z m -177.47658,7.0625 c -2.18798,0.0269 -4.40687,0.32474 -6.62108,0.91992 -14.37721,3.86435 -22.89518,18.68967 -19.04298,33.11132 3.8522,14.42101 18.61303,22.96981 32.99025,19.10547 5.90467,-1.58713 10.79676,-5.02418 14.27539,-9.52148 l -4.74805,-4.32813 c -2.66528,3.6087 -6.52932,6.37872 -11.18945,7.63086 -10.95344,2.9441 -22.19365,-3.56511 -25.12891,-14.55273 -2.93525,-10.98766 3.54973,-22.28248 14.50391,-25.22656 2.56166,-0.68867 5.14461,-0.85503 7.63281,-0.57227 l -1.42188,4.54688 5.82227,1.58203 3.41601,-10.6875 c -3.28403,-1.344 -6.84163,-2.05269 -10.48828,-2.00781 z m 42.91407,0.004 c -13.12201,0.0328 -24.60319,9.68998 -26.57032,23.10546 -0.22825,1.55764 -0.31818,3.1096 -0.2832,4.63476 l 6.44141,0.21875 c -0.0575,-1.28294 -8e-5,-2.58931 0.18946,-3.9082 1.65008,-11.25409 12.0908,-19.04372 23.31054,-17.38866 11.21914,1.65501 18.98407,12.12876 17.33398,23.3828 -1.65008,11.25409 -12.08886,19.02025 -23.30859,17.36524 -3.55826,-0.52503 -6.76425,-1.94328 -9.43554,-3.98438 l -3.41017,5.49805 c 3.40981,2.47987 7.45964,4.19608 11.91603,4.85351 14.72563,2.17236 28.42196,-8.02974 30.58789,-22.80078 2.16591,-14.77109 -8.02819,-28.50929 -22.75392,-30.68163 -0.91996,-0.13566 -1.83402,-0.22676 -2.74414,-0.26758 -0.42644,-0.0192 -0.85014,-0.0284 -1.27343,-0.0273 z m -123.50977,0.002 0,54.06249 3.30859,0 3.3086,0 0,-31.98632 26.08984,31.98632 3.75586,0 3.75781,0 0,-54.06249 -3.30859,0 -3.30859,0 0,31.83788 -25.36719,-31.83788 -4.13477,0 -4.10156,0 z m 154.0332,0 0,54.06249 3.3086,0 3.30859,0 0,-31.98632 26.08984,31.98632 3.75586,0 3.75782,0 0,-54.06249 -3.3086,0 -3.30859,0 0,31.83788 -25.36719,-31.83788 -4.13476,0 -4.10157,0 z m -110.34961,0.0156 0,6.26367 3.44532,0 3.41015,0 0,-6.26367 -3.44531,0 -3.41016,0 z m 0.004,9.22656 0,44.81445 3.43946,0 3.416,0 0,-44.81445 -3.41601,0 -3.43946,0 z m 188.77734,36.31636 c -0.71271,0.0178 -1.42666,0.21517 -2.08984,0.59961 l -6.24219,3.60742 c -2.12263,1.22908 -2.84467,3.9337 -1.61914,6.0625 1.22555,2.12932 3.92237,2.85406 6.04492,1.625 l 6.24024,-3.61914 c 2.12255,-1.22905 2.84654,-3.92203 1.62109,-6.05078 -0.84283,-1.46366 -2.38642,-2.26693 -3.95508,-2.22461 z m 10.01172,10.43164 c -1.41573,0.0992 -2.75138,0.88205 -3.51758,2.21289 l -3.60937,6.26953 c -1.22555,2.12877 -0.50145,4.82365 1.62109,6.05273 2.12263,1.22908 4.82134,0.51355 6.04688,-1.61523 l 3.60742,-6.26953 c 1.22555,-2.12878 0.5035,-4.83346 -1.61914,-6.0625 -0.7962,-0.46074 -1.68003,-0.64767 -2.5293,-0.58789 z"
       id="path4124"
       inkscape:connector-curvature="0" />
  </g>
</svg>
