<?xml version="1.0" encoding="UTF-8" standalone="no"?>
<!-- Created with Inkscape (http://www.inkscape.org/) -->

<svg
   xmlns:dc="http://purl.org/dc/elements/1.1/"
   xmlns:cc="http://creativecommons.org/ns#"
   xmlns:rdf="http://www.w3.org/1999/02/22-rdf-syntax-ns#"
   xmlns:svg="http://www.w3.org/2000/svg"
   xmlns="http://www.w3.org/2000/svg"
   xmlns:sodipodi="http://sodipodi.sourceforge.net/DTD/sodipodi-0.dtd"
   xmlns:inkscape="http://www.inkscape.org/namespaces/inkscape"
   width="200"
   height="230"
   id="svg4209"
   version="1.1"
   inkscape:version="0.48+devel r"
   viewBox="0 0 199.99999 230"
   sodipodi:docname="numix_logo.svg"
   inkscape:export-filename="/home/uri/Web/Nitrux SA/images/partners/nicon_logo_bottom.png"
   inkscape:export-xdpi="90"
   inkscape:export-ydpi="90">
  <defs
     id="defs4211" />
  <sodipodi:namedview
     id="base"
     pagecolor="#ffffff"
     bordercolor="#666666"
     borderopacity="1.0"
     inkscape:pageopacity="0.0"
     inkscape:pageshadow="2"
     inkscape:zoom="1.0289971"
     inkscape:cx="-12.275372"
     inkscape:cy="168.75928"
     inkscape:document-units="px"
     inkscape:current-layer="layer1"
     showgrid="false"
     inkscape:showpageshadow="false"
     borderlayer="true"
     fit-margin-top="0"
     fit-margin-left="0"
     fit-margin-right="0"
     fit-margin-bottom="0"
     inkscape:window-width="1366"
     inkscape:window-height="668"
     inkscape:window-x="-2"
     inkscape:window-y="23"
     inkscape:window-maximized="1" />
  <metadata
     id="metadata4214">
    <rdf:RDF>
      <cc:Work
         rdf:about="">
        <dc:format>image/svg+xml</dc:format>
        <dc:type
           rdf:resource="http://purl.org/dc/dcmitype/StillImage" />
        <dc:title></dc:title>
      </cc:Work>
    </rdf:RDF>
  </metadata>
  <g
     inkscape:label="Capa 1"
     inkscape:groupmode="layer"
     id="layer1"
     transform="translate(-337.14286,-568.79077)">
    <rect
       style="fill:none;stroke:none"
       id="rect4168"
       width="200"
       height="230"
       x="337.14285"
       y="568.79077" />
    <g
       id="g4143">
      <path
         style="color:#000000;display:inline;overflow:visible;visibility:visible;fill:none;stroke:#777777;stroke-width:2.19405413;stroke-linecap:round;stroke-linejoin:round;stroke-miterlimit:4;stroke-dashoffset:0;stroke-opacity:1;marker:none;enable-background:accumulate"
         d="m 381.6066,753.05758 0,24.95053 c 0,9.11035 7.33431,16.44468 16.44471,16.44468 l 0,0 c 9.1104,0 16.44471,-7.33433 16.44471,-16.44468 l 0,-24.95053"
         id="path4154"
         inkscape:connector-curvature="0"
         sodipodi:nodetypes="csccsc" />
      <path
         sodipodi:nodetypes="csccccccccccsc"
         inkscape:connector-curvature="0"
         id="path4156"
         d="m 422.59688,794.45282 0,-24.95053 c 0,-9.11035 7.33432,-16.44468 16.44471,-16.44468 l 0,0 c 9.1104,0 16.44471,7.33433 16.44471,16.44468 0,6.9937 0,13.98739 0,20.98109 0,2.19907 -1.77032,3.96944 -3.96945,3.96944 l 0,0 c -2.19913,0 -3.96946,-1.77037 -3.96946,-3.96944 0,-6.9937 0,-13.98739 0,-20.98109 0,-9.11035 7.33432,-16.44468 16.44471,-16.44468 l 0,0 c 9.1104,0 16.44472,7.33433 16.44472,16.44468 l 0,24.95053"
         style="color:#000000;display:inline;overflow:visible;visibility:visible;fill:none;stroke:#777777;stroke-width:2.19405413;stroke-linecap:round;stroke-linejoin:round;stroke-miterlimit:4;stroke-dashoffset:0;stroke-opacity:1;marker:none;enable-background:accumulate" />
      <path
         inkscape:connector-curvature="0"
         id="path4158"
         d="m 488.53768,753.05761 0,41.39521"
         style="fill:none;stroke:#777777;stroke-width:2.19405413;stroke-linecap:round;stroke-linejoin:miter;stroke-opacity:1" />
      <path
         d="m 533.65922,753.05761 -37.02069,41.39521 m 0,-41.39521 37.02069,41.39521"
         style="fill:none;stroke:#777777;stroke-width:2.19405413;stroke-linecap:round;stroke-linejoin:miter;stroke-opacity:1"
         id="path4160"
         inkscape:connector-curvature="0" />
      <path
         inkscape:connector-curvature="0"
         d="m 340.61632,753.05758 0,4.8205 m 0,36.57471 0,-24.95052 c 0,-9.11036 7.33431,-16.44469 16.44471,-16.44469 l 0,0 c 9.1104,0 16.44471,7.33433 16.44471,16.44469 l 0,24.95052"
         style="fill:none;stroke:#777777;stroke-width:2.19405413;stroke-linecap:round;stroke-linejoin:miter;stroke-opacity:1"
         id="path4162" />
      <path
         style="color:#000000;display:inline;overflow:visible;visibility:visible;fill:#777777;fill-opacity:1;fill-rule:nonzero;stroke:none;stroke-width:16;marker:none;enable-background:accumulate"
         d="m 437.14287,572.7333 a 63.086,63.086 0 0 0 -63.086,63.086 63.086,63.086 0 0 0 63.086,63.086 63.086,63.086 0 0 0 63.086,-63.086 63.086,63.086 0 0 0 -63.086,-63.086 z m -27.00381,27.33556 c 0.9695,-10e-6 1.74958,0.7811 1.74958,1.75061 l 0,7.9999 c 0,0.9695 -0.78008,1.74954 -1.74958,1.74954 -0.96951,0 -1.75057,-0.78004 -1.75057,-1.74954 l 0,-7.9999 c 0,-0.96951 0.78106,-1.75061 1.75057,-1.75061 z m 26.99955,0 0.0109,0 c 15.9275,0 28.74909,12.82263 28.74909,28.75012 l 0,7.75027 0,6.25037 0,23.15478 0,2.59444 0,1.12548 0,0.0298 -0.005,0 c -0.0164,1.02428 -0.84383,1.84556 -1.8722,1.84556 -1.02833,0 -1.85479,-0.82128 -1.87117,-1.84556 l -0.007,0 0,-0.0298 0,-1.12548 0,-2.59444 0,-24.10851 0,-10.29671 0,-2.23385 c 0,-14.2568 -11.14923,-25.73431 -24.99926,-25.73431 -13.84997,0 -25.00035,11.47751 -25.00035,25.73431 l 0,2.23385 0,10.29671 0,24.10851 0,3.74979 -0.005,0 c -0.0164,1.02427 -0.84383,1.84555 -1.87221,1.84555 -1.02833,0 -1.85588,-0.82128 -1.87226,-1.84555 l -0.005,0 0,-1.15535 0,-25.74922 0,-6.25037 0,-7.75027 c 0,-15.92749 12.82262,-28.75012 28.75012,-28.75012 z"
         id="path4122"
         inkscape:connector-curvature="0" />
    </g>
  </g>
</svg>
