<?xml version="1.0" encoding="UTF-8" standalone="no"?>
<!-- Created with Inkscape (http://www.inkscape.org/) -->

<svg
   xmlns:dc="http://purl.org/dc/elements/1.1/"
   xmlns:cc="http://creativecommons.org/ns#"
   xmlns:rdf="http://www.w3.org/1999/02/22-rdf-syntax-ns#"
   xmlns:svg="http://www.w3.org/2000/svg"
   xmlns="http://www.w3.org/2000/svg"
   xmlns:sodipodi="http://sodipodi.sourceforge.net/DTD/sodipodi-0.dtd"
   xmlns:inkscape="http://www.inkscape.org/namespaces/inkscape"
   width="331"
   height="230"
   id="svg2"
   version="1.1"
   inkscape:version="0.48+devel r"
   viewBox="0 0 331 230"
   sodipodi:docname="perfect_choice-logo.svg">
  <defs
     id="defs4" />
  <sodipodi:namedview
     id="base"
     pagecolor="#ffffff"
     bordercolor="#666666"
     borderopacity="1.0"
     inkscape:pageopacity="0.0"
     inkscape:pageshadow="2"
     inkscape:zoom="0.50976562"
     inkscape:cx="287.17549"
     inkscape:cy="259.38679"
     inkscape:document-units="px"
     inkscape:current-layer="layer1"
     showgrid="false"
     fit-margin-top="0"
     fit-margin-left="0"
     fit-margin-right="0"
     fit-margin-bottom="0"
     inkscape:showpageshadow="false"
     borderlayer="true"
     inkscape:window-width="1366"
     inkscape:window-height="668"
     inkscape:window-x="-2"
     inkscape:window-y="23"
     inkscape:window-maximized="1" />
  <metadata
     id="metadata7">
    <rdf:RDF>
      <cc:Work
         rdf:about="">
        <dc:format>image/svg+xml</dc:format>
        <dc:type
           rdf:resource="http://purl.org/dc/dcmitype/StillImage" />
        <dc:title />
      </cc:Work>
    </rdf:RDF>
  </metadata>
  <g
     inkscape:label="Capa 1"
     inkscape:groupmode="layer"
     id="layer1"
     transform="translate(799.28153,-3700.945)">
    <path
       style="fill:#777777;fill-opacity:1"
       d="m -787.34263,3760.9457 c -8.42788,0.1173 -14.00255,9.1976 -10.0217,16.8435 1.36174,2.6154 3.93587,4.8576 6.41935,5.5915 0.47655,0.1408 0.60819,0.2423 0.54058,0.4176 -0.0491,0.1275 -0.18308,0.6282 -0.29752,1.1124 -0.6212,2.6288 0.19653,5.5434 2.10701,7.5103 0.47304,0.487 7.34127,6.4189 19.52317,16.8615 l 3.43611,2.9454 1.22907,3.0681 c 0.99791,2.4913 1.22878,3.2134 1.22878,3.8423 l 0,0.7744 -1.14308,0.8433 c -2.05479,1.5157 -15.46593,11.2522 -25.12591,18.2414 -1.97752,1.4308 -3.96805,2.9923 -4.42326,3.4702 -0.92848,0.9747 -1.6068,2.2016 -1.94994,3.5258 -0.29416,1.1352 -0.29654,3.1405 -0.005,4.1226 l 0.22557,0.7604 -0.72001,0.751 c -1.27641,1.3312 -2.46174,3.6515 -2.80008,5.4818 -0.26139,1.414 -0.19957,3.6913 0.13586,5.0074 0.54642,2.144 1.54011,3.9188 3.02623,5.405 1.55527,1.5552 3.43808,2.6247 5.40984,3.0729 0.56501,0.1285 1.15936,0.2653 1.32079,0.3039 0.57889,0.1382 3.53944,-0.058 4.39747,-0.291 2.12427,-0.5775 3.88507,-1.6639 5.51703,-3.404 1.26921,-1.3532 2.15516,-2.9121 2.67139,-4.7007 l 0.35083,-1.2153 6.66614,-4.9346 c 3.6664,-2.714 8.57313,-6.3482 10.90395,-8.0764 l 4.23781,-3.142 0.38494,0.3517 c 3.99469,3.6514 8.10641,7.4297 8.97035,8.2432 1.45264,1.3677 6.03047,5.5656 6.17141,5.6592 0.0608,0.04 0.20756,0.6359 0.32618,1.3233 0.39914,2.3132 1.43679,4.3946 3.02022,6.0588 1.5074,1.5843 3.26951,2.64 5.45082,3.2653 1.4591,0.4182 4.39239,0.392 5.93523,-0.053 2.33083,-0.6724 4.64717,-2.1977 5.98769,-3.9432 3.52006,-4.5834 3.36599,-10.6328 -0.37749,-14.8282 l -0.8083,-0.906 0.22501,-0.7048 c 0.30259,-0.948 0.30664,-3.2706 0.007,-4.2273 -0.55283,-1.7675 -1.17159,-2.7819 -2.46157,-4.0357 -1.0664,-1.0364 -8.55465,-8.1822 -13.23166,-12.6266 l -3.623,-3.443 -0.009,-4.3771 -0.009,-4.3774 9.59233,-4.754 c 5.27572,-2.6147 9.948,-5.0204 10.38286,-5.3459 1.66005,-1.2427 2.70515,-2.9446 3.14461,-5.121 0.26649,-1.3198 0.22013,-2.3996 -0.1565,-3.651 l -0.20896,-0.6945 0.64893,-0.6616 c 0.35691,-0.3639 0.94958,-1.121 1.31707,-1.6822 l 0.66813,-1.0204 0,14.1916 0,14.1916 1.10065,0 c 0.60536,0 1.10066,0.039 1.10066,0.087 0,0.048 -0.13163,0.2721 -0.29236,0.4979 -0.55933,0.7855 -1.76156,3.3488 -2.19988,4.6901 -1.07121,3.278 -1.0711,3.2768 -1.13993,12.7753 -0.0679,9.3781 -10e-4,10.6696 0.69307,13.428 2.20404,8.7563 9.70226,15.436 18.68909,16.6486 0.75785,0.1023 7.87705,0.1548 20.94915,0.1548 l 19.80121,0 0,-9.1722 0,-9.1721 3.59547,0 3.59548,0 0,9.1721 0,9.1722 10.63967,0 10.63968,0 0,-3.7898 0,-3.7896 1.16744,1.1334 c 3.13153,3.0403 6.95021,5.0991 11.20577,6.0415 1.4617,0.3237 1.6956,0.3311 10.44706,0.3311 9.86723,0 9.93495,0 12.88054,-0.9659 3.51324,-1.1463 6.17466,-2.8146 9.02252,-5.6558 l 1.94449,-1.9399 0,4.3175 0,4.3175 10.56429,0 10.56458,0 0.0384,-5.0702 0.0387,-5.0705 0.78422,1.097 c 0.97919,1.3693 3.24672,3.6328 4.79244,4.7841 2.25319,1.6782 5.55201,3.1522 8.65677,3.868 1.28522,0.2964 1.74832,0.3063 16.40207,0.3534 l 15.07928,0.049 -0.38093,-0.849 c -0.20948,-0.467 -0.41664,-0.9363 -0.46033,-1.0428 -0.0596,-0.1452 0.0633,-0.1324 0.49071,0.051 1.09798,0.472 2.63779,0.9728 4.16529,1.3546 l 1.54092,0.3853 12.84099,0.087 c 10.36385,0.071 12.95422,0.1265 13.428,0.2901 0.35306,0.1218 1.20117,0.2038 2.12794,0.2038 4.55031,0 8.40657,-2.7823 9.92653,-7.1686 0.36454,-1.0521 0.40761,-1.38 0.41334,-3.1553 0.005,-1.5185 -0.0567,-2.1867 -0.26313,-2.8617 -1.40614,-4.5966 -5.37741,-7.6155 -10.00337,-7.6042 -2.24305,0.01 -4.23287,0.6037 -5.94354,1.7868 l -0.66039,0.4569 -0.61826,-1.3188 -0.61826,-1.3188 -1.18063,0 -1.18062,0 0.0378,-8.4016 0.0378,-8.4017 1.21072,-0.042 c 0.6659,-0.024 1.21072,-0.099 1.21072,-0.1686 0,-0.069 2.11019,-4.7056 4.68925,-10.3034 l 4.68927,-10.1779 -7.77111,-0.038 -7.77108,-0.038 0,-14.3071 0,-14.3074 3.77892,0 3.77891,0 3.05347,-7.4449 c 1.6794,-4.0947 3.44161,-8.3866 3.91621,-9.5376 l 0.86305,-2.0927 -58.58214,0.038 -58.58242,0.038 -1.46754,0.403 c -3.92259,1.0771 -6.29714,2.4712 -9.19334,5.3972 l -1.85564,1.8748 -0.78594,-0.9559 c -1.728,-2.1018 -4.74978,-4.2284 -7.58077,-5.3353 -2.54809,-0.9962 -4.23323,-1.3216 -7.33369,-1.4153 -3.72864,-0.1128 -6.08894,0.2999 -8.98525,1.5712 -0.76679,0.3366 -1.47739,0.647 -1.57904,0.6897 -0.10239,0.043 0.0425,-0.4531 0.32475,-1.1124 l 0.50934,-1.1904 -12.52255,0 c -13.40315,0 -13.64177,0.011 -16.15671,0.7564 -3.64926,1.0819 -7.20457,3.5042 -9.5224,6.4873 -0.51051,0.6571 -1.0098,1.3502 -1.10954,1.5403 -0.17793,0.3393 -0.21357,0.3143 -1.89232,-1.3311 -1.92356,-1.8853 -2.90178,-2.662 -4.7397,-3.7637 -4.32119,-2.5901 -9.83384,-3.63 -15.24352,-2.8755 -7.47621,1.0428 -14.1869,6.0182 -17.52336,12.9921 -0.8243,1.7229 -1.61568,4.1259 -1.78885,5.4313 l -0.098,0.7384 -0.57842,-1.066 c -1.25936,-2.3209 -2.90439,-3.9246 -5.17824,-5.0484 -1.92937,-0.9535 -2.85796,-1.1595 -5.20977,-1.1548 -1.84128,0 -2.07796,0.037 -3.35213,0.4746 -2.15771,0.7407 -3.70087,1.7544 -5.22554,3.4324 -0.60182,0.6623 -0.81856,0.8283 -0.76558,0.5867 0.13424,-0.6121 -0.19272,-3.2147 -0.56925,-4.5316 -0.72832,-2.5472 -1.99375,-4.7553 -3.79841,-6.6277 -1.90329,-1.9747 -3.82885,-3.1917 -6.39441,-4.0412 -5.62498,-1.8625 -11.7317,-0.4099 -15.93085,3.7893 -2.42923,2.4292 -3.98217,5.5035 -4.47199,8.8534 -0.0971,0.6639 -0.20641,1.2072 -0.24306,1.2072 -0.0367,0 -1.13518,-0.8786 -2.44122,-1.9525 -1.30604,-1.0739 -3.81086,-3.125 -5.56605,-4.558 -2.39477,-1.9551 -3.21115,-2.704 -3.27101,-3.0004 -0.79165,-3.9196 -3.00159,-6.914 -6.29324,-8.5275 -1.56959,-0.7694 -2.62723,-1.0378 -4.49463,-1.1402 -0.27758,-0.015 -0.55248,-0.021 -0.82434,-0.017 z m 0.42794,6.2003 c 0.75292,0.013 1.50712,0.186 2.20733,0.5432 1.27474,0.6503 2.39497,2.0132 2.74476,3.3392 0.17717,0.6717 0.22312,2.1849 0.08,2.6359 -0.0795,0.2504 0.59037,0.8333 5.99886,5.2192 0.4907,0.3979 2.31213,1.8869 4.04749,3.3089 1.73537,1.4219 4.9713,4.0654 7.19096,5.8744 2.21965,1.809 4.63009,3.7774 5.35652,4.374 2.0403,1.6756 7.1882,5.8762 8.33346,6.8 l 1.02699,0.8283 1.4836,-0.7865 c 0.81586,-0.4326 5.50879,-2.9274 10.42871,-5.544 l 8.94513,-4.7574 0.18946,-1.1216 c 0.33771,-1.9994 1.289,-3.3368 2.95572,-4.1553 0.74809,-0.3674 0.98368,-0.4079 2.37157,-0.4079 1.31085,0 1.64304,0.05 2.2251,0.3371 1.09715,0.5405 1.96862,1.4085 2.50227,2.4925 0.44291,0.8997 0.4824,1.094 0.4824,2.3771 0,1.203 -0.0537,1.5121 -0.38666,2.2222 -0.52355,1.1166 -1.2618,1.8951 -2.3624,2.492 -0.88,0.4772 -0.98663,0.4987 -2.46071,0.4987 -1.45818,0 -1.5926,-0.026 -2.50371,-0.4913 l -0.96278,-0.4913 -4.46712,2.3765 c -2.45693,1.3071 -6.94676,3.6906 -9.97728,5.2963 -3.03051,1.6057 -5.62914,3.0066 -5.77471,3.1131 -0.24934,0.1823 -0.21164,0.3268 0.64806,2.4959 0.50194,1.2665 0.93623,2.3028 0.96508,2.3028 0.0289,0 4.87825,-2.4104 10.7764,-5.3565 7.40114,-3.6968 10.86941,-5.3562 11.19344,-5.3562 0.66753,0 1.43376,0.4287 1.83701,1.027 0.28011,0.4155 0.33489,0.6557 0.28663,1.2577 -0.0333,0.4154 -0.18503,0.9192 -0.34338,1.1408 -0.20928,0.2928 -3.23612,1.8643 -11.54686,5.9951 l -11.26338,5.5984 -2.9e-4,4.194 c -1.5e-4,2.3067 -0.0426,5.7129 -0.0943,7.5693 l -0.094,3.3754 4.38686,4.1741 c 14.09547,13.4114 14.99471,14.287 15.18619,14.7907 0.48764,1.2826 -0.28714,2.6753 -1.61286,2.8992 -1.10694,0.1871 -1.15727,0.1481 -6.54518,-5.053 -1.04951,-1.0131 -3.22881,-3.0955 -4.84289,-4.6273 -1.61408,-1.5318 -3.72567,-3.546 -4.6924,-4.476 -0.96674,-0.93 -1.79443,-1.7238 -1.8393,-1.7642 -0.0449,-0.04 -0.51912,-0.4945 -1.05365,-1.0092 l -0.97167,-0.9359 -1.7751,1.2987 c -0.9762,0.7144 -1.77481,1.3407 -1.77481,1.3916 0,0.1021 2.90684,2.8481 5.65004,5.3376 0.96857,0.8791 2.22355,2.0328 2.7889,2.5639 0.56535,0.5311 1.39186,1.2959 1.83643,1.6995 0.44458,0.4035 1.66423,1.5262 2.71037,2.4948 1.04614,0.9686 2.36952,2.1903 2.94081,2.7149 0.5713,0.5247 1.85327,1.7134 2.84881,2.6416 0.99554,0.9282 1.90631,1.7441 2.02418,1.8129 0.12518,0.073 0.48234,0.05 0.85874,-0.055 1.05589,-0.2956 2.91798,-0.1244 3.85315,0.3543 1.03994,0.5323 2.01253,1.5288 2.49368,2.5553 0.33848,0.7221 0.39182,1.026 0.39182,2.2303 0,1.202 -0.053,1.5053 -0.38523,2.2013 -0.54389,1.1394 -1.27963,1.9219 -2.35523,2.5051 -0.89734,0.4865 -0.98236,0.5033 -2.54269,0.5033 -1.47708,0 -1.67924,-0.034 -2.37873,-0.403 -1.03805,-0.5472 -1.89529,-1.4617 -2.44266,-2.6054 -0.40647,-0.8494 -0.45324,-1.0826 -0.42679,-2.128 0.0163,-0.6457 0.0482,-1.3395 0.0708,-1.5418 0.0341,-0.3049 -0.28511,-0.6672 -1.86682,-2.1207 -2.83138,-2.6019 -3.41335,-3.1396 -4.54594,-4.2003 -0.56696,-0.5309 -2.28546,-2.1135 -3.81905,-3.5166 -1.53358,-1.4032 -3.11852,-2.8565 -3.52209,-3.2295 -0.40358,-0.373 -2.04888,-1.8943 -3.65625,-3.3808 -1.60736,-1.4865 -3.20153,-2.9494 -3.54273,-3.2512 l -0.62056,-0.5489 -1.88687,1.3942 c -1.03789,0.7668 -3.4391,2.544 -5.33589,3.9491 -8.84173,6.55 -12.72861,9.4272 -16.80335,12.438 l -4.40263,3.253 0,1.3317 c 0,1.1623 -0.0522,1.4382 -0.41188,2.1706 -0.54344,1.1066 -1.52803,2.098 -2.56419,2.5817 -1.11588,0.5208 -3.11819,0.6139 -4.16558,0.1937 -2.30209,-0.9234 -3.65445,-3.0643 -3.45302,-5.4669 0.30346,-3.6197 3.97393,-5.8279 7.40449,-4.4547 l 0.62514,0.2502 1.06253,-0.796 c 0.5843,-0.4377 2.08367,-1.5514 3.33207,-2.4747 1.24839,-0.9234 3.22957,-2.3895 4.40262,-3.2582 1.17305,-0.8686 3.93795,-2.9159 6.14418,-4.5493 2.20623,-1.6335 5.34469,-3.9607 6.97455,-5.1714 1.62986,-1.2107 5.44476,-4.0358 8.47735,-6.278 l 5.51388,-4.0768 0.0949,-1.6466 c 0.0522,-0.9057 0.0954,-4.5982 0.0957,-8.2057 l 5.9e-4,-6.5592 -1.48675,-3.7869 c -0.81768,-2.083 -1.62641,-3.9412 -1.79745,-4.1292 -0.17103,-0.1881 -0.93641,-0.8485 -1.70086,-1.4676 -1.27775,-1.0347 -6.29455,-5.1262 -11.88479,-9.6926 -1.24734,-1.0189 -2.66719,-2.1846 -3.15521,-2.5906 -0.48803,-0.4059 -3.8922,-3.1873 -7.56472,-6.1805 -3.67252,-2.9933 -6.99308,-5.7046 -7.37898,-6.025 l -0.70167,-0.5824 -0.83925,0.2846 c -1.30519,0.4425 -2.90513,0.3138 -4.11485,-0.3311 -1.03988,-0.5543 -1.89009,-1.4331 -2.38504,-2.4653 -0.45753,-0.9541 -0.56392,-2.9272 -0.2144,-3.9795 0.74557,-2.2447 2.99313,-3.6553 5.25191,-3.6176 z m 236.68778,3.2934 -0.23016,0.5584 c -0.12653,0.307 -0.7658,1.8296 -1.42082,3.3833 l -1.19095,2.825 -5.77988,0 c -5.46136,0 -5.83022,0.017 -6.6925,0.305 -3.05329,1.0202 -4.80161,3.5906 -4.80161,7.0594 l 0,1.4409 6.67731,0 6.67731,0 0,3.3753 0,3.3754 -6.67731,0 -6.67731,0 0.002,1.2107 c 0.003,2.0905 0.55009,3.5422 1.8737,4.9719 0.89598,0.9677 1.60295,1.4335 2.90585,1.9149 0.82315,0.3042 1.17631,0.3256 6.72346,0.4045 l 5.85468,0.083 1.15168,2.715 c 0.63333,1.4932 1.25039,2.9626 1.37152,3.2652 l 0.22042,0.5504 -7.74014,-0.014 c -8.44245,-0.015 -8.72182,-0.037 -10.87356,-0.8671 -4.29596,-1.6568 -7.4449,-5.6775 -8.08237,-10.3198 -0.25529,-1.8591 -0.20771,-13.862 0.0611,-15.4031 0.88775,-5.0908 4.27637,-8.8631 9.34583,-10.4044 1.04601,-0.318 1.29547,-0.3284 9.18876,-0.3786 l 8.11333,-0.052 z m 32.55047,0.016 15.69897,0 15.69896,0 -1.24684,3.0451 c -0.68588,1.6748 -1.30598,3.1937 -1.37781,3.3754 l -0.13072,0.3301 -4.77294,0 -4.77324,0 0,15.3359 0,15.3358 -3.5221,0 -3.5221,0 0,-15.3358 0,-15.3359 -4.30745,0 -4.30719,0 -1.7189,-3.3753 z m -127.36483,0.013 c 3.33992,-0.01 3.52307,0.047 3.46277,0.2364 -0.0463,0.1451 -0.66845,1.6506 -1.3827,3.3456 l -1.29872,3.0818 -6.07711,0.073 -6.07711,0.073 -1.14594,0.5471 c -2.69767,1.2882 -4.06383,3.654 -4.06383,7.0376 l 0,1.1471 6.67215,0 6.67187,0 0.0421,3.3754 0.0418,3.3756 -6.714,0 -6.714,0 0.003,0.9906 c 0.009,3.4371 1.76049,6.0028 4.84833,7.1015 0.91415,0.3253 1.14106,0.3383 6.74811,0.3896 l 5.80253,0.053 1.27349,3.0337 c 0.70049,1.6685 1.31608,3.1492 1.36779,3.2905 0.0889,0.2426 -0.32986,0.2558 -7.58965,0.2396 -4.22599,-0.01 -8.03603,-0.076 -8.46674,-0.1473 -0.43069,-0.072 -1.28921,-0.2994 -1.9078,-0.5062 -3.52827,-1.1795 -6.55605,-4.0769 -7.86425,-7.5255 -0.82435,-2.1731 -0.8339,-2.3037 -0.78766,-10.9303 l 0.0427,-7.9497 0.47323,-1.3978 c 1.4467,-4.273 4.68456,-7.2987 9.21254,-8.609 0.77779,-0.225 1.81941,-0.2605 8.92736,-0.3041 1.92273,-0.012 3.38677,-0.02 4.50008,-0.022 l 0,0 z m 121.50441,0 0,0 c 1.36289,0 2.20904,0 2.20904,0.016 0,0.024 -0.62128,1.53 -1.38012,3.3461 l -1.37982,3.302 -5.48064,0.076 c -4.76509,0.066 -5.566,0.1101 -6.13473,0.3345 -2.0481,0.808 -3.73139,2.6157 -4.32294,4.6423 -0.3463,1.1873 -0.3454,12.7796 10e-4,13.9617 0.7604,2.592 3.01614,4.5431 5.73773,4.9633 0.60111,0.093 3.03309,0.1643 5.65004,0.1662 l 4.59466,0 1.32079,3.1733 c 0.72643,1.7452 1.3429,3.2295 1.3698,3.2985 0.0659,0.169 -14.08877,0.1287 -15.01793,-0.043 -5.45633,-1.007 -9.7785,-5.535 -10.49492,-10.9946 -0.11022,-0.8401 -0.14567,-3.614 -0.10634,-8.3649 0.0511,-6.169 0.0922,-7.2245 0.31156,-7.9887 1.40488,-4.8945 4.46317,-8.0451 9.21456,-9.4926 1.04176,-0.3173 1.30885,-0.329 8.59629,-0.3777 2.06819,-0.014 3.94817,-0.021 5.31123,-0.023 z m -64.33822,0.01 c 0.96106,0 2.04103,0 3.23289,0.01 l 7.34717,0.043 -1.38958,3.3387 -1.38958,3.3386 -5.74749,0 c -6.12383,0 -6.48167,0.035 -7.92186,0.7685 -0.81756,0.4164 -2.21289,1.79 -2.71237,2.6702 -0.73622,1.2974 -0.8897,2.1017 -0.8897,4.6594 l 0,2.3215 6.60394,0 6.60394,0 0,3.3753 0,3.3753 -6.60251,0 -6.6025,0 -0.0381,6.714 -2.9e-4,0 -0.0381,6.714 -3.33865,0.04 -3.33866,0.039 10e-4,-12.8069 c 7.3e-4,-8.027 0.0573,-13.1632 0.15163,-13.7611 0.86507,-5.4829 5.36645,-9.939 10.82082,-10.7119 0.55173,-0.078 2.36442,-0.1208 5.24761,-0.1255 z m -35.446,0.062 c 2.00924,-0.01 2.82373,0.048 3.74223,0.2606 4.7165,1.0912 8.31607,4.2157 9.58029,8.316 1.49368,4.8444 -1.22635,10.2524 -6.39297,12.7102 -0.62293,0.2964 -1.15332,0.5553 -1.17862,0.5753 -0.0253,0.02 1.69908,3.1633 3.83194,6.9854 2.13287,3.8221 3.95533,7.098 4.05007,7.2796 l 0.17227,0.3302 -3.96752,0 c -2.18215,0 -3.96752,-0.055 -3.96752,-0.1216 0,-0.067 -0.9971,-1.8994 -2.21593,-4.0724 -1.21883,-2.173 -2.43541,-4.3471 -2.70349,-4.8314 -0.26806,-0.4843 -0.94912,-1.706 -1.5134,-2.715 l -1.02585,-1.8344 -2.50772,-0.04 -2.50772,-0.04 0,7.2678 0,7.2678 -3.44872,0 -3.44872,0 0,-12.9207 c 0,-11.2015 0.031,-13.0698 0.23188,-14.0425 0.99067,-4.7961 4.46004,-8.4816 9.38051,-9.965 1.2099,-0.3647 1.53639,-0.3993 3.88899,-0.4096 z m -66.48364,0.5309 c 0.76926,0 1.51561,0.033 2.14341,0.1123 5.67299,0.7141 10.67338,4.2553 13.27036,9.3983 1.12549,2.2289 1.61372,4.4492 1.61372,7.3377 0,4.7581 -1.49777,8.3903 -4.84288,11.7441 -1.99075,1.9959 -4.14397,3.3576 -6.60767,4.1793 -2.29187,0.7644 -2.88969,0.8223 -9.42522,0.9089 l -6.12699,0.081 0,2.2363 c 0,1.23 -0.0665,2.592 -0.14761,3.0268 -0.232,1.2431 -0.96142,2.566 -1.96628,3.5657 -1.08186,1.0762 -2.08864,1.6428 -3.42149,1.9253 -0.54728,0.1159 -1.11075,0.2118 -1.252,0.2132 -0.24292,0 -0.25682,-0.8027 -0.25682,-14.8737 0,-12.5192 0.0347,-15.075 0.2187,-16.1301 1.12289,-6.4391 6.58795,-11.9832 13.20931,-13.4002 0.96403,-0.2063 2.30935,-0.3201 3.59146,-0.325 z m -58.90947,0.6578 c 0.89189,0 1.77904,0.083 2.40138,0.2522 3.36762,0.9171 5.84898,3.4019 6.77792,6.788 0.39946,1.456 0.33687,3.8533 -0.1393,5.337 -0.96568,3.0089 -3.81424,5.6234 -6.847,6.2846 -3.23236,0.7048 -6.21587,-0.088 -8.58425,-2.2807 -1.86394,-1.7257 -2.89661,-3.9086 -3.03741,-6.4205 -0.25089,-4.4757 2.69019,-8.5526 6.99891,-9.7021 0.64127,-0.1711 1.53787,-0.2574 2.42975,-0.2585 z m 126.20026,5.5529 c -1.80126,0 -2.15834,0.043 -2.89725,0.3402 -1.79954,0.7226 -3.39462,2.3254 -4.0965,4.1162 -0.27332,0.6974 -0.33296,1.1952 -0.38581,3.2264 l -0.0625,2.4019 4.01453,-0.073 c 4.31602,-0.078 5.14472,-0.1971 6.64951,-0.9525 2.19481,-1.1018 3.18511,-2.9743 2.65906,-5.0277 -0.4663,-1.8202 -1.26639,-2.8207 -2.8597,-3.5757 -0.9404,-0.4457 -1.02313,-0.458 -3.02136,-0.456 z m -67.33149,0.5081 c -0.91455,0 -1.8147,0.093 -2.53438,0.2907 -1.78127,0.4887 -2.76054,1.0791 -4.25988,2.5685 -1.09493,1.0876 -1.44527,1.5517 -1.94306,2.5742 -1.07979,2.218 -1.09369,2.3218 -1.16113,8.7049 -0.0331,3.133 -0.022,5.7956 0.0246,5.9172 0.0741,0.1931 0.81387,0.214 5.84552,0.1642 6.31575,-0.062 6.55069,-0.091 8.42375,-1.0129 1.77341,-0.8731 3.61294,-2.7222 4.55253,-4.5763 0.97246,-1.9191 1.24504,-4.936 0.65007,-7.1944 -0.82104,-3.1167 -3.34594,-5.8826 -6.35313,-6.9597 -0.86969,-0.3115 -2.06909,-0.474 -3.24493,-0.4764 z m -92.70305,6.7651 c 0.31929,-0.01 0.63251,0.053 0.90116,0.1934 0.21364,0.1115 2.02972,1.6163 4.03574,3.3438 3.08341,2.6554 11.58413,9.9573 17.95589,15.4239 3.12385,2.68 2.64802,1.9394 4.90021,7.6257 l 1.99723,5.043 0,4.2163 c 0,3.3378 -0.0439,4.3218 -0.21124,4.7222 -0.23082,0.5524 -0.62757,0.8572 -8.98182,6.9049 -10.89985,7.8905 -15.00789,10.8693 -15.97527,11.5841 -1.82899,1.3515 -8.35407,6.0367 -8.73187,6.2698 -1.05959,0.6536 -2.47277,0.2683 -2.98639,-0.8141 -0.59854,-1.2613 -0.16607,-2.1413 1.71203,-3.4828 1.69433,-1.2102 19.33236,-14.0044 20.71928,-15.0291 2.01886,-1.4917 9.54521,-6.9321 9.86922,-7.1339 0.32536,-0.2027 0.33019,-0.2506 0.33019,-3.2802 l 0,-3.0744 -1.70028,-4.2831 -1.7,-4.2831 -8.5361,-7.3159 c -4.69476,-4.0238 -8.56884,-7.3548 -8.6092,-7.4019 -0.0403,-0.047 -1.52624,-1.323 -3.30197,-2.8354 -1.77572,-1.5123 -3.34372,-2.928 -3.48455,-3.146 -0.34779,-0.5384 -0.33788,-1.7304 0.0192,-2.316 0.3452,-0.5661 1.07609,-0.9145 1.77853,-0.9312 z m 113.14659,33.5958 4.40262,0 4.40263,0 0,9.6124 0,9.6124 9.75915,0 9.75915,0 0,-9.6124 0,-9.6124 4.40262,0 4.40263,0 0,22.967 0,22.967 -4.40263,0 -4.40262,0 0,-9.2455 0,-9.2455 -9.75915,0 -9.75915,0 0,9.2455 0,9.2455 -4.40263,0 -4.40262,0 0,-22.967 z m 96.27072,0 4.40262,0 4.40263,0 0,22.967 0,22.967 -4.40263,0 -4.40262,0 0,-22.967 z m -29.96164,0.01 c 3.27186,0 6.55079,0.048 7.53577,0.1414 5.76833,0.547 10.59641,3.9654 13.10641,9.2799 1.4541,3.0787 1.5813,4.3156 1.49964,14.5796 -0.0537,6.7557 -0.10245,8.2163 -0.30125,9.0423 -1.69637,7.0481 -7.07284,11.9399 -13.99495,12.733 -1.47449,0.1688 -14.11856,0.1678 -15.67317,0 -3.03035,-0.3298 -5.81114,-1.4972 -8.32257,-3.4934 -2.72317,-2.1646 -4.63967,-5.2329 -5.58669,-8.9454 -0.31976,-1.2538 -0.32567,-1.4508 -0.32332,-10.45 l 0.002,-9.1721 0.38953,-1.4191 c 1.34405,-4.8936 4.29803,-8.4994 8.70436,-10.6254 1.84393,-0.8896 3.42282,-1.3313 5.4706,-1.5306 0.95666,-0.093 4.22149,-0.1393 7.49335,-0.1387 z m -76.46837,0.01 c 3.93384,-0.01 4.59464,0.037 4.54021,0.1785 -0.0456,0.1188 -0.8965,2.0055 -1.89118,4.1928 l -1.80863,3.977 -6.82407,0 c -7.50813,0 -7.86782,0.038 -9.57714,0.8974 -1.84761,0.9293 -3.17757,2.2602 -4.01997,4.0226 -0.87772,1.8363 -0.92639,2.3456 -0.92639,9.6815 0,7.3365 0.0486,7.8457 0.92667,9.6815 0.9693,2.0265 2.81825,3.702 4.95926,4.4943 0.92542,0.3424 0.99256,0.3458 8.19731,0.3955 l 7.26433,0.05 1.83443,4.0294 c 1.00884,2.2161 1.85638,4.0937 1.88344,4.1728 0.0453,0.1327 -17.41937,0.1783 -18.54004,0.048 -2.51347,-0.2914 -4.27906,-0.8089 -6.23705,-1.8278 -3.35049,-1.7435 -6.07323,-4.8128 -7.47214,-8.4235 -1.03375,-2.6681 -1.06447,-3.074 -1.00549,-13.2812 l 0.0522,-9.0254 0.37692,-1.2474 c 0.97202,-3.2166 2.27316,-5.3955 4.47285,-7.4896 2.24919,-2.1413 4.5543,-3.3826 7.68482,-4.1387 1.1779,-0.2845 1.79037,-0.305 10.99022,-0.3654 2.13332,-0.014 3.8082,-0.023 5.11948,-0.026 z m 145.91204,0.01 0,0 c 0.93096,0 1.96016,0 3.1019,0.01 l 8.46329,0.042 -1.88458,4.1091 -1.88459,4.1091 -7.16573,0.078 c -7.89503,0.086 -7.75111,0.07 -9.66084,1.0723 -1.21819,0.6394 -2.80771,2.2633 -3.47079,3.5456 -0.98114,1.8974 -1.00521,2.1347 -1.00521,9.9449 0,4.4723 0.0576,7.271 0.15994,7.7685 0.088,0.4277 0.42705,1.3389 0.75355,2.025 0.9705,2.0393 2.78128,3.6124 5.17681,4.4972 0.66531,0.2458 1.40854,0.278 7.96658,0.3451 l 7.23308,0.074 1.69168,3.6688 c 0.93045,2.0179 1.78308,3.8835 1.8949,4.1458 l 0.20352,0.477 -9.05462,-0.02 c -4.98002,-0.011 -9.53225,-0.07 -10.116,-0.1316 -6.24188,-0.6561 -11.64814,-5.1511 -13.54323,-11.2605 -0.65432,-2.1093 -0.72947,-3.3007 -0.72947,-11.5551 0,-8.5989 0.0716,-9.5716 0.88453,-12.0049 1.65262,-4.9468 5.85588,-8.9074 10.94265,-10.3109 1.82085,-0.5025 3.52585,-0.6349 10.04263,-0.6298 z m 35.58129,0 0,0 c 0.91479,0 1.92218,0 3.03483,0.01 l 8.4633,0.042 -1.91641,4.1458 -1.9164,4.1458 -6.7802,0 c -6.27176,0 -6.86504,0.022 -7.91356,0.2898 -2.45517,0.6279 -4.52328,2.2848 -5.62911,4.5098 -0.75703,1.5232 -0.93689,2.4003 -0.88425,4.3118 l 0.0419,1.5283 8.32857,0 8.3283,0 -0.002,3.1552 c 0,1.7353 -0.0431,3.601 -0.0946,4.1458 l -0.0934,0.9906 -8.27041,0 -8.2704,0 0,1.4096 c 0,2.5804 0.80118,4.5614 2.55186,6.3104 1.14714,1.146 2.85313,2.0919 4.31606,2.3928 0.49568,0.102 3.242,0.16 7.57304,0.16 l 6.79511,0 1.43888,3.1185 c 0.79148,1.7152 1.65815,3.5973 1.92586,4.1825 l 0.48699,1.0639 -9.13172,-0.019 c -5.02247,-0.01 -9.61083,-0.075 -10.19626,-0.143 -2.99808,-0.3487 -6.07559,-1.7098 -8.46445,-3.7437 -1.30995,-1.1152 -1.9307,-1.83 -3.02423,-3.4822 -0.99252,-1.4996 -1.62787,-2.9441 -2.16777,-4.9286 l -0.38208,-1.4051 -0.0536,-8.2916 c -0.0341,-5.2812 0.003,-8.7772 0.10289,-9.6293 0.76579,-6.5558 5.44563,-11.9452 11.89826,-13.7017 1.63709,-0.4456 3.501,-0.5728 9.90449,-0.5681 z m -105.01435,8.3455 0,0 c -6.82207,0 -7.39914,0.063 -9.27848,1.058 -1.25744,0.6656 -2.8443,2.2777 -3.50691,3.5625 -1.08543,2.1047 -1.06969,1.9595 -1.06969,9.9059 0,6.3402 0.0284,7.2218 0.25882,8.0715 0.84435,3.1129 3.38393,5.6481 6.38753,6.3763 1.28171,0.3107 13.1264,0.3148 14.34522,0 2.46653,-0.627 4.65884,-2.3501 5.6916,-4.4737 0.97349,-2.0019 0.97998,-2.0666 0.97998,-9.9059 0,-7.8289 -0.008,-7.9111 -0.96966,-9.8804 -0.71834,-1.4712 -2.24271,-2.9939 -3.73335,-3.7293 -1.92326,-0.949 -2.28017,-0.9876 -9.10506,-0.9901 z m 124.4564,29.6424 c 1.66018,0 2.94042,0.7583 3.75112,2.2219 0.38221,0.6901 0.4353,0.9304 0.43281,1.9606 -0.002,0.9838 -0.0662,1.295 -0.39413,1.9209 -0.41362,0.7896 -1.12899,1.5056 -1.91638,1.9179 -0.64565,0.338 -2.63449,0.4184 -3.3914,0.137 -1.88767,-0.7017 -3.06526,-2.9355 -2.59057,-4.9143 0.46896,-1.9548 2.10161,-3.244 4.10855,-3.244 z m 0.0361,0.5718 c -1.99189,0 -3.59547,1.6036 -3.59547,3.5955 0,1.9919 1.60358,3.5954 3.59547,3.5954 1.9919,0 3.59548,-1.6035 3.59548,-3.5954 0,-1.9919 -1.60358,-3.5955 -3.59548,-3.5955 z m -1.82926,1.1359 2.0213,0 c 0.27929,0 0.52596,0.033 0.74009,0.098 0.21646,0.063 0.39796,0.1547 0.54459,0.2758 0.14663,0.121 0.25827,0.2688 0.33507,0.4434 0.0768,0.1746 0.11523,0.3711 0.11523,0.5899 0,0.1559 -0.0231,0.3096 -0.0696,0.4609 -0.0442,0.1513 -0.11522,0.2896 -0.21297,0.4153 -0.0978,0.1257 -0.22219,0.234 -0.37348,0.3247 -0.15129,0.091 -0.33309,0.1549 -0.54488,0.1921 l 1.39675,2.119 -0.76817,0 -1.27779,-2.0422 -1.23911,0 0,2.0422 -0.66698,0 z m 0.66698,0.5343 0,1.8155 1.31592,0 c 0.19085,0 0.35592,-0.023 0.49557,-0.07 0.13965,-0.049 0.2538,-0.1152 0.34225,-0.199 0.0908,-0.084 0.15703,-0.1826 0.19891,-0.2966 0.0442,-0.1141 0.0665,-0.2377 0.0665,-0.3704 0,-0.1489 -0.0256,-0.2781 -0.0768,-0.3875 -0.0512,-0.1093 -0.12581,-0.2001 -0.22356,-0.2723 -0.0978,-0.074 -0.21635,-0.129 -0.356,-0.1639 -0.13964,-0.037 -0.29806,-0.056 -0.47494,-0.056 z"
       id="path4109"
       inkscape:connector-curvature="0"
       sodipodi:nodetypes="cssssscccsccssscccsssccsscccsccsssssssccccsccccssscccccccsscsscsscccccccccccccsssccccccccsscccscscsscscsccccccccccsscccccccsccccscccssssccssssssssccssssscssssssssssccccssssssssccsccsssssssscccscssscsssscssccsssssscccssssssscsssssssssscsssssccssscsssssscccsssscssccssscsccccssccccscsssccccccccsscccccsssscscccccccccccccccccccccsccccsscccccccccsccccccsccccccccccsccccccsscscccsssccccccccssssccccccccccccccccccssccsscssscccccccccsssccsssssccsssscsssccsssssscccssscsssccccssscssssscccssccsssssssscsccccssssccccccccccccccccccccccccccccccccccccssscccsccccsccccscccsssssscccssssccssccccccccccssscsssccccccssssccccccccssscccccccccssssccccscssccccsccccsssccccsssccsccsccssssssscscccsccsccccccccccscccssccsc" />
  </g>
</svg>
