<?xml version="1.0" encoding="UTF-8" standalone="no"?>
<!-- Created with Inkscape (http://www.inkscape.org/) -->

<svg
   xmlns:dc="http://purl.org/dc/elements/1.1/"
   xmlns:cc="http://creativecommons.org/ns#"
   xmlns:rdf="http://www.w3.org/1999/02/22-rdf-syntax-ns#"
   xmlns:svg="http://www.w3.org/2000/svg"
   xmlns="http://www.w3.org/2000/svg"
   xmlns:sodipodi="http://sodipodi.sourceforge.net/DTD/sodipodi-0.dtd"
   xmlns:inkscape="http://www.inkscape.org/namespaces/inkscape"
   width="1080"
   height="268"
   id="svg4797"
   version="1.1"
   inkscape:version="0.48+devel r"
   viewBox="0 0 1080 268.00001"
   sodipodi:docname="logo-company.svg">
  <defs
     id="defs4799" />
  <sodipodi:namedview
     id="base"
     pagecolor="#ffffff"
     bordercolor="#666666"
     borderopacity="1.0"
     inkscape:pageopacity="0.0"
     inkscape:pageshadow="2"
     inkscape:zoom="0.98747253"
     inkscape:cx="339.72793"
     inkscape:cy="125.42857"
     inkscape:document-units="px"
     inkscape:current-layer="layer1"
     showgrid="false"
     fit-margin-top="0"
     fit-margin-left="0"
     fit-margin-right="0"
     fit-margin-bottom="0"
     inkscape:showpageshadow="false"
     borderlayer="true"
     inkscape:window-width="1024"
     inkscape:window-height="576"
     inkscape:window-x="0"
     inkscape:window-y="25"
     inkscape:window-maximized="0" />
  <metadata
     id="metadata4802">
    <rdf:RDF>
      <cc:Work
         rdf:about="">
        <dc:format>image/svg+xml</dc:format>
        <dc:type
           rdf:resource="http://purl.org/dc/dcmitype/StillImage" />
        <dc:title />
      </cc:Work>
    </rdf:RDF>
  </metadata>
  <g
     inkscape:label="Capa 1"
     inkscape:groupmode="layer"
     id="layer1"
     transform="translate(574.28571,-389.79075)">
    <path
       style="display:inline;fill:#231f20;fill-opacity:1;stroke:none"
       d="m 32.606819,430.93157 0,133.99997 134.000001,0 0,-133.99997 -134.000001,0 z m 24.2774,26.74997 0,0.01 39.2109,51.9649 39.212901,-51.9649 1.877,0 -25.8477,34.2559 c -0.065,0.084 -0.1226,0.1622 -0.1856,0.2422 l -0.4003,0.5273 c -0.6766,0.9404 -0.8393,2.5136 0.043,3.6719 l 0.6914,0.916 29.7128,39.3828 1.1289,1.4961 -1.1289,0 -10.5957,0 -1.8789,0 -22.8183,-30.2422 0,14.7149 0,15.5273 -1.8789,0 -13.793001,-18.2832 -0.9394,-1.2441 -24.3965,-32.3418 c -1.5888,-2.1062 -4.6402,-0.6831 -4.6172,1.4687 l 0,50.4004 -3.4004,0 0,-62.498 0,-2.4903 0,-4.0117 0,-9.0234 0,-2.4766 z m 11.1054,0 1.877,0 11.7363,0 0,0.016 23.845701,31.6016 -0.9375,1.2461 -4.923801,6.5234 -0.9395,1.2442 -30.6582,-40.6309 z m -303.164049,1.4141 0,2.4765 0,9.0235 0,4.0117 0,2.4902 0,62.4981 3.4004,0 0,-50.4004 c -0.023,-2.1518 3.0282,-3.5751 4.6171,-1.4688 l 39.1289,51.8692 1.879,0 0,-15.5274 0,-62.8105 6,7.9551 0,70.3828 1.5,0 0,-0.01 8.5,0 0,0.01 1.5,0 0,-69.4961 12.0332,0 c 1.3155,0.035 2.5666,1.0904 2.5644,2.4648 l 0,67.0352 1.5,0 0,-0.01 8.5,0 0,0.01 1.5,0 0,-67.0352 c 0,-1.3746 1.2488,-2.4303 2.5645,-2.4648 l 12.03511,0 0,4.5078 0,2.4902 0,0.8379 0,17.459 0,1.3809 0,0.6054 0,42.2149 1.5,0 0,-38.4082 c 0.031,-2.5979 1.9324,-4.306 4.4707,-4.4121 l 8.875,0 4.1914,5.5566 0,8.5137 c 0,15.7087 12.474799,28.3888 28.097699,28.7344 l 0.012,0.016 0.6406,0 1.2383,0 10.5644,0 1.1368,0 -1.7071,-2.2617 c 10.3141,-4.3581 17.5176,-14.5511 17.5176,-26.4883 l 0,-15.0899 0,-7.9101 0,-10.832 17.1387,22.7128 0.9394,-1.2441 4.9239,-6.5234 0.9375,-1.2461 -23.8457,-31.6016 0,-0.016 -11.7364,0 -1.8769,0 12.0195,15.9297 0,12.4199 0,8.3105 0,15.0899 c 0,11.448 -6.9937,21.1974 -16.9551,25.2441 l -9.0586,-12.0058 -18.4863,-24.5039 0,-2.8047 11.3477,0 c 10.4374,0 18.8398,-8.4025 18.8398,-18.8399 0,-10.4374 -8.4024,-18.8398 -18.8398,-18.8398 l -21.160199,0 -1.6875,0 -0.1992,0 -18.8379,0 0,0 -14.59961,0 -11.5,0 -26.0918,0 -0.01,0 0,0 -6,0 0,0 -1.5,0 0,62.9844 -47.5254,-62.9844 z m 237.558609,0 -60.7442,80.5 1.8789,0 24.4063,-32.3477 c 1.1229,-1.0617 3.0742,-0.7272 3.8906,0.5508 l 23.9883,31.793 1.8789,0 10.5957,0 1.1289,0 -1.1289,-1.4961 -29.7129,-39.3828 -0.6914,-0.916 c -0.8823,-1.1583 -0.7197,-2.7315 -0.043,-3.6719 l 0.4004,-0.5274 c 0.063,-0.08 0.1207,-0.1587 0.1855,-0.2422 l 25.8477,-34.2558 -1.877,0 0,0 z m 99.974641,46.1094 c -0.5505,0.029 -1.0887,0.2307 -1.5098,0.6289 l -3.814401,5.0566 7.375001,9.7754 0,-14.6836 c -0.5361,-0.5359 -1.3035,-0.8173 -2.0508,-0.7773 z m -199.773541,12.3711 15.4278,20.4531 c -5.8438,-0.3829 -11.1746,-2.5859 -15.4278,-6.0586 l 0,-14.3945 z"
       id="path4614-9"
       inkscape:connector-curvature="0" />
    <g
       transform="translate(-637.65351,-99.313056)"
       style="font-style:normal;font-variant:normal;font-weight:normal;font-stretch:normal;font-size:22.5px;line-height:125%;font-family:Source Sans Pro;-inkscape-font-specification:Source Sans Pro;letter-spacing:0px;word-spacing:0px;fill:#4d4c4a;fill-opacity:1;stroke:none"
       id="flowRoot4863-2">
      <path
         d="m 478.86297,707.70546 q 0.7875,0.8325 1.845,1.35 1.08,0.495 2.2275,0.495 1.4625,0 2.2725,-0.6525 0.81,-0.675 0.81,-1.755 0,-0.5625 -0.2025,-0.945 -0.18,-0.405 -0.5175,-0.675 -0.315,-0.2925 -0.765,-0.5175 -0.45,-0.225 -0.9675,-0.4725 l -2.115,-0.9225 q -0.5175,-0.225 -1.0575,-0.54 -0.54,-0.315 -0.9675,-0.765 -0.4275,-0.45 -0.6975,-1.0575 -0.27,-0.63 -0.27,-1.44 0,-0.8325 0.3375,-1.5525 0.36,-0.72 0.9675,-1.2375 0.63,-0.54 1.4625,-0.8325 0.855,-0.2925 1.8675,-0.2925 1.3275,0 2.4525,0.5175 1.125,0.495 1.9125,1.305 l -1.0125,1.215 q -0.675,-0.6525 -1.5075,-1.0125 -0.81,-0.3825 -1.845,-0.3825 -1.2375,0 -2.0025,0.585 -0.7425,0.5625 -0.7425,1.575 0,0.54 0.2025,0.9225 0.225,0.36 0.585,0.6525 0.36,0.27 0.7875,0.495 0.4275,0.2025 0.8775,0.3825 l 2.0925,0.9 q 0.63,0.27 1.1925,0.63 0.5625,0.3375 0.9675,0.81 0.405,0.45 0.63,1.08 0.2475,0.6075 0.2475,1.4175 0,0.8775 -0.36,1.6425 -0.3375,0.765 -0.99,1.35 -0.6525,0.5625 -1.575,0.9 -0.9225,0.315 -2.0925,0.315 -1.5525,0 -2.88,-0.585 -1.3275,-0.585 -2.295,-1.5975 l 1.125,-1.305 z"
         id="path4660"
         inkscape:connector-curvature="0" />
      <path
         d="m 490.63504,699.98796 1.53,0 0.1575,1.575 0.0675,0 q 0.72,-0.7875 1.5525,-1.305 0.855,-0.54 1.845,-0.54 1.26,0 1.9575,0.5625 0.72,0.54 1.0575,1.53 0.855,-0.945 1.71,-1.5075 0.8775,-0.585 1.89,-0.585 1.6875,0 2.4975,1.08 0.8325,1.08 0.8325,3.195 l 0,6.93 -1.845,0 0,-6.6825 q 0,-1.5525 -0.495,-2.2275 -0.495,-0.6975 -1.53,-0.6975 -1.2375,0 -2.745,1.6875 l 0,7.92 -1.845,0 0,-6.6825 q 0,-1.5525 -0.495,-2.2275 -0.495,-0.6975 -1.5525,-0.6975 -1.2375,0 -2.745,1.6875 l 0,7.92 -1.845,0 0,-10.935 z"
         id="path4662"
         inkscape:connector-curvature="0" />
      <path
         d="m 508.72785,708.08796 q 0,-1.8 1.5975,-2.745 1.62,-0.9675 5.13,-1.35 0,-0.5175 -0.1125,-1.0125 -0.09,-0.495 -0.36,-0.8775 -0.2475,-0.3825 -0.675,-0.6075 -0.4275,-0.2475 -1.1025,-0.2475 -0.9675,0 -1.8,0.36 -0.81,0.36 -1.4625,0.81 l -0.7425,-1.2825 q 0.765,-0.495 1.8675,-0.945 1.1025,-0.4725 2.43,-0.4725 2.0025,0 2.9025,1.2375 0.9,1.215 0.9,3.2625 l 0,6.705 -1.53,0 -0.1575,-1.305 -0.045,0 q -0.7875,0.6525 -1.71,1.125 -0.9,0.45 -1.9125,0.45 -1.395,0 -2.3175,-0.81 -0.9,-0.81 -0.9,-2.295 z m 1.8225,-0.135 q 0,0.945 0.54,1.35 0.5625,0.405 1.3725,0.405 0.7875,0 1.485,-0.36 0.72,-0.3825 1.5075,-1.1025 l 0,-3.0375 q -1.3725,0.18 -2.3175,0.4275 -0.945,0.2475 -1.53,0.585 -0.5625,0.3375 -0.81,0.7875 -0.2475,0.4275 -0.2475,0.945 z"
         id="path4664"
         inkscape:connector-curvature="0" />
      <path
         d="m 520.78152,694.90296 1.845,0 0,13.95 q 0,0.45 0.1575,0.63 0.1575,0.18 0.36,0.18 0.09,0 0.1575,0 0.09,0 0.2475,-0.045 l 0.2475,1.395 q -0.18,0.09 -0.4275,0.135 -0.2475,0.045 -0.63,0.045 -1.0575,0 -1.5075,-0.63 -0.45,-0.63 -0.45,-1.845 l 0,-13.815 z"
         id="path4666"
         inkscape:connector-curvature="0" />
      <path
         d="m 526.53836,694.90296 1.845,0 0,13.95 q 0,0.45 0.1575,0.63 0.1575,0.18 0.36,0.18 0.09,0 0.1575,0 0.09,0 0.2475,-0.045 l 0.2475,1.395 q -0.18,0.09 -0.4275,0.135 -0.2475,0.045 -0.63,0.045 -1.0575,0 -1.5075,-0.63 -0.45,-0.63 -0.45,-1.845 l 0,-13.815 z"
         id="path4668"
         inkscape:connector-curvature="0" />
      <path
         d="m 536.01156,705.47796 q 0,-1.3725 0.4275,-2.43 0.4275,-1.08 1.1475,-1.8225 0.72,-0.7425 1.665,-1.125 0.9675,-0.3825 2.025,-0.3825 1.08,0 1.845,0.405 0.7875,0.3825 1.35,0.9 l -0.9225,1.1925 q -0.495,-0.4275 -1.035,-0.6975 -0.5175,-0.27 -1.17,-0.27 -0.7425,0 -1.3725,0.315 -0.63,0.2925 -1.08,0.855 -0.45,0.5625 -0.72,1.35 -0.2475,0.765 -0.2475,1.71 0,0.945 0.2475,1.71 0.2475,0.765 0.675,1.3275 0.45,0.54 1.08,0.855 0.63,0.2925 1.3725,0.2925 0.7875,0 1.4175,-0.315 0.6525,-0.3375 1.1475,-0.7875 l 0.8325,1.215 q -0.7425,0.6525 -1.665,1.035 -0.9,0.3825 -1.89,0.3825 -1.08,0 -2.025,-0.3825 -0.945,-0.3825 -1.6425,-1.1025 -0.675,-0.7425 -1.08,-1.8 -0.3825,-1.08 -0.3825,-2.43 z"
         id="path4670"
         inkscape:connector-curvature="0" />
      <path
         d="m 545.76742,705.47796 q 0,-1.3725 0.405,-2.43 0.4275,-1.08 1.125,-1.8225 0.6975,-0.7425 1.5975,-1.125 0.9225,-0.3825 1.935,-0.3825 1.0125,0 1.9125,0.3825 0.9225,0.3825 1.62,1.125 0.6975,0.7425 1.1025,1.8225 0.4275,1.0575 0.4275,2.43 0,1.35 -0.4275,2.43 -0.405,1.0575 -1.1025,1.8 -0.6975,0.72 -1.62,1.1025 -0.9,0.3825 -1.9125,0.3825 -1.0125,0 -1.935,-0.3825 -0.9,-0.3825 -1.5975,-1.1025 -0.6975,-0.7425 -1.125,-1.8 -0.405,-1.08 -0.405,-2.43 z m 1.9125,0 q 0,0.945 0.225,1.71 0.225,0.765 0.63,1.3275 0.4275,0.54 1.0125,0.855 0.585,0.2925 1.2825,0.2925 0.6975,0 1.2825,-0.2925 0.585,-0.315 0.99,-0.855 0.4275,-0.5625 0.6525,-1.3275 0.225,-0.765 0.225,-1.71 0,-0.945 -0.225,-1.71 -0.225,-0.7875 -0.6525,-1.35 -0.405,-0.5625 -0.99,-0.855 -0.585,-0.315 -1.2825,-0.315 -0.6975,0 -1.2825,0.315 -0.585,0.2925 -1.0125,0.855 -0.405,0.5625 -0.63,1.35 -0.225,0.765 -0.225,1.71 z"
         id="path4672"
         inkscape:connector-curvature="0" />
      <path
         d="m 558.79422,699.98796 1.53,0 0.1575,1.575 0.0675,0 q 0.72,-0.7875 1.5525,-1.305 0.855,-0.54 1.845,-0.54 1.26,0 1.9575,0.5625 0.72,0.54 1.0575,1.53 0.855,-0.945 1.71,-1.5075 0.8775,-0.585 1.89,-0.585 1.6875,0 2.4975,1.08 0.8325,1.08 0.8325,3.195 l 0,6.93 -1.845,0 0,-6.6825 q 0,-1.5525 -0.495,-2.2275 -0.495,-0.6975 -1.53,-0.6975 -1.2375,0 -2.745,1.6875 l 0,7.92 -1.845,0 0,-6.6825 q 0,-1.5525 -0.495,-2.2275 -0.495,-0.6975 -1.5525,-0.6975 -1.2375,0 -2.745,1.6875 l 0,7.92 -1.845,0 0,-10.935 z"
         id="path4674"
         inkscape:connector-curvature="0" />
      <path
         d="m 579.27203,711.84546 0,3.69 -1.845,0 0,-15.5475 1.53,0 0.1575,1.26 0.0675,0 q 0.7425,-0.63 1.62,-1.08 0.9,-0.45 1.8675,-0.45 1.0575,0 1.8675,0.405 0.81,0.3825 1.35,1.125 0.54,0.72 0.81,1.755 0.2925,1.0125 0.2925,2.295 0,1.395 -0.3825,2.4975 -0.3825,1.08 -1.035,1.845 -0.6525,0.765 -1.5075,1.17 -0.855,0.3825 -1.8,0.3825 -0.765,0 -1.53,-0.3375 -0.7425,-0.3375 -1.5075,-0.9225 l 0.045,1.9125 z m 0,-3.3525 q 0.7425,0.63 1.44,0.9 0.6975,0.2475 1.2375,0.2475 0.675,0 1.2375,-0.2925 0.585,-0.315 0.99,-0.855 0.4275,-0.5625 0.6525,-1.3725 0.2475,-0.81 0.2475,-1.8225 0,-0.9 -0.1575,-1.6425 -0.1575,-0.7425 -0.5175,-1.26 -0.3375,-0.54 -0.9,-0.8325 -0.54,-0.2925 -1.305,-0.2925 -0.6975,0 -1.4175,0.3825 -0.6975,0.3825 -1.5075,1.1025 l 0,5.7375 z"
         id="path4676"
         inkscape:connector-curvature="0" />
      <path
         d="m 589.75,699.98796 1.8675,0 0,6.6825 q 0,1.5525 0.4725,2.25 0.495,0.675 1.575,0.675 0.855,0 1.5075,-0.4275 0.6525,-0.45 1.44,-1.4175 l 0,-7.7625 1.845,0 0,10.935 -1.53,0 -0.1575,-1.71 -0.0675,0 q -0.765,0.9 -1.62,1.44 -0.8325,0.54 -1.98,0.54 -1.755,0 -2.565,-1.08 -0.7875,-1.08 -0.7875,-3.195 l 0,-6.93 z"
         id="path4678"
         inkscape:connector-curvature="0" />
      <path
         d="m 602.48324,701.49546 -1.62,0 0,-1.395 1.71,-0.1125 0.225,-3.06 1.5525,0 0,3.06 2.9475,0 0,1.5075 -2.9475,0 0,6.075 q 0,1.0125 0.36,1.575 0.3825,0.54 1.3275,0.54 0.2925,0 0.63,-0.09 0.3375,-0.09 0.6075,-0.2025 l 0.36,1.395 q -0.45,0.1575 -0.99,0.27 -0.5175,0.135 -1.035,0.135 -0.8775,0 -1.485,-0.27 -0.585,-0.27 -0.9675,-0.7425 -0.36,-0.4725 -0.5175,-1.1475 -0.1575,-0.675 -0.1575,-1.485 l 0,-6.0525 z"
         id="path4680"
         inkscape:connector-curvature="0" />
      <path
         d="m 608.74105,705.47796 q 0,-1.35 0.405,-2.4075 0.4275,-1.08 1.1025,-1.8225 0.6975,-0.7425 1.575,-1.125 0.8775,-0.405 1.8225,-0.405 1.035,0 1.845,0.36 0.8325,0.36 1.3725,1.035 0.5625,0.675 0.855,1.62 0.2925,0.945 0.2925,2.115 0,0.6075 -0.0675,1.0125 l -7.38,0 q 0.1125,1.7775 1.08,2.8125 0.99,1.035 2.565,1.035 0.7875,0 1.44,-0.225 0.675,-0.2475 1.2825,-0.63 l 0.6525,1.215 q -0.72,0.45 -1.5975,0.7875 -0.8775,0.3375 -2.0025,0.3375 -1.1025,0 -2.07,-0.3825 -0.945,-0.405 -1.665,-1.125 -0.6975,-0.7425 -1.1025,-1.8 -0.405,-1.0575 -0.405,-2.4075 z m 7.65,-0.8325 q 0,-1.6875 -0.72,-2.565 -0.6975,-0.9 -1.98,-0.9 -0.585,0 -1.125,0.2475 -0.5175,0.225 -0.945,0.675 -0.4275,0.4275 -0.72,1.08 -0.27,0.63 -0.36,1.4625 l 5.85,0 z"
         id="path4682"
         inkscape:connector-curvature="0" />
      <path
         d="m 620.71316,699.98796 1.53,0 0.1575,1.98 0.0675,0 q 0.5625,-1.035 1.35,-1.6425 0.81,-0.6075 1.755,-0.6075 0.6525,0 1.17,0.225 l -0.36,1.62 q -0.27,-0.09 -0.495,-0.135 -0.225,-0.045 -0.5625,-0.045 -0.6975,0 -1.4625,0.5625 -0.7425,0.5625 -1.305,1.9575 l 0,7.02 -1.845,0 0,-10.935 z"
         id="path4684"
         inkscape:connector-curvature="0" />
      <path
         d="m 628.0232,708.44796 q 0.72,0.585 1.4625,0.945 0.765,0.36 1.755,0.36 1.08,0 1.62,-0.495 0.54,-0.495 0.54,-1.215 0,-0.4275 -0.225,-0.7425 -0.225,-0.315 -0.585,-0.54 -0.3375,-0.2475 -0.7875,-0.4275 -0.45,-0.18 -0.9,-0.36 -0.585,-0.2025 -1.17,-0.45 -0.585,-0.27 -1.0575,-0.63 -0.45,-0.3825 -0.7425,-0.8775 -0.2925,-0.495 -0.2925,-1.1925 0,-0.6525 0.2475,-1.215 0.27,-0.585 0.7425,-0.99 0.495,-0.4275 1.1925,-0.6525 0.6975,-0.2475 1.575,-0.2475 1.035,0 1.89,0.36 0.8775,0.36 1.5075,0.8775 l -0.8775,1.17 q -0.5625,-0.4275 -1.17,-0.6975 -0.6075,-0.27 -1.3275,-0.27 -1.035,0 -1.53,0.4725 -0.4725,0.4725 -0.4725,1.1025 0,0.3825 0.2025,0.675 0.2025,0.27 0.54,0.495 0.3375,0.2025 0.765,0.3825 0.45,0.1575 0.9225,0.3375 0.585,0.225 1.17,0.4725 0.6075,0.2475 1.08,0.63 0.4725,0.36 0.765,0.9 0.315,0.54 0.315,1.305 0,0.675 -0.27,1.26 -0.2475,0.585 -0.765,1.035 -0.495,0.45 -1.26,0.6975 -0.7425,0.27 -1.71,0.27 -1.17,0 -2.2275,-0.4275 -1.0575,-0.4275 -1.845,-1.08 l 0.9225,-1.2375 z"
         id="path4686"
         inkscape:connector-curvature="0" />
      <path
         d="m 636.97645,713.66796 q 0.945,-0.4275 1.485,-1.125 0.54,-0.6975 0.54,-1.62 -0.0675,0.0225 -0.225,0.0225 -0.54,0 -0.945,-0.315 -0.3825,-0.3375 -0.3825,-0.9675 0,-0.6075 0.405,-0.945 0.405,-0.36 0.9675,-0.36 0.72,0 1.125,0.585 0.4275,0.585 0.4275,1.5975 0,1.4625 -0.7875,2.5425 -0.7875,1.08 -2.16,1.665 l -0.45,-1.08 z"
         id="path4688"
         inkscape:connector-curvature="0" />
      <path
         d="m 647.87137,694.90296 1.845,0 0,4.365 -0.045,1.98 q 0.7425,-0.6525 1.62,-1.08 0.8775,-0.45 1.8,-0.45 1.0575,0 1.8675,0.405 0.81,0.3825 1.35,1.125 0.5625,0.72 0.8325,1.755 0.2925,1.0125 0.2925,2.2725 0,1.395 -0.3825,2.4975 -0.3825,1.1025 -1.035,1.8675 -0.6525,0.765 -1.5075,1.17 -0.855,0.3825 -1.8,0.3825 -0.765,0 -1.5975,-0.3375 -0.81,-0.36 -1.53,-1.0125 l -0.0675,0 -0.1575,1.08 -1.485,0 0,-16.02 z m 1.845,13.59 q 0.72,0.63 1.4175,0.9 0.72,0.2475 1.26,0.2475 0.675,0 1.2375,-0.2925 0.585,-0.315 0.99,-0.855 0.4275,-0.5625 0.6525,-1.3725 0.2475,-0.81 0.2475,-1.8225 0,-0.9 -0.1575,-1.6425 -0.1575,-0.7425 -0.5175,-1.26 -0.3375,-0.54 -0.9,-0.8325 -0.54,-0.2925 -1.305,-0.2925 -1.3275,0 -2.925,1.485 l 0,5.7375 z"
         id="path4690"
         inkscape:connector-curvature="0" />
      <path
         d="m 661.29684,697.73796 q -0.54,0 -0.9225,-0.3375 -0.36,-0.3375 -0.36,-0.855 0,-0.54 0.36,-0.855 0.3825,-0.3375 0.9225,-0.3375 0.54,0 0.9,0.3375 0.3825,0.315 0.3825,0.855 0,0.5175 -0.3825,0.855 -0.36,0.3375 -0.9,0.3375 z m -0.945,2.25 1.845,0 0,10.935 -1.845,0 0,-10.935 z"
         id="path4692"
         inkscape:connector-curvature="0" />
      <path
         d="m 666.67645,712.76796 q 0,0.8775 0.8325,1.395 0.855,0.5175 2.34,0.5175 0.7875,0 1.4175,-0.2025 0.6525,-0.18 1.1025,-0.495 0.45,-0.2925 0.6975,-0.6975 0.2475,-0.405 0.2475,-0.8325 0,-0.765 -0.5625,-1.0575 -0.5625,-0.2925 -1.6425,-0.2925 l -1.89,0 q -0.315,0 -0.6975,-0.045 -0.36,-0.0225 -0.72,-0.135 -0.585,0.4275 -0.855,0.9 -0.27,0.4725 -0.27,0.945 z m -1.62,0.2475 q 0,-0.6975 0.4275,-1.3275 0.4275,-0.63 1.17,-1.1475 l 0,-0.09 q -0.405,-0.2475 -0.6975,-0.675 -0.27,-0.45 -0.27,-1.1025 0,-0.6975 0.3825,-1.215 0.3825,-0.5175 0.81,-0.81 l 0,-0.09 q -0.54,-0.45 -0.99,-1.1925 -0.4275,-0.765 -0.4275,-1.755 0,-0.9 0.315,-1.62 0.3375,-0.72 0.9,-1.215 0.5625,-0.5175 1.305,-0.7875 0.765,-0.27 1.5975,-0.27 0.45,0 0.8325,0.09 0.405,0.0675 0.72,0.18 l 3.8025,0 0,1.4175 -2.25,0 q 0.3825,0.3825 0.63,0.9675 0.27,0.585 0.27,1.2825 0,0.8775 -0.315,1.5975 -0.315,0.6975 -0.855,1.1925 -0.54,0.4725 -1.2825,0.7425 -0.72,0.27 -1.5525,0.27 -0.405,0 -0.8325,-0.09 -0.4275,-0.1125 -0.81,-0.2925 -0.2925,0.2475 -0.495,0.5625 -0.2025,0.2925 -0.2025,0.7425 0,0.5175 0.405,0.855 0.405,0.3375 1.53,0.3375 l 2.115,0 q 1.9125,0 2.8575,0.63 0.9675,0.6075 0.9675,1.98 0,0.765 -0.3825,1.44 -0.3825,0.6975 -1.1025,1.215 -0.72,0.5175 -1.755,0.81 -1.0125,0.315 -2.295,0.315 -1.0125,0 -1.845,-0.2025 -0.8325,-0.18 -1.44,-0.5625 -0.585,-0.3825 -0.9225,-0.9225 -0.315,-0.54 -0.315,-1.26 z m 4.5225,-6.795 q 0.4725,0 0.8775,-0.18 0.4275,-0.18 0.7425,-0.5175 0.3375,-0.3375 0.5175,-0.81 0.18,-0.495 0.18,-1.1025 0,-1.215 -0.675,-1.8675 -0.675,-0.675 -1.6425,-0.675 -0.9675,0 -1.6425,0.675 -0.675,0.6525 -0.675,1.8675 0,0.6075 0.18,1.1025 0.18,0.4725 0.495,0.81 0.3375,0.3375 0.7425,0.5175 0.4275,0.18 0.9,0.18 z"
         id="path4694"
         inkscape:connector-curvature="0" />
      <path
         d="m 682.6982,697.73796 q -0.54,0 -0.9225,-0.3375 -0.36,-0.3375 -0.36,-0.855 0,-0.54 0.36,-0.855 0.3825,-0.3375 0.9225,-0.3375 0.54,0 0.9,0.3375 0.3825,0.315 0.3825,0.855 0,0.5175 -0.3825,0.855 -0.36,0.3375 -0.9,0.3375 z m -0.945,2.25 1.845,0 0,10.935 -1.845,0 0,-10.935 z"
         id="path4696"
         inkscape:connector-curvature="0" />
      <path
         d="m 686.50281,705.47796 q 0,-1.3275 0.3825,-2.385 0.405,-1.08 1.0575,-1.8225 0.6525,-0.7425 1.5075,-1.1475 0.855,-0.405 1.8,-0.405 0.945,0 1.6425,0.3375 0.6975,0.3375 1.4175,0.9225 l -0.09,-1.8675 0,-4.2075 1.8675,0 0,16.02 -1.53,0 -0.1575,-1.2825 -0.0675,0 q -0.6525,0.63 -1.5075,1.1025 -0.8325,0.45 -1.8,0.45 -2.07,0 -3.3075,-1.485 -1.215,-1.485 -1.215,-4.23 z m 1.9125,-0.0225 q 0,1.98 0.7875,3.0825 0.7875,1.1025 2.2275,1.1025 0.765,0 1.44,-0.36 0.675,-0.3825 1.35,-1.1475 l 0,-5.715 q -0.6975,-0.63 -1.35,-0.8775 -0.63,-0.27 -1.305,-0.27 -0.6525,0 -1.2375,0.315 -0.5625,0.2925 -0.99,0.855 -0.4275,0.54 -0.675,1.305 -0.2475,0.765 -0.2475,1.71 z"
         id="path4698"
         inkscape:connector-curvature="0" />
      <path
         d="m 698.96078,705.47796 q 0,-1.35 0.405,-2.4075 0.4275,-1.08 1.1025,-1.8225 0.6975,-0.7425 1.575,-1.125 0.8775,-0.405 1.8225,-0.405 1.035,0 1.845,0.36 0.8325,0.36 1.3725,1.035 0.5625,0.675 0.855,1.62 0.2925,0.945 0.2925,2.115 0,0.6075 -0.0675,1.0125 l -7.38,0 q 0.1125,1.7775 1.08,2.8125 0.99,1.035 2.565,1.035 0.7875,0 1.44,-0.225 0.675,-0.2475 1.2825,-0.63 l 0.6525,1.215 q -0.72,0.45 -1.5975,0.7875 -0.8775,0.3375 -2.0025,0.3375 -1.1025,0 -2.07,-0.3825 -0.945,-0.405 -1.665,-1.125 -0.6975,-0.7425 -1.1025,-1.8 -0.405,-1.0575 -0.405,-2.4075 z m 7.65,-0.8325 q 0,-1.6875 -0.72,-2.565 -0.6975,-0.9 -1.98,-0.9 -0.585,0 -1.125,0.2475 -0.5175,0.225 -0.945,0.675 -0.4275,0.4275 -0.72,1.08 -0.27,0.63 -0.36,1.4625 l 5.85,0 z"
         id="path4700"
         inkscape:connector-curvature="0" />
      <path
         d="m 710.08527,708.08796 q 0,-1.8 1.5975,-2.745 1.62,-0.9675 5.13,-1.35 0,-0.5175 -0.1125,-1.0125 -0.09,-0.495 -0.36,-0.8775 -0.2475,-0.3825 -0.675,-0.6075 -0.4275,-0.2475 -1.1025,-0.2475 -0.9675,0 -1.8,0.36 -0.81,0.36 -1.4625,0.81 l -0.7425,-1.2825 q 0.765,-0.495 1.8675,-0.945 1.1025,-0.4725 2.43,-0.4725 2.0025,0 2.9025,1.2375 0.9,1.215 0.9,3.2625 l 0,6.705 -1.53,0 -0.1575,-1.305 -0.045,0 q -0.7875,0.6525 -1.71,1.125 -0.9,0.45 -1.9125,0.45 -1.395,0 -2.3175,-0.81 -0.9,-0.81 -0.9,-2.295 z m 1.8225,-0.135 q 0,0.945 0.54,1.35 0.5625,0.405 1.3725,0.405 0.7875,0 1.485,-0.36 0.72,-0.3825 1.5075,-1.1025 l 0,-3.0375 q -1.3725,0.18 -2.3175,0.4275 -0.945,0.2475 -1.53,0.585 -0.5625,0.3375 -0.81,0.7875 -0.2475,0.4275 -0.2475,0.945 z"
         id="path4702"
         inkscape:connector-curvature="0" />
      <path
         d="m 721.84645,708.44796 q 0.72,0.585 1.4625,0.945 0.765,0.36 1.755,0.36 1.08,0 1.62,-0.495 0.54,-0.495 0.54,-1.215 0,-0.4275 -0.225,-0.7425 -0.225,-0.315 -0.585,-0.54 -0.3375,-0.2475 -0.7875,-0.4275 -0.45,-0.18 -0.9,-0.36 -0.585,-0.2025 -1.17,-0.45 -0.585,-0.27 -1.0575,-0.63 -0.45,-0.3825 -0.7425,-0.8775 -0.2925,-0.495 -0.2925,-1.1925 0,-0.6525 0.2475,-1.215 0.27,-0.585 0.7425,-0.99 0.495,-0.4275 1.1925,-0.6525 0.6975,-0.2475 1.575,-0.2475 1.035,0 1.89,0.36 0.8775,0.36 1.5075,0.8775 l -0.8775,1.17 q -0.5625,-0.4275 -1.17,-0.6975 -0.6075,-0.27 -1.3275,-0.27 -1.035,0 -1.53,0.4725 -0.4725,0.4725 -0.4725,1.1025 0,0.3825 0.2025,0.675 0.2025,0.27 0.54,0.495 0.3375,0.2025 0.765,0.3825 0.45,0.1575 0.9225,0.3375 0.585,0.225 1.17,0.4725 0.6075,0.2475 1.08,0.63 0.4725,0.36 0.765,0.9 0.315,0.54 0.315,1.305 0,0.675 -0.27,1.26 -0.2475,0.585 -0.765,1.035 -0.495,0.45 -1.26,0.6975 -0.7425,0.27 -1.71,0.27 -1.17,0 -2.2275,-0.4275 -1.0575,-0.4275 -1.845,-1.08 l 0.9225,-1.2375 z"
         id="path4704"
         inkscape:connector-curvature="0" />
    </g>
    <g
       style="font-style:normal;font-variant:normal;font-weight:normal;font-stretch:normal;font-size:22.5px;line-height:125%;font-family:Arial;-inkscape-font-specification:Arial, Normal;text-align:start;letter-spacing:0px;word-spacing:0px;writing-mode:lr-tb;text-anchor:start;fill:#4d4c4a;fill-opacity:1;stroke:none"
       id="text4706"
       transform="matrix(0.5,0,0,0.5,546.91508,701.43015)">
      <path
         d="m -895.24811,-203.73744 q 0,1.09863 -0.28564,2.12036 -0.28565,1.01074 -0.802,1.90063 -0.51636,0.87891 -1.24146,1.60401 -0.71411,0.71411 -1.604,1.23047 -0.87891,0.51635 -1.90064,0.802 -1.01074,0.28564 -2.10937,0.28564 -1.08765,0 -2.10938,-0.28564 -1.01074,-0.28565 -1.88965,-0.802 -0.8789,-0.51636 -1.61499,-1.23047 -0.72509,-0.7251 -1.24145,-1.60401 -0.51636,-0.88989 -0.802,-1.90063 -0.28565,-1.02173 -0.28565,-2.12036 0,-1.09863 0.28565,-2.10938 0.28564,-1.01074 0.802,-1.88965 0.51636,-0.88989 1.24145,-1.61499 0.7251,-0.72509 1.60401,-1.24145 0.88989,-0.51636 1.90063,-0.802 1.01074,-0.28565 2.10938,-0.28565 1.64795,0 3.08716,0.62622 1.45019,0.62622 2.52685,1.70288 1.08765,1.07666 1.70288,2.52686 0.62622,1.43921 0.62622,3.08716 z m -1.01074,0 q 0,-0.94483 -0.25269,-1.82373 -0.24169,-0.8899 -0.69213,-1.64795 -0.45044,-0.76904 -1.08765,-1.39527 -0.63721,-0.6372 -1.40625,-1.08764 -0.76904,-0.45044 -1.65894,-0.69214 -0.8789,-0.25269 -1.83471,-0.25269 -1.42823,0 -2.68067,0.54932 -1.25244,0.53833 -2.19726,1.48315 -0.93384,0.93384 -1.48316,2.18628 -0.53833,1.25245 -0.53833,2.68067 0,1.43921 0.53833,2.70263 0.54932,1.25245 1.48316,2.19727 0.94482,0.93384 2.19726,1.47217 1.25244,0.53833 2.68067,0.53833 0.95581,0 1.83471,-0.2417 0.8899,-0.25269 1.65894,-0.69214 0.76904,-0.45044 1.40625,-1.07666 0.63721,-0.63721 1.08765,-1.40625 0.45044,-0.76904 0.69213,-1.64795 0.25269,-0.88989 0.25269,-1.8457 z m -4.72412,4.59228 -2.18628,-3.6914 -1.7688,0 0,3.6914 -1.39526,0 0,-9.12964 3.3728,0 q 1.56006,0 2.38403,0.69214 0.83496,0.69214 0.83496,1.91162 0,1.12061 -0.57129,1.80176 -0.57128,0.67017 -1.50512,0.87891 l 2.42798,3.84521 -1.59302,0 z m -0.15381,-6.5039 q 0,-0.75806 -0.52734,-1.15357 -0.51636,-0.39551 -1.40625,-0.39551 l -1.86768,0 0,3.30689 1.99951,0 q 0.87891,0 1.34033,-0.46143 0.46143,-0.47241 0.46143,-1.29638 z"
         style="fill:#4d4c4a;fill-opacity:1"
         id="path4711"
         inkscape:connector-curvature="0" />
    </g>
  </g>
</svg>
