<?xml version="1.0" encoding="UTF-8" standalone="no"?>
<!-- Created with Inkscape (http://www.inkscape.org/) -->

<svg
   xmlns:dc="http://purl.org/dc/elements/1.1/"
   xmlns:cc="http://creativecommons.org/ns#"
   xmlns:rdf="http://www.w3.org/1999/02/22-rdf-syntax-ns#"
   xmlns:svg="http://www.w3.org/2000/svg"
   xmlns="http://www.w3.org/2000/svg"
   xmlns:sodipodi="http://sodipodi.sourceforge.net/DTD/sodipodi-0.dtd"
   xmlns:inkscape="http://www.inkscape.org/namespaces/inkscape"
   width="256"
   height="128"
   id="svg4797"
   version="1.1"
   inkscape:version="0.48+devel r"
   viewBox="0 0 256 128"
   sodipodi:docname="backd_logo.svg">
  <defs
     id="defs4799" />
  <sodipodi:namedview
     id="base"
     pagecolor="#ffffff"
     bordercolor="#666666"
     borderopacity="1.0"
     inkscape:pageopacity="0"
     inkscape:pageshadow="2"
     inkscape:zoom="0.71367187"
     inkscape:cx="56.32649"
     inkscape:cy="150.13758"
     inkscape:document-units="px"
     inkscape:current-layer="layer2"
     showgrid="false"
     fit-margin-top="0"
     fit-margin-left="0"
     fit-margin-right="0"
     fit-margin-bottom="0"
     inkscape:showpageshadow="false"
     borderlayer="true"
     inkscape:window-width="1366"
     inkscape:window-height="668"
     inkscape:window-x="-2"
     inkscape:window-y="23"
     inkscape:window-maximized="1" />
  <metadata
     id="metadata4802">
    <rdf:RDF>
      <cc:Work
         rdf:about="">
        <dc:format>image/svg+xml</dc:format>
        <dc:type
           rdf:resource="http://purl.org/dc/dcmitype/StillImage" />
        <dc:title></dc:title>
      </cc:Work>
    </rdf:RDF>
  </metadata>
  <g
     inkscape:label="Capa 1"
     inkscape:groupmode="layer"
     id="layer1"
     transform="translate(162.28571,-523.79076)" />
  <g
     inkscape:groupmode="layer"
     id="layer2"
     inkscape:label="Capa 2"
     transform="translate(-412.00001,-248.00001)">
    <g
       id="g4333"
       transform="translate(0,64.00001)">
      <path
         inkscape:connector-curvature="0"
         id="path3740-6"
         d="m 417.33643,191.46849 0,2.16052 0,14.8104 0,16.31818 0,0.65274 0,0.68616 0,1.24388 0,0.54539 0,1.46381 0,14.8403 0,19.79294 1.35296,0 14.66085,0 1.6925,0 0.48207,0 0.48206,0 15.47192,0 c 9.40229,0 16.96917,-10.39066 16.96917,-19.79294 0,-5.56041 -2.64976,-11.55211 -6.75776,-15.5247 l 13.63338,-18.067 c 1.32687,-1.6918 3.72364,-0.74174 4.07648,0.92366 l 0,52.46098 10.35919,0 0,-1.35119 0,-34.90597 0,-36.25716 -1.69078,0 -27.38462,36.2906 c -2.18627,-1.83471 -4.71575,-3.1098 -7.44568,-3.49763 6.35478,-2.44838 10.84831,-8.58377 10.84831,-15.82205 0,-9.40226 -7.57217,-16.97092 -16.97445,-16.97092 l -11.10516,0 -1.69954,0 -16.9709,0 z m 72.42282,36.25716 c 0,9.86996 3.54842,18.39705 10.64771,25.58129 0.4776,0.48805 0.96281,0.95646 1.45502,1.41101 0.14989,0.13855 0.30433,0.26752 0.45568,0.4029 0.3395,0.30375 0.68102,0.60383 1.02746,0.892 0.18357,0.15259 0.3704,0.29872 0.55598,0.44689 0.35373,0.28284 0.70911,0.56 1.06969,0.82691 0.14144,0.10453 0.28335,0.20767 0.42576,0.30964 0.42617,0.30557 0.85742,0.59956 1.29313,0.8832 0.10199,0.0667 0.20353,0.13368 0.30615,0.19882 0.5367,0.34123 1.07982,0.66811 1.63091,0.97646 1.76704,0.98835 3.60936,1.80492 5.52445,2.45432 3.66787,1.24356 7.60313,1.87372 11.81419,1.87372 9.04969,0 16.86851,-2.88122 23.46301,-8.62442 l 0,8.62442 1.3512,0 0.3413,0 0.009,-0.009 7.3102,0 0,0.009 1.3512,0 0,-11.48693 13.31844,-17.65181 c 1.0115,-0.95637 2.76935,-0.65505 3.50467,0.49614 l 21.6086,28.63909 1.69254,0 5.15671,0 0,0.003 1.34945,0 7.65678,0 1.3512,0 0,-0.0163 c 0.22631,0 10.79985,0.0163 11.02775,0.0163 4.21097,0 8.14642,-0.63018 11.81419,-1.87373 2.51775,-0.85369 4.90772,-1.99992 7.16947,-3.43958 0.092,-0.0586 0.18273,-0.11998 0.27443,-0.17943 0.43698,-0.28412 0.86923,-0.57878 1.29667,-0.88496 0.14899,-0.10653 0.2973,-0.21447 0.44512,-0.32374 0.36906,-0.27321 0.73422,-0.5562 1.09609,-0.84626 0.16792,-0.1344 0.33689,-0.26666 0.50318,-0.40464 0.34554,-0.287 0.68516,-0.58592 1.02395,-0.8885 0.16539,-0.14773 0.33396,-0.29019 0.49791,-0.44158 0.48562,-0.44916 0.96611,-0.91178 1.4374,-1.39343 2.66223,-2.69411 4.82489,-5.57728 6.48857,-8.64908 0.55463,-1.02394 1.05358,-2.06939 1.49723,-3.13521 0.44365,-1.06592 0.83203,-2.15222 1.1647,-3.26012 0.16629,-0.5539 0.31881,-1.11223 0.45744,-1.67668 0.27727,-1.12888 0.49866,-2.27935 0.66504,-3.45012 0.24953,-1.75621 0.37475,-3.55948 0.37475,-5.41007 0,-1.8507 -0.1252,-3.65388 -0.37475,-5.41009 -0.16647,-1.17076 -0.38777,-2.32124 -0.66504,-3.45012 -0.13872,-0.56444 -0.29106,-1.12278 -0.45744,-1.6767 -0.33267,-1.10789 -0.72105,-2.19419 -1.1647,-3.26011 -0.44365,-1.06581 -0.9426,-2.11126 -1.49723,-3.13519 -1.6637,-3.07183 -3.82634,-5.95498 -6.48857,-8.64909 -0.47788,-0.48841 -0.96597,-0.9561 -1.45852,-1.411 -0.13547,-0.12485 -0.27337,-0.24354 -0.40992,-0.36596 -0.36259,-0.32537 -0.72753,-0.64433 -1.09786,-0.95182 -0.16016,-0.13278 -0.32214,-0.26111 -0.48382,-0.39059 -0.36862,-0.29569 -0.74102,-0.58377 -1.1172,-0.86208 -0.14214,-0.10487 -0.2844,-0.20899 -0.42754,-0.31142 -0.4249,-0.30459 -0.85516,-0.59693 -1.28961,-0.87967 -0.0994,-0.0646 -0.19745,-0.13188 -0.29734,-0.1953 -0.53787,-0.34216 -1.08208,-0.66918 -1.63445,-0.97821 -1.76584,-0.98801 -3.60709,-1.8032 -5.52092,-2.45258 -3.66977,-1.24515 -7.60753,-1.87724 -11.82123,-1.87724 -0.2279,0 -10.80144,0.0126 -11.02775,0.0163 l 0,-0.0163 -1.3512,0 -7.65678,0 -1.34945,0 0,0.003 -0.91839,0 -44.35906,58.78592 0,-42.82313 0,-2.24497 -10.35918,-13.71782 -0.008,-0.003 0,2.252 0,6.37244 c -6.59451,-5.74318 -14.41332,-8.62444 -23.463,-8.62444 -6.41118,0 -12.19021,1.44731 -17.34215,4.32983 -0.55399,0.30999 -1.10025,0.6384 -1.63974,0.98173 -0.0939,0.0597 -0.18641,0.12232 -0.27974,0.18296 -0.43697,0.28412 -0.86932,0.57878 -1.29666,0.88498 -0.15188,0.10863 -0.30319,0.21928 -0.45392,0.33076 -0.35554,0.26339 -0.70683,0.53565 -1.05562,0.8146 -0.18268,0.14592 -0.36638,0.28968 -0.54715,0.43983 -0.37331,0.31045 -0.74128,0.63377 -1.10665,0.96238 -0.11999,0.10775 -0.24168,0.21049 -0.36068,0.32021 -0.49911,0.4603 -0.99194,0.93388 -1.47612,1.4286 -7.09926,7.18432 -10.6477,15.71133 -10.6477,25.5813 z m 115.31283,-35.22969 0,64.31918 -22.37748,-29.65951 -0.62281,-0.82515 c -0.79469,-1.0434 -0.64809,-2.46043 -0.0387,-3.30761 l 0.36065,-0.47504 c 0.0567,-0.0721 0.10885,-0.14287 0.16719,-0.21815 l 22.5112,-29.83372 z m -79.05567,0.58411 c 9.07232,0 16.8753,3.0618 23.41196,9.1769 l 0,50.93737 c -6.53666,6.11518 -14.33964,9.17688 -23.41196,9.17688 -6.86678,0 -13.01097,-1.7864 -18.43998,-5.33968 -0.5986,-0.58084 -1.18763,-1.18374 -1.76467,-1.81744 -7.09929,-7.71974 -10.64772,-16.8829 -10.64772,-27.48845 0,-10.60564 3.54843,-19.76692 10.64772,-27.48667 0.57723,-0.63385 1.16597,-1.23808 1.76467,-1.81919 5.42901,-3.55334 11.57317,-5.33972 18.43998,-5.33972 z m 100.3898,0 c 6.86464,0 13.00708,1.78518 18.43472,5.33619 0.59984,0.58216 1.19165,1.18761 1.76994,1.82272 7.09928,7.71975 10.64771,16.88103 10.64771,27.48667 0,10.60555 -3.54843,19.76871 -10.64771,27.48845 -0.57768,0.63436 -1.16896,1.23783 -1.76819,1.81919 -5.4281,3.55194 -11.57102,5.33793 -18.43647,5.33793 -0.21067,0 -10.76737,-0.0111 -10.9767,-0.0144 l 0,-69.26298 c 0.20933,-0.003 10.76603,-0.0144 10.9767,-0.0144 z m -204.26672,32.39887 0.003,0 5.52091,0 8.34296,0 8.73351,0 6.73314,0 c 3.09978,0 5.97445,1.30329 8.39924,3.35513 l -25.50212,33.79579 -15.68129,0 0,-8.95522 0,-9.49006 0,-9.74164 0,-5.09337 0.0111,0 c 0.0414,-2.11511 1.46547,-3.55827 3.43958,-3.87063 z m 38.7326,4.27352 c 3.78048,3.72685 6.22817,9.3147 6.22817,14.43212 0,8.65623 -6.97051,18.44528 -15.62674,18.44528 l -6.73311,0 -8.67723,0 24.80891,-32.8774 z"
         style="display:inline;fill:#231f20;fill-opacity:1;stroke:none" />
      <path
         inkscape:connector-curvature="0"
         id="rect4273"
         d="m 417.33643,285.487 170.69942,0 0,19.045 -170.69942,0 z"
         style="opacity:1;fill:#231f20;fill-opacity:1;stroke:none;stroke-width:2.79999995;stroke-miterlimit:4;stroke-dasharray:none;stroke-opacity:0.55026455" />
      <g
         transform="translate(-62.28494,-4.14217)"
         id="text4275"
         style="font-style:normal;font-variant:normal;font-weight:300;font-stretch:normal;font-size:12.79215145px;line-height:125%;font-family:Source Sans Pro;-inkscape-font-specification:Source Sans Pro Light;letter-spacing:0px;word-spacing:0px;fill:#f9f9f9;fill-opacity:0.8627451;stroke:none;stroke-width:1px;stroke-linecap:butt;stroke-linejoin:miter;stroke-opacity:1">
        <path
           inkscape:connector-curvature="0"
           id="path4280"
           d="m 488.77943,302.50321 c 2.03396,0 3.47947,-1.72694 3.47947,-4.4005 0,-2.66077 -1.44551,-4.33654 -3.47947,-4.33654 -2.02116,0 -3.46667,1.67577 -3.46667,4.33654 0,2.67356 1.44551,4.4005 3.46667,4.4005 z m 0,-0.53727 c -1.71415,0 -2.85265,-1.52227 -2.85265,-3.86323 0,-2.32817 1.1385,-3.79927 2.85265,-3.79927 1.71415,0 2.85265,1.4711 2.85265,3.79927 0,2.34096 -1.1385,3.86323 -2.85265,3.86323 z" />
        <path
           inkscape:connector-curvature="0"
           id="path4282"
           d="m 494.6938,301.74847 c 0.63961,0.47331 1.26643,0.75474 1.84207,0.75474 1.44552,0 2.71194,-1.22805 2.71194,-3.31317 0,-1.90603 -0.8187,-3.13408 -2.45609,-3.13408 -0.75474,0 -1.48389,0.44773 -2.08512,0.92104 l -0.0384,0 -0.0512,-0.76753 -0.4861,0 0,8.91613 0.56285,0 0,-2.23863 0,-1.1385 z m 0,-0.53727 0,-3.64576 c 0.74195,-0.6524 1.39435,-1.01058 2.00837,-1.01058 1.40714,0 1.94441,1.12571 1.94441,2.63518 0,1.66298 -0.89545,2.81427 -2.13629,2.81427 -0.47331,0 -1.11292,-0.21746 -1.81649,-0.79311 z" />
        <path
           inkscape:connector-curvature="0"
           id="path4284"
           d="m 500.58999,299.29238 c 0,2.00836 1.26642,3.21083 2.83985,3.21083 0.89546,0 1.44552,-0.30701 1.93162,-0.60123 l -0.23026,-0.43494 c -0.46052,0.3326 -0.98499,0.55006 -1.65019,0.55006 -1.38155,0 -2.28979,-1.11291 -2.31538,-2.66076 l 4.42609,0 c 0.0256,-0.15351 0.0256,-0.30701 0.0256,-0.46052 0,-1.80369 -0.89545,-2.83986 -2.35375,-2.83986 -1.36876,0 -2.67356,1.22805 -2.67356,3.23642 z m 0.57564,-0.37098 c 0.12793,-1.47109 1.06175,-2.37934 2.11071,-2.37934 1.10012,0 1.80369,0.80591 1.80369,2.37934 l -3.9144,0 z" />
        <path
           inkscape:connector-curvature="0"
           id="path4286"
           d="m 507.27289,302.3497 0.56285,0 0,-4.63076 c 0.75474,-0.76753 1.27922,-1.15129 2.00837,-1.15129 0.99779,0 1.40714,0.61402 1.40714,1.91882 l 0,3.86323 0.56285,0 0,-3.93998 c 0,-1.58623 -0.58844,-2.35376 -1.85486,-2.35376 -0.84428,0 -1.48389,0.47331 -2.11071,1.10013 l -0.0384,0 -0.0512,-0.94662 -0.4861,0 0,6.14023 z" />
        <path
           inkscape:connector-curvature="0"
           id="path4288"
           d="m 516.02871,301.23678 c 0.6652,0.74195 1.62461,1.26643 2.85265,1.26643 1.6374,0 2.69915,-0.97221 2.69915,-2.26421 0,-1.29201 -0.83149,-1.81649 -1.77811,-2.23863 l -1.27922,-0.56286 c -0.61402,-0.28142 -1.4583,-0.65239 -1.4583,-1.6246 0,-0.92103 0.75474,-1.50947 1.86765,-1.50947 0.84428,0 1.50948,0.34539 2.00837,0.86986 l 0.3326,-0.39655 c -0.51169,-0.55007 -1.33039,-1.01058 -2.34097,-1.01058 -1.40713,0 -2.45609,0.85707 -2.45609,2.07233 0,1.25363 0.9722,1.7781 1.71415,2.09791 l 1.27921,0.57565 c 0.83149,0.37097 1.50948,0.71636 1.50948,1.76531 0,0.99779 -0.80591,1.68857 -2.09792,1.68857 -0.9722,0 -1.85486,-0.44773 -2.46888,-1.13851 l -0.38377,0.40935 z" />
        <path
           inkscape:connector-curvature="0"
           id="path4290"
           d="m 522.77638,299.29238 c 0,2.03395 1.27921,3.21083 2.75031,3.21083 1.48389,0 2.7631,-1.17688 2.7631,-3.21083 0,-2.05954 -1.27921,-3.23642 -2.7631,-3.23642 -1.4711,0 -2.75031,1.17688 -2.75031,3.23642 z m 0.58843,0 c 0,-1.62461 0.92104,-2.73752 2.16188,-2.73752 1.24084,0 2.17466,1.11291 2.17466,2.73752 0,1.61181 -0.93382,2.71193 -2.17466,2.71193 -1.24084,0 -2.16188,-1.10012 -2.16188,-2.71193 z" />
        <path
           inkscape:connector-curvature="0"
           id="path4292"
           d="m 530.04431,300.14945 c 0,1.58623 0.58844,2.35376 1.85487,2.35376 0.84428,0 1.48389,-0.47331 2.08512,-1.17688 l 0.0256,0 0.064,1.02337 0.47331,0 0,-6.14023 -0.56285,0 0,4.52842 c -0.71636,0.86987 -1.25363,1.25363 -1.98279,1.25363 -0.98499,0 -1.39434,-0.61402 -1.39434,-1.91882 l 0,-3.86323 -0.56286,0 0,3.93998 z" />
        <path
           inkscape:connector-curvature="0"
           id="path4294"
           d="m 536.90471,302.3497 0.56285,0 0,-4.18303 c 0.47331,-1.1513 1.12571,-1.57344 1.67577,-1.57344 0.24305,0 0.35818,0.0256 0.56286,0.10234 l 0.12792,-0.51169 c -0.20467,-0.10233 -0.38376,-0.12792 -0.61402,-0.12792 -0.72916,0 -1.33039,0.53727 -1.73974,1.29201 l -0.0384,0 -0.0512,-1.1385 -0.4861,0 0,6.14023 z" />
        <path
           inkscape:connector-curvature="0"
           id="path4296"
           d="m 540.31561,299.29238 c 0,2.03395 1.20247,3.21083 2.78869,3.21083 0.78032,0 1.43272,-0.34539 1.9572,-0.8187 l -0.29422,-0.38377 c -0.42214,0.38377 -0.98499,0.70357 -1.63739,0.70357 -1.34318,0 -2.22584,-1.10012 -2.22584,-2.71193 0,-1.62461 0.97221,-2.73752 2.22584,-2.73752 0.60123,0 1.06174,0.28142 1.4583,0.6524 l 0.3326,-0.39656 c -0.40935,-0.38377 -0.95941,-0.75474 -1.8037,-0.75474 -1.49668,0 -2.80148,1.17688 -2.80148,3.23642 z" />
        <path
           inkscape:connector-curvature="0"
           id="path4298"
           d="m 545.83723,299.29238 c 0,2.00836 1.26642,3.21083 2.83985,3.21083 0.89546,0 1.44552,-0.30701 1.93162,-0.60123 l -0.23026,-0.43494 c -0.46052,0.3326 -0.98499,0.55006 -1.65019,0.55006 -1.38155,0 -2.28979,-1.11291 -2.31538,-2.66076 l 4.42609,0 c 0.0256,-0.15351 0.0256,-0.30701 0.0256,-0.46052 0,-1.80369 -0.89545,-2.83986 -2.35375,-2.83986 -1.36876,0 -2.67356,1.22805 -2.67356,3.23642 z m 0.57564,-0.37098 c 0.12793,-1.47109 1.06175,-2.37934 2.11071,-2.37934 1.10012,0 1.80369,0.80591 1.80369,2.37934 l -3.9144,0 z" />
        <path
           inkscape:connector-curvature="0"
           id="path4300"
           d="m 554.00161,298.20504 c 1.27922,0 2.32818,-0.98499 2.32818,-2.46888 0,-1.49668 -1.04896,-2.49447 -2.32818,-2.49447 -1.26642,0 -2.32817,0.99779 -2.32817,2.49447 0,1.48389 1.06175,2.46888 2.32817,2.46888 z m 0,-0.37097 c -1.07454,0 -1.93161,-0.88266 -1.93161,-2.09791 0,-1.22805 0.85707,-2.13629 1.93161,-2.13629 1.07454,0 1.93162,0.90824 1.93162,2.13629 0,1.21525 -0.85708,2.09791 -1.93162,2.09791 z m -0.86986,-0.83149 0.40935,0 0,-0.9722 0.60123,0 0.49889,0.9722 0.47331,0 -0.62681,-1.10012 c 0.29422,-0.0896 0.51168,-0.39656 0.51168,-0.71636 0,-0.63961 -0.4861,-0.8187 -0.98499,-0.8187 l -0.88266,0 0,2.63518 z m 0.40935,-1.31759 0,-0.95941 0.40935,0 c 0.46051,0 0.61402,0.19188 0.61402,0.4861 0,0.3326 -0.26864,0.47331 -0.6524,0.47331 l -0.37097,0 z" />
        <path
           inkscape:connector-curvature="0"
           id="path4302"
           d="m 562.79762,293.20331 c -0.28143,-0.12792 -0.61402,-0.20467 -0.89545,-0.20467 -0.9722,0 -1.52227,0.62681 -1.52227,1.84207 l 0,1.36876 -0.84428,0.0512 0,0.43493 0.84428,0 0,5.65413 0.56286,0 0,-5.65413 1.41993,0 0,-0.4861 -1.41993,0 0,-1.33039 c 0,-0.88265 0.30701,-1.39434 0.95941,-1.39434 0.23026,0 0.4861,0.0512 0.74194,0.17909 l 0.15351,-0.46052 z" />
        <path
           inkscape:connector-curvature="0"
           id="path4304"
           d="m 563.29891,300.14945 c 0,1.58623 0.58844,2.35376 1.85486,2.35376 0.84429,0 1.48389,-0.47331 2.08512,-1.17688 l 0.0256,0 0.064,1.02337 0.47331,0 0,-6.14023 -0.56286,0 0,4.52842 c -0.71636,0.86987 -1.25363,1.25363 -1.98278,1.25363 -0.985,0 -1.39434,-0.61402 -1.39434,-1.91882 l 0,-3.86323 -0.56286,0 0,3.93998 z" />
        <path
           inkscape:connector-curvature="0"
           id="path4306"
           d="m 570.1593,302.3497 0.56285,0 0,-4.63076 c 0.75474,-0.76753 1.27922,-1.15129 2.00837,-1.15129 0.99779,0 1.40714,0.61402 1.40714,1.91882 l 0,3.86323 0.56285,0 0,-3.93998 c 0,-1.58623 -0.58844,-2.35376 -1.85486,-2.35376 -0.84428,0 -1.48389,0.47331 -2.1107,1.10013 l -0.0384,0 -0.0512,-0.94662 -0.4861,0 0,6.14023 z" />
        <path
           inkscape:connector-curvature="0"
           id="path4308"
           d="m 576.44345,299.29238 c 0,2.07233 0.99779,3.21083 2.54564,3.21083 0.8187,0 1.49668,-0.44773 1.99557,-0.94662 l 0.0384,0 0.0512,0.79311 0.4861,0 0,-9.19756 -0.56285,0 0,2.53285 0.0256,1.12571 c -0.61402,-0.47331 -1.11292,-0.75474 -1.85486,-0.75474 -1.45831,0 -2.72473,1.25363 -2.72473,3.23642 z m 0.60123,0 c 0,-1.54785 0.93383,-2.73752 2.16188,-2.73752 0.60123,0 1.1385,0.21746 1.7909,0.79311 l 0,3.64576 c -0.6524,0.6524 -1.25363,1.01058 -1.93162,1.01058 -1.3048,0 -2.02116,-1.08733 -2.02116,-2.71193 z" />
        <path
           inkscape:connector-curvature="0"
           id="path4310"
           d="m 584.22008,294.72558 c 0.28142,0 0.51168,-0.20468 0.51168,-0.4989 0,-0.3198 -0.23026,-0.51168 -0.51168,-0.51168 -0.28143,0 -0.51169,0.19188 -0.51169,0.51168 0,0.29422 0.23026,0.4989 0.51169,0.4989 z m -0.29422,7.62412 0.56285,0 0,-6.14023 -0.56285,0 0,6.14023 z" />
        <path
           inkscape:connector-curvature="0"
           id="path4312"
           d="m 586.84907,302.3497 0.56285,0 0,-4.63076 c 0.75474,-0.76753 1.27922,-1.15129 2.00837,-1.15129 0.99779,0 1.40713,0.61402 1.40713,1.91882 l 0,3.86323 0.56286,0 0,-3.93998 c 0,-1.58623 -0.58844,-2.35376 -1.85486,-2.35376 -0.84428,0 -1.48389,0.47331 -2.11071,1.10013 l -0.0384,0 -0.0512,-0.94662 -0.4861,0 0,6.14023 z" />
        <path
           inkscape:connector-curvature="0"
           id="path4314"
           d="m 593.67048,303.55216 c 0,-0.43493 0.24305,-0.90824 0.80591,-1.292 0.3198,0.0768 0.6396,0.10233 0.76752,0.10233 l 1.3176,0 c 0.92103,0 1.41992,0.25585 1.41992,0.93383 0,0.76753 -0.88265,1.54785 -2.26421,1.54785 -1.3048,0 -2.04674,-0.52448 -2.04674,-1.29201 z m -0.53727,0.0512 c 0,1.03617 0.9722,1.70136 2.52005,1.70136 1.76532,0 2.90382,-1.01058 2.90382,-2.07233 0,-0.9722 -0.63961,-1.40714 -2.02116,-1.40714 l -1.31759,0 c -0.92103,0 -1.17688,-0.35818 -1.17688,-0.8059 0,-0.40935 0.23026,-0.66519 0.4989,-0.88266 0.28142,0.1663 0.67798,0.25584 1.02337,0.25584 1.20246,0 2.13629,-0.90824 2.13629,-2.16187 0,-0.6524 -0.28143,-1.20246 -0.67799,-1.54785 l 1.43272,0 0,-0.47331 -2.08512,0 c -0.19188,-0.0768 -0.47331,-0.15351 -0.8059,-0.15351 -1.20246,0 -2.16188,0.89545 -2.16188,2.16188 0,0.74194 0.38377,1.35596 0.76753,1.68856 l 0,0.0512 c -0.26863,0.19188 -0.66519,0.57565 -0.66519,1.12571 0,0.47331 0.23026,0.8059 0.53727,0.98499 l 0,0.0512 c -0.56285,0.40935 -0.90824,0.94662 -0.90824,1.48389 z m 2.43051,-3.65855 c -0.85708,0 -1.59902,-0.69078 -1.59902,-1.72694 0,-1.04896 0.72915,-1.70136 1.59902,-1.70136 0.86986,0 1.58623,0.66519 1.58623,1.70136 0,1.03616 -0.74195,1.72694 -1.58623,1.72694 z" />
        <path
           inkscape:connector-curvature="0"
           id="path4316"
           d="m 602.97737,301.74847 c 0.6396,0.47331 1.26642,0.75474 1.84207,0.75474 1.44551,0 2.71193,-1.22805 2.71193,-3.31317 0,-1.90603 -0.8187,-3.13408 -2.45609,-3.13408 -0.75474,0 -1.48389,0.44773 -2.08512,0.92104 l -0.0384,0 -0.0512,-0.76753 -0.4861,0 0,8.91613 0.56286,0 0,-2.23863 0,-1.1385 z m 0,-0.53727 0,-3.64576 c 0.74194,-0.6524 1.39434,-1.01058 2.00836,-1.01058 1.40714,0 1.94441,1.12571 1.94441,2.63518 0,1.66298 -0.89545,2.81427 -2.13629,2.81427 -0.47331,0 -1.11292,-0.21746 -1.81648,-0.79311 z" />
        <path
           inkscape:connector-curvature="0"
           id="path4318"
           d="m 609.38524,302.3497 0.56285,0 0,-4.18303 c 0.47331,-1.1513 1.12571,-1.57344 1.67577,-1.57344 0.24305,0 0.35818,0.0256 0.56286,0.10234 l 0.12792,-0.51169 c -0.20468,-0.10233 -0.38377,-0.12792 -0.61402,-0.12792 -0.72916,0 -1.33039,0.53727 -1.73974,1.29201 l -0.0384,0 -0.0512,-1.1385 -0.4861,0 0,6.14023 z" />
        <path
           inkscape:connector-curvature="0"
           id="path4320"
           d="m 612.79614,299.29238 c 0,2.03395 1.27922,3.21083 2.75032,3.21083 1.48388,0 2.7631,-1.17688 2.7631,-3.21083 0,-2.05954 -1.27922,-3.23642 -2.7631,-3.23642 -1.4711,0 -2.75032,1.17688 -2.75032,3.23642 z m 0.58844,0 c 0,-1.62461 0.92104,-2.73752 2.16188,-2.73752 1.24083,0 2.17466,1.11291 2.17466,2.73752 0,1.61181 -0.93383,2.71193 -2.17466,2.71193 -1.24084,0 -2.16188,-1.10012 -2.16188,-2.71193 z" />
        <path
           inkscape:connector-curvature="0"
           id="path4322"
           d="m 620.17921,303.55216 c 0,-0.43493 0.24305,-0.90824 0.8059,-1.292 0.31981,0.0768 0.63961,0.10233 0.76753,0.10233 l 1.31759,0 c 0.92104,0 1.41993,0.25585 1.41993,0.93383 0,0.76753 -0.88266,1.54785 -2.26421,1.54785 -1.3048,0 -2.04674,-0.52448 -2.04674,-1.29201 z m -0.53727,0.0512 c 0,1.03617 0.9722,1.70136 2.52005,1.70136 1.76532,0 2.90382,-1.01058 2.90382,-2.07233 0,-0.9722 -0.63961,-1.40714 -2.02116,-1.40714 l -1.31759,0 c -0.92104,0 -1.17688,-0.35818 -1.17688,-0.8059 0,-0.40935 0.23026,-0.66519 0.49889,-0.88266 0.28143,0.1663 0.67799,0.25584 1.02338,0.25584 1.20246,0 2.13629,-0.90824 2.13629,-2.16187 0,-0.6524 -0.28143,-1.20246 -0.67799,-1.54785 l 1.43272,0 0,-0.47331 -2.08512,0 c -0.19188,-0.0768 -0.47331,-0.15351 -0.8059,-0.15351 -1.20247,0 -2.16188,0.89545 -2.16188,2.16188 0,0.74194 0.38377,1.35596 0.76753,1.68856 l 0,0.0512 c -0.26863,0.19188 -0.66519,0.57565 -0.66519,1.12571 0,0.47331 0.23026,0.8059 0.53727,0.98499 l 0,0.0512 c -0.56285,0.40935 -0.90824,0.94662 -0.90824,1.48389 z m 2.43051,-3.65855 c -0.85708,0 -1.59902,-0.69078 -1.59902,-1.72694 0,-1.04896 0.72915,-1.70136 1.59902,-1.70136 0.86986,0 1.58622,0.66519 1.58622,1.70136 0,1.03616 -0.74194,1.72694 -1.58622,1.72694 z" />
        <path
           inkscape:connector-curvature="0"
           id="path4324"
           d="m 626.37481,302.3497 0.56286,0 0,-4.18303 c 0.47331,-1.1513 1.12571,-1.57344 1.67577,-1.57344 0.24305,0 0.35818,0.0256 0.56286,0.10234 l 0.12792,-0.51169 c -0.20468,-0.10233 -0.38377,-0.12792 -0.61403,-0.12792 -0.72915,0 -1.33038,0.53727 -1.73973,1.29201 l -0.0384,0 -0.0512,-1.1385 -0.48611,0 0,6.14023 z" />
        <path
           inkscape:connector-curvature="0"
           id="path4326"
           d="m 629.77712,300.81464 c 0,1.16409 0.8187,1.68857 1.7909,1.68857 0.80591,0 1.54785,-0.44773 2.17467,-0.94662 l 0.0256,0 0.064,0.79311 0.47331,0 0,-3.92719 c 0,-1.31759 -0.4861,-2.36655 -1.9444,-2.36655 -0.99779,0 -1.84207,0.4861 -2.27701,0.79312 l 0.25585,0.42214 c 0.40935,-0.30701 1.12571,-0.71636 1.9572,-0.71636 1.20246,0 1.47109,1.01058 1.44551,1.9444 -2.72473,0.30701 -3.96557,0.95941 -3.96557,2.31538 z m 0.58844,-0.0256 c 0,-0.97221 0.85708,-1.56064 3.37713,-1.85486 l 0,2.08512 c -0.75474,0.6524 -1.38155,0.99778 -2.08512,0.99778 -0.70357,0 -1.29201,-0.34538 -1.29201,-1.22804 z" />
        <path
           inkscape:connector-curvature="0"
           id="path4328"
           d="m 636.4936,302.3497 0.56286,0 0,-4.63076 c 0.67798,-0.76753 1.29201,-1.15129 1.84207,-1.15129 0.94662,0 1.38155,0.61402 1.38155,1.91882 l 0,3.86323 0.56286,0 0,-4.63076 c 0.67798,-0.76753 1.26642,-1.15129 1.84207,-1.15129 0.93382,0 1.36876,0.61402 1.36876,1.91882 l 0,3.86323 0.57564,0 0,-3.93998 c 0,-1.58623 -0.61402,-2.35376 -1.84207,-2.35376 -0.70357,0 -1.38155,0.4861 -2.08512,1.25363 -0.21746,-0.75473 -0.71636,-1.25363 -1.70135,-1.25363 -0.67799,0 -1.38156,0.47331 -1.93162,1.10013 l -0.0384,0 -0.0512,-0.94662 -0.48611,0 0,6.14023 z" />
      </g>
    </g>
  </g>
</svg>
