<?xml version="1.0" encoding="UTF-8" standalone="no"?>
<!-- Created with Inkscape (http://www.inkscape.org/) -->

<svg
   xmlns:dc="http://purl.org/dc/elements/1.1/"
   xmlns:cc="http://creativecommons.org/ns#"
   xmlns:rdf="http://www.w3.org/1999/02/22-rdf-syntax-ns#"
   xmlns:svg="http://www.w3.org/2000/svg"
   xmlns="http://www.w3.org/2000/svg"
   xmlns:sodipodi="http://sodipodi.sourceforge.net/DTD/sodipodi-0.dtd"
   xmlns:inkscape="http://www.inkscape.org/namespaces/inkscape"
   width="136.86328"
   height="136.86328"
   id="svg4219"
   version="1.1"
   inkscape:version="0.48+devel r12849"
   viewBox="0 0 136.86326 136.86328"
   sodipodi:docname="logo.svg"
   inkscape:export-filename="/home/uri/Web/nitruxSA/images/logo.png"
   inkscape:export-xdpi="168.34319"
   inkscape:export-ydpi="168.34319">
  <defs
     id="defs4221" />
  <sodipodi:namedview
     id="base"
     pagecolor="#ffffff"
     bordercolor="#666666"
     borderopacity="1.0"
     inkscape:pageopacity="0.0"
     inkscape:pageshadow="2"
     inkscape:zoom="15.839192"
     inkscape:cx="-12.781939"
     inkscape:cy="69.449365"
     inkscape:document-units="px"
     inkscape:current-layer="layer1"
     showgrid="false"
     fit-margin-top="0"
     fit-margin-left="0"
     fit-margin-right="0"
     fit-margin-bottom="0"
     inkscape:showpageshadow="false"
     borderlayer="true"
     inkscape:window-width="1366"
     inkscape:window-height="673"
     inkscape:window-x="0"
     inkscape:window-y="24"
     inkscape:window-maximized="1" />
  <metadata
     id="metadata4224">
    <rdf:RDF>
      <cc:Work
         rdf:about="">
        <dc:format>image/svg+xml</dc:format>
        <dc:type
           rdf:resource="http://purl.org/dc/dcmitype/StillImage" />
        <dc:title />
      </cc:Work>
    </rdf:RDF>
  </metadata>
  <g
     inkscape:label="Capa 1"
     inkscape:groupmode="layer"
     id="layer1"
     transform="translate(-139.91192,-669.64481)">
    <path
       style="fill:#ffffff;fill-opacity:1;stroke:none;display:inline"
       d="m 273.50391,0 0,136.86328 136.86328,0 0,-136.86328 -136.86328,0 z m 24.79492,27.322266 0.004,0.0078 40.04883,53.074219 40.05078,-53.074219 1.91797,0 -26.40039,34.988281 c -0.0662,0.08528 -0.12515,0.164394 -0.18945,0.246094 l -0.41016,0.539063 c -0.69107,0.96049 -0.85614,2.56695 0.0449,3.75 l 0.70508,0.935546 30.34766,40.22461 1.1543,1.52735 -1.1543,0 -10.82031,0 -1.91993,0 -23.30664,-30.886725 0,15.029297 0,15.857428 -1.91797,0 -14.08789,-18.673834 -0.95898,-1.269532 -24.91797,-33.033203 c -1.62276,-2.15121 -4.7404,-0.69778 -4.7168,1.5 l 0,51.476569 -3.47265,0 0,-63.832038 0,-2.544922 0,-4.095703 0,-9.216797 0,-2.529296 z m 11.34179,0 1.91797,0 11.98633,0 0,0.01563 24.35547,32.277343 -0.95703,1.271485 -5.0293,6.664062 -0.95898,1.269531 -31.31446,-41.498046 z m 35.10352,48.539062 c -0.56226,0.02992 -1.11092,0.235868 -1.54102,0.642578 l -3.89648,5.164063 7.5332,9.984375 0,-14.998047 c -0.54755,-0.54735 -1.33245,-0.833869 -2.0957,-0.792969 z"
       id="rect4454"
       inkscape:connector-curvature="0"
       transform="translate(-133.59202,669.64481)" />
    <path
       style="fill:#231f20;fill-opacity:1;stroke:none;display:inline"
       d="m 109.62871,730.07645 0,16 16,0 0,-16 -16,0 z"
       id="path4065"
       inkscape:export-filename="/home/uri/Web/nitruxSA/favicon.png"
       inkscape:export-xdpi="168"
       inkscape:export-ydpi="168" />
    <path
       style="fill:#ffffff;fill-opacity:1;stroke:none;display:inline"
       d="M -26.058594 63.625 L -22.398438 68.476562 L -22.285156 68.328125 L -21.697266 67.548828 L -21.585938 67.400391 L -24.433594 63.626953 L -24.433594 63.625 L -25.833984 63.625 L -26.058594 63.625 z M -27.382812 63.626953 L -27.382812 63.921875 L -27.382812 65 L -27.382812 65.476562 L -27.382812 65.775391 L -27.382812 73.236328 L -26.976562 73.236328 L -26.976562 67.21875 C -26.982733 66.9618 -26.615461 66.791489 -26.425781 67.042969 L -23.513672 70.90625 L -23.400391 71.054688 L -21.753906 73.236328 L -21.529297 73.236328 L -21.529297 71.382812 L -21.529297 69.626953 L -18.804688 73.236328 L -18.580078 73.236328 L -17.314453 73.236328 L -17.179688 73.236328 L -17.314453 73.058594 L -20.863281 68.355469 L -20.945312 68.246094 C -21.051713 68.107834 -21.033825 67.920914 -20.953125 67.808594 L -20.904297 67.746094 C -20.896297 67.735694 -20.890813 67.726997 -20.882812 67.716797 L -17.794922 63.626953 L -18.021484 63.626953 L -22.701172 69.832031 L -27.382812 63.626953 z "
       transform="translate(139.91191,669.64481)"
       id="path4063" />
  </g>
</svg>
