<?xml version="1.0" encoding="UTF-8" standalone="no"?>
<!-- Created with Inkscape (http://www.inkscape.org/) -->

<svg
   xmlns:dc="http://purl.org/dc/elements/1.1/"
   xmlns:cc="http://creativecommons.org/ns#"
   xmlns:rdf="http://www.w3.org/1999/02/22-rdf-syntax-ns#"
   xmlns:svg="http://www.w3.org/2000/svg"
   xmlns="http://www.w3.org/2000/svg"
   xmlns:sodipodi="http://sodipodi.sourceforge.net/DTD/sodipodi-0.dtd"
   xmlns:inkscape="http://www.inkscape.org/namespaces/inkscape"
   width="128"
   height="128"
   id="svg2"
   version="1.1"
   inkscape:version="0.48+devel r"
   viewBox="0 0 128 128"
   sodipodi:docname="maui.svg">
  <defs
     id="defs4" />
  <sodipodi:namedview
     id="base"
     pagecolor="#ffffff"
     bordercolor="#666666"
     borderopacity="1.0"
     inkscape:pageopacity="0.0"
     inkscape:pageshadow="2"
     inkscape:zoom="1"
     inkscape:cx="114.436"
     inkscape:cy="68.075118"
     inkscape:document-units="px"
     inkscape:current-layer="layer1"
     showgrid="false"
     inkscape:showpageshadow="false"
     units="px"
     inkscape:window-width="1366"
     inkscape:window-height="668"
     inkscape:window-x="-2"
     inkscape:window-y="23"
     inkscape:window-maximized="1" />
  <metadata
     id="metadata7">
    <rdf:RDF>
      <cc:Work
         rdf:about="">
        <dc:format>image/svg+xml</dc:format>
        <dc:type
           rdf:resource="http://purl.org/dc/dcmitype/StillImage" />
        <dc:title />
      </cc:Work>
    </rdf:RDF>
  </metadata>
  <g
     inkscape:label="Capa 1"
     inkscape:groupmode="layer"
     id="layer1"
     transform="translate(0,-924.36238)">
    <path
       style="opacity:1;fill:#ffffff;fill-opacity:1;stroke:none;stroke-width:2.79999995;stroke-miterlimit:4;stroke-dasharray:none;stroke-opacity:0.55026455"
       d="m 58.805425,954.67094 c -7.26346,2.96963 -17.24547,12.27617 -25.04297,23.34961 -1.09057,1.54874 -1.98438,2.68979 -1.98438,2.53516 0,-0.15487 0.78662,-3.45748 1.7461,-7.33984 1.35545,-5.48439 1.75012,-8.05093 1.77343,-11.50196 0.0302,-4.41461 0.0218,-4.45054 -1.48828,-5.81054 -2.90718,-2.6178 -7.5007,-2.78387 -14.18359,-0.51368 -0.96322,0.32716 -1.79103,0.56131 -2.21484,0.63672 -0.90664,1.32969 -1.75461,2.70266 -2.54883,4.11133 0.003,0.003 0.007,0.005 0.01,0.008 1.01644,1.02265 0.95227,9.14157 -0.12109,15.53711 -1.02114,6.08554 -3.80375,17.71624 -5.58399,23.33594 l -0.42382,1.33991 c 1.8087,8.5804 5.52134,16.4291 10.67187,23.0898 l 0.72852,-1.0801 c 0.59831,-0.8871 2.74475,-5.5391 4.77148,-10.3379 6.86293,-16.25012 9.01447,-20.12853 17.52539,-31.58593 5.03852,-6.783 8.55198,-10.11609 10.69141,-10.12109 0.49379,-10e-4 0.91414,0.17379 1.26367,0.52539 0.68023,0.68455 0.69656,1.17118 0.15039,4.4668 -0.84264,5.08603 -2.28679,11.44051 -6.94336,30.54693 -2.7209,11.1632 -3.84572,16.5692 -3.52734,16.9551 0.94022,1.1399 5.17387,3.1193 7.29687,3.4121 2.40957,0.3323 6.72502,-0.4412 9.26563,-1.6602 1.56739,-0.752 1.64766,-0.9082 1.70508,-3.4062 0.21737,-9.4335 15.7676,-38.77565 25.41796,-47.95906 2.9414,-2.79904 4.38221,-3.42705 5.43555,-2.36719 0.93881,0.94471 0.51741,3.65929 -3.00586,19.39648 -3.738,16.69697 -4.49609,20.76717 -4.5332,24.32037 -0.0827,7.8742 3.72699,11.9672 11.20312,12.0332 3.003745,0.026 3.824485,-0.1785 6.925785,-1.7207 1.93484,-0.9622 5.07639,-3.0652 6.98046,-4.6738 l 0.32813,-0.2793 c 3.51182,-5.3391 6.15211,-11.3136 7.72461,-17.7246 -0.99834,0.8121 -2.3926,2.0231 -3.88477,3.3906 -7.55359,6.9232 -9.42998,7.9087 -10.08203,5.2949 -0.73297,-2.9386 0.23241,-9.2367 3.2793,-21.3809 3.79189,-15.11408 4.59259,-19.34879 4.69336,-24.81445 0.0912,-4.95277 -0.83957,-7.34358 -3.72071,-9.55469 -2.37013,-1.81888 -6.8352,-2.10962 -10.587885,-0.6875 -7.31166,2.77077 -16.35804,10.99564 -24.32421,22.11523 -2.07291,2.8938 -2.69773,3.52529 -2.43946,2.46289 1.24686,-5.12924 1.71002,-8.29437 1.95508,-13.33398 0.26053,-5.35718 0.20863,-5.84849 -0.82812,-7.83789 -3.6647,-4.90522 -9.07439,-5.17876 -14.07446,-3.17207 z"
       id="rect4099"
       inkscape:connector-curvature="0"
       sodipodi:nodetypes="cssscccccccccccsscccccsccscsccccccccsccsccscc" />
    <path
       style="fill:#00a1e2;fill-opacity:0.98431373"
       d="m 64.320876,931.36238 c -6.34713,0.0383 -12.759546,1.12247 -19.041621,3.27992 -5.4109,1.85844 -10.805064,4.79053 -15.615126,8.39157 -4.732842,3.64844 -8.87209,8.03554 -12.252397,12.99519 0.421687,-0.0741 1.257128,-0.31015 2.225501,-0.63906 6.682893,-2.27019 11.275399,-2.10361 14.182579,0.51419 1.510038,1.36 1.519691,1.396 1.489539,5.81061 -0.02331,3.45103 -0.419525,6.01659 -1.774982,11.50098 -0.959479,3.88236 -1.74463,7.18552 -1.74463,7.34039 0,0.15463 0.892523,-0.98614 1.983095,-2.53488 7.797504,-11.07344 17.779882,-20.38144 25.043335,-23.35107 5.908877,-2.41605 11.861402,-1.07396 14.074847,3.17303 1.03675,1.9894 1.088681,2.48009 0.828148,7.83727 -0.245057,5.03961 -0.709581,8.20565 -1.956434,13.33489 -0.258272,1.0624 0.367465,0.43049 2.440375,-2.46331 7.966171,-11.11959 17.012349,-19.34415 24.324011,-22.11492 3.752684,-1.42212 8.217884,-1.13267 10.588014,0.68621 2.88114,2.21111 3.8123,4.60211 3.72113,9.55488 -0.10077,5.46566 -0.9019,9.70072 -4.69379,24.8148 -3.04689,12.14413 -4.01304,18.44293 -3.28007,21.38153 0.65205,2.6138 2.5284,1.6279 10.08199,-5.2953 1.49574,-1.3708 2.89433,-2.5856 3.89315,-3.3978 1.08387,-4.42226 1.66246,-9.05001 1.66246,-13.81967 0,-31.47081 -25.027062,-56.82622 -56.179114,-56.99945 z m -49.458392,28.76776 c -4.687214,8.31398 -7.3624815,17.94554 -7.3624815,28.23169 0,4.12229 0.4332414,8.13843 1.2495742,12.00807 l 0.4282594,-1.35201 c 1.7802339,-5.6197 4.5636349,-17.25059 5.5847789,-23.33613 1.073364,-6.39554 1.135819,-14.51361 0.119387,-15.53626 -0.006,-0.006 -0.0128,-0.0107 -0.01921,-0.016 z m 38.279621,10.19326 c -2.139426,0.005 -5.651776,3.33766 -10.690298,10.12066 -8.510927,11.4574 -10.662258,15.33521 -17.525182,31.58534 -2.026732,4.7988 -4.174351,9.451 -4.772668,10.3381 l -0.736381,1.0919 c 4.036456,5.2195 8.957743,9.704 14.53906,13.2327 7.25465,4.4574 15.391648,7.2157 24.338887,8.2324 2.506081,0.2848 4.19538,0.4298 5.848503,0.4379 0.292936,0 0.585112,0 0.877117,-0.01 1.398053,-0.033 2.866604,-0.1618 4.870407,-0.3857 3.250826,-0.3637 6.301212,-0.9064 9.221737,-1.6536 13.288666,-3.6876 24.585223,-12.1249 32.002403,-23.4068 l -0.33876,0.2861 c -1.90407,1.6086 -5.04478,3.712 -6.97962,4.6742 -3.10129,1.5422 -3.921891,1.746 -6.925639,1.7196 -7.476137,-0.066 -11.286614,-4.1585 -11.203931,-12.0327 0.03711,-3.5532 0.796055,-7.6226 4.534053,-24.31953 3.523264,-15.73719 3.94372,-18.45155 3.004909,-19.39626 -1.053337,-1.05986 -2.492946,-0.43288 -5.43434,2.36616 -9.650367,9.18341 -25.202328,38.52493 -25.419704,47.95843 -0.05742,2.498 -0.136374,2.6558 -1.703764,3.4078 -2.540605,1.219 -6.856312,1.9922 -9.265875,1.6599 -2.123,-0.2928 -6.357194,-2.2731 -7.297416,-3.413 -0.318376,-0.3859 0.806399,-5.792 3.527305,-16.9552 4.656572,-19.10636 6.100703,-25.46019 6.943346,-30.54622 0.546166,-3.29562 0.53004,-3.78226 -0.150189,-4.46681 -0.349528,-0.3516 -0.770165,-0.52756 -1.26396,-0.52632 z"
       id="path4112"
       inkscape:connector-curvature="0" />
  </g>
</svg>
