<?xml version="1.0" encoding="UTF-8" standalone="no"?>
<svg
   xmlns:dc="http://purl.org/dc/elements/1.1/"
   xmlns:cc="http://creativecommons.org/ns#"
   xmlns:rdf="http://www.w3.org/1999/02/22-rdf-syntax-ns#"
   xmlns:svg="http://www.w3.org/2000/svg"
   xmlns="http://www.w3.org/2000/svg"
   xmlns:xlink="http://www.w3.org/1999/xlink"
   xmlns:sodipodi="http://sodipodi.sourceforge.net/DTD/sodipodi-0.dtd"
   xmlns:inkscape="http://www.inkscape.org/namespaces/inkscape"
   viewBox="0 0 128 128"
   id="svg2"
   version="1.1"
   inkscape:version="0.48+devel r"
   width="128"
   height="128"
   sodipodi:docname="logo.svg">
  <sodipodi:namedview
     pagecolor="#444444"
     bordercolor="#666666"
     borderopacity="1"
     objecttolerance="10"
     gridtolerance="10"
     guidetolerance="10"
     inkscape:pageopacity="0"
     inkscape:pageshadow="2"
     inkscape:window-width="1366"
     inkscape:window-height="668"
     id="namedview6"
     showgrid="false"
     showguides="true"
     inkscape:guide-bbox="true"
     inkscape:zoom="1.0195313"
     inkscape:cx="327.26724"
     inkscape:cy="185.69853"
     inkscape:window-x="-2"
     inkscape:window-y="23"
     inkscape:window-maximized="1"
     inkscape:current-layer="svg2"
     inkscape:showpageshadow="false"
     borderlayer="true">
    <sodipodi:guide
       id="guide2989"
       position="522.57628,433.35594"
       orientation="0,1" />
    <sodipodi:guide
       id="guide2991"
       position="267.59322,40.983051"
       orientation="0,1" />
    <sodipodi:guide
       id="guide2993"
       position="46.980654,274.88477"
       orientation="1,0" />
    <sodipodi:guide
       id="guide2995"
       position="473,257.5"
       orientation="1,0" />
    <sodipodi:guide
       orientation="0,1"
       position="366.64407,622.64407"
       id="guide3124" />
  </sodipodi:namedview>
  <metadata
     id="metadata10">
    <rdf:RDF>
      <cc:Work
         rdf:about="">
        <dc:format>image/svg+xml</dc:format>
        <dc:type
           rdf:resource="http://purl.org/dc/dcmitype/StillImage" />
        <dc:title></dc:title>
      </cc:Work>
    </rdf:RDF>
  </metadata>
  <defs
     id="defs8">
    <linearGradient
       id="linearGradient4996-6">
      <stop
         id="stop4998-5"
         offset="0"
         style="stop-color:#000000;stop-opacity:1;" />
      <stop
         id="stop5000-7"
         offset="1"
         style="stop-color:#ffffff;stop-opacity:1;" />
    </linearGradient>
    <linearGradient
       inkscape:collect="always"
       xlink:href="#linearGradient4996-6"
       id="linearGradient3091"
       gradientUnits="userSpaceOnUse"
       gradientTransform="matrix(1,0,0,1.4619252,210.00099,-120.86596)"
       x1="257"
       y1="256"
       x2="362"
       y2="256" />
    <linearGradient
       inkscape:collect="always"
       xlink:href="#linearGradient4996-6"
       id="linearGradient3093"
       gradientUnits="userSpaceOnUse"
       gradientTransform="matrix(1,0,0,1.4619252,-209.999,-121.25286)"
       x1="257"
       y1="256"
       x2="362"
       y2="256" />
    <linearGradient
       inkscape:collect="always"
       xlink:href="#linearGradient4996-6"
       id="linearGradient3095"
       gradientUnits="userSpaceOnUse"
       gradientTransform="matrix(1,0,0,1.4619252,-104.999,-121.25286)"
       x1="257"
       y1="256"
       x2="362"
       y2="256" />
    <linearGradient
       inkscape:collect="always"
       xlink:href="#linearGradient4996-6"
       id="linearGradient3097"
       gradientUnits="userSpaceOnUse"
       gradientTransform="matrix(1,0,0,1.4619252,9.9807e-4,-121.25286)"
       x1="257"
       y1="256"
       x2="362"
       y2="256" />
    <linearGradient
       inkscape:collect="always"
       xlink:href="#linearGradient4996-6"
       id="linearGradient3099"
       gradientUnits="userSpaceOnUse"
       gradientTransform="matrix(2,0,0,2.9238504,-204.498,-494.73192)"
       x1="257"
       y1="256"
       x2="362"
       y2="256" />
    <linearGradient
       inkscape:collect="always"
       xlink:href="#linearGradient4996-6"
       id="linearGradient3101"
       gradientUnits="userSpaceOnUse"
       gradientTransform="matrix(1,0,0,1.4619252,-315.03517,-121.25286)"
       x1="257"
       y1="256"
       x2="362"
       y2="256" />
  </defs>
  <g
     id="g4147"
     transform="matrix(0.22826086,0,0,0.22826086,5.5652208,5.5652198)">
    <rect
       ry="72.644058"
       rx="72.644058"
       y="9"
       x="5.9999919"
       height="500"
       width="500"
       id="rect5028-2"
       style="opacity:0.2;fill:#000000;fill-opacity:1;stroke:none" />
    <rect
       style="fill:#f3f3f3;fill-opacity:1;stroke:none"
       id="rect4979-4"
       width="500"
       height="500"
       x="5.9999919"
       y="3"
       rx="72.644058"
       ry="72.644058" />
    <rect
       ry="63.200329"
       rx="63.200329"
       y="38.500011"
       x="38.500008"
       height="434.99997"
       width="434.99997"
       id="rect4981-8"
       style="fill:#cd1d31;fill-opacity:1;stroke:none" />
    <g
       transform="translate(-0.50955,-1.8241519)"
       id="g3034">
      <path
         sodipodi:nodetypes="ccssssccccccccssssccccccsscccccsccscccccssss"
         inkscape:connector-curvature="0"
         id="path3032"
         d="m 196.00522,115.91815 0,10.58257 -29.50846,0 c -22.1218,0 -39.90698,17.81591 -39.90698,39.93769 l 0,194.96477 c 0,22.12177 17.78518,39.93769 39.90698,39.93769 l 29.32442,0 0,0.95094 0.0608,0 0.24538,13.55788 c 0,11.34737 12.52943,21.41407 26.6382,14.94118 5.58465,-2.50301 13.43077,-6.11391 24.71033,-11.32154 l 36.93165,-18.06711 0,-0.061 77.08413,0 c 22.12183,0 39.93744,-17.81589 39.93765,-39.93769 l 0,-194.96475 c 0,-22.12179 -17.81582,-39.93771 -39.93765,-39.93771 l -77.94309,0 -25.15274,-10.98134 C 244.65166,109.33181 228.62473,102.11299 222.62603,99.408141 209.87202,93.2133 196.01077,106.55112 196.00512,115.91808 Z m 56.74725,36.25685 c 7.33609,2.54678 14.82334,4.86211 22.11576,7.45374 21.42022,0.0211 43.69081,-2e-5 63.12751,0 16.78883,0 30.30609,13.5171 30.30609,30.30603 l 0,147.97204 c 0,16.78888 -13.51726,30.30602 -30.30609,30.30602 -20.28592,0.0864 -41.94325,-0.0796 -61.68585,-0.061 -7.78729,3.38849 -15.85492,6.90753 -23.54464,10.25183 -23.88645,6.40034 -22.40323,-10.19422 -22.40323,-21.80356 -0.10668,-19.89253 -0.15525,-49.83882 -0.15525,-91.20667 0,-40.59815 0.0345,-76.74136 0.0879,-98.97699 0,-14.22246 9.05871,-17.83173 22.45735,-14.24158 z m -62.7286,7.45381 5.79731,0 c 0.28643,0 0.18404,-9.8e-4 0.18404,1.7791 l 0,103.31044 0,103.31041 c 0,0.23511 -0.0502,0.18407 -0.18404,0.18407 l -5.79731,0 c -16.78903,0 -30.30605,-13.51714 -30.30605,-30.30602 l 0,-147.97197 c 0,-16.78895 13.51694,-30.30603 30.30605,-30.30603 z"
         style="opacity:0.2;fill:#000000;fill-opacity:1;stroke:none" />
      <path
         style="fill:#dcdbdb;fill-opacity:1;stroke:none"
         d="m 181.00522,100.91815 0,10.58257 -29.50846,0 c -22.1218,0 -39.90698,17.81591 -39.90698,39.93769 l 0,194.96477 c 0,22.12177 17.78518,39.93769 39.90698,39.93769 l 29.32442,0 0,0.95094 0.0608,0 0.24538,13.55788 c 0,11.34737 12.52943,21.41407 26.6382,14.94118 5.58465,-2.50301 13.43077,-6.11391 24.71033,-11.32154 l 36.93165,-18.06711 0,-0.061 77.08413,0 c 22.12183,0 39.93744,-17.81589 39.93765,-39.93769 l 0,-194.96475 c 0,-22.12179 -17.81582,-39.93771 -39.93765,-39.93771 l -77.94309,0 -25.15274,-10.98134 C 229.65166,94.331814 213.62473,87.112993 207.62603,84.408141 194.87202,78.2133 181.01077,91.551116 181.00512,100.91808 Z m 56.74725,36.25685 c 7.33609,2.54678 14.82334,4.86211 22.11576,7.45374 21.42022,0.0211 43.69081,-2e-5 63.12751,0 16.78883,0 30.30609,13.5171 30.30609,30.30603 l 0,147.97204 c 0,16.78888 -13.51726,30.30602 -30.30609,30.30602 -20.28592,0.0864 -41.94325,-0.0796 -61.68585,-0.061 -7.78729,3.38849 -15.85492,6.90753 -23.54464,10.25183 -23.88645,6.40034 -22.40323,-10.19422 -22.40323,-21.80356 -0.10668,-19.89253 -0.15525,-49.83882 -0.15525,-91.20667 0,-40.59815 0.0345,-76.74136 0.0879,-98.97699 0,-14.22246 9.05871,-17.83173 22.45735,-14.24158 z m -62.7286,7.45381 5.79731,0 c 0.28643,0 0.18404,-9.8e-4 0.18404,1.7791 l 0,103.31044 0,103.31041 c 0,0.23511 -0.0502,0.18407 -0.18404,0.18407 l -5.79731,0 c -16.78903,0 -30.30605,-13.51714 -30.30605,-30.30602 l 0,-147.97197 c 0,-16.78895 13.51694,-30.30603 30.30605,-30.30603 z"
         id="rect4915"
         inkscape:connector-curvature="0"
         sodipodi:nodetypes="ccssssccccccccssssccccccsscccccsccscccccssss" />
    </g>
    <path
       inkscape:connector-curvature="0"
       id="rect3119"
       d="M 101.6875,38.5 C 66.674518,38.5 38.5,66.674518 38.5,101.6875 l 0,15 C 38.5,81.674518 66.674518,53.5 101.6875,53.5 l 308.625,0 c 35.01298,0 63.1875,28.174518 63.1875,63.1875 l 0,-15 C 473.5,66.674518 445.32548,38.5 410.3125,38.5 l -308.625,0 z"
       style="opacity:0.2;fill:#000000;fill-opacity:1;stroke:none" />
    <path
       sodipodi:nodetypes="ccssc"
       inkscape:connector-curvature="0"
       id="rect3076"
       d="m 467,13.2 0,481.58125 c 23.2111,-12.09908 39,-36.3533 39,-64.4375 l 0,-354.6875 C 506,47.572054 490.2111,25.299078 467,13.2 Z"
       style="opacity:0.05;fill:url(#linearGradient3091);fill-opacity:1;stroke:none" />
    <path
       sodipodi:nodetypes="sccsccs"
       inkscape:connector-curvature="0"
       id="rect3060"
       d="M 78.65625,3 C 67.297276,3 56.556884,5.6087684 47,10.21875 l 0,485.5625 C 56.556884,500.39123 67.297276,503 78.65625,503 L 152,503 152,3 Z"
       style="opacity:0.05;fill:url(#linearGradient3093);fill-opacity:1;stroke:none" />
    <path
       sodipodi:nodetypes="ccccc"
       inkscape:connector-curvature="0"
       id="rect3064"
       d="m 152,3 0,500 105,0 0,-500 z"
       style="opacity:0.05;fill:url(#linearGradient3095);fill-opacity:1;stroke:none" />
    <path
       sodipodi:nodetypes="ccccc"
       inkscape:connector-curvature="0"
       id="rect3068"
       d="m 257,3 0,500 105,0 0,-500 z"
       style="opacity:0.05;fill:url(#linearGradient3097);fill-opacity:1;stroke:none" />
    <path
       id="rect3072"
       d="m 309.5,3 0,500 123.85547,0 C 473.60028,503 506,470.60028 506,430.35547 L 506,75.644531 C 506,35.399723 473.60028,3 433.35547,3 L 309.5,3 Z"
       style="opacity:0.05;fill:url(#linearGradient3099);fill-opacity:1;stroke:none"
       inkscape:connector-curvature="0" />
    <path
       sodipodi:nodetypes="csscc"
       inkscape:connector-curvature="0"
       id="rect3099"
       d="M 46.96875,10.21875 C 22.679281,21.94693 6,46.780396 6,75.65625 l 0,354.6875 c 0,28.87585 16.679281,53.70932 40.96875,65.4375 z"
       style="opacity:0.05;fill:url(#linearGradient3101);fill-opacity:1;stroke:none" />
  </g>
</svg>
