<?xml version="1.0" encoding="UTF-8" standalone="no"?>
<!-- Created with Inkscape (http://www.inkscape.org/) -->

<svg
   xmlns:dc="http://purl.org/dc/elements/1.1/"
   xmlns:cc="http://creativecommons.org/ns#"
   xmlns:rdf="http://www.w3.org/1999/02/22-rdf-syntax-ns#"
   xmlns:svg="http://www.w3.org/2000/svg"
   xmlns="http://www.w3.org/2000/svg"
   xmlns:sodipodi="http://sodipodi.sourceforge.net/DTD/sodipodi-0.dtd"
   xmlns:inkscape="http://www.inkscape.org/namespaces/inkscape"
   width="205"
   height="120"
   id="svg4219"
   version="1.1"
   inkscape:version="0.48+devel r"
   viewBox="0 0 204.99997 120"
   sodipodi:docname="logo-nitrux-suite.svg"
   inkscape:export-filename="/home/uri/Web/nitruxSA/images/logo.png"
   inkscape:export-xdpi="168.34319"
   inkscape:export-ydpi="168.34319">
  <defs
     id="defs4221" />
  <sodipodi:namedview
     id="base"
     pagecolor="#ffffff"
     bordercolor="#666666"
     borderopacity="1.0"
     inkscape:pageopacity="0.0"
     inkscape:pageshadow="2"
     inkscape:zoom="2.2413521"
     inkscape:cx="36.858331"
     inkscape:cy="74.358954"
     inkscape:document-units="px"
     inkscape:current-layer="layer1"
     showgrid="false"
     fit-margin-top="0"
     fit-margin-left="0"
     fit-margin-right="0"
     fit-margin-bottom="0"
     inkscape:showpageshadow="false"
     borderlayer="true"
     inkscape:window-width="1366"
     inkscape:window-height="666"
     inkscape:window-x="-2"
     inkscape:window-y="25"
     inkscape:window-maximized="1" />
  <metadata
     id="metadata4224">
    <rdf:RDF>
      <cc:Work
         rdf:about="">
        <dc:format>image/svg+xml</dc:format>
        <dc:type
           rdf:resource="http://purl.org/dc/dcmitype/StillImage" />
        <dc:title></dc:title>
      </cc:Work>
    </rdf:RDF>
  </metadata>
  <g
     inkscape:label="Capa 1"
     inkscape:groupmode="layer"
     id="layer1"
     transform="translate(-134.38051,-741.72846)">
    <path
       style="display:inline;fill:#ffffff;fill-opacity:1;stroke:none"
       d="m 271.9857,828.17517 c -0.42201,0 -0.96483,0.12106 -0.96483,0.33203 0,0.21109 0.30077,0.27035 0.30077,1.14453 l 0,5.09375 c -1.62775,-0.0301 -2.71289,-0.0898 -2.71289,-0.0898 -0.87416,0 -0.33178,2.01953 0.63281,2.01953 0,0 0.75376,0.0605 2.08008,0.0605 l 0,7.26368 c -0.0561,0.12057 -0.11134,0.24523 -0.14648,0.42382 -0.2713,1.32631 -0.81379,3.25391 -2.01954,3.25391 -0.78373,0 -0.7832,-1.11345 -0.7832,-1.38477 l 0,-7.65625 c 0,-0.72344 -0.63221,-1.32812 -1.62695,-1.32812 -0.422,0 -0.78516,0.21218 -0.78516,0.51367 0,0.21098 0.1211,0.39215 0.1211,0.96485 l 0,5.30468 c -0.0378,0.0993 -0.0732,0.2038 -0.0977,0.33203 -0.27129,1.32631 -0.81379,3.25391 -2.01953,3.25391 -0.78374,0 -0.78516,-1.11345 -0.78516,-1.38477 l 0,-7.65625 c 0,-0.72344 -0.63222,-1.32812 -1.62695,-1.32812 -0.42201,0 -0.96485,0.12105 -0.96485,0.33203 0,0.21108 0.30079,0.2723 0.30079,1.14649 l 0,4.85156 c -0.36172,2.11008 -1.26497,4.07031 -2.47071,4.07031 -0.87416,0 -1.38672,-0.87612 -1.38672,-2.50391 0,-2.53204 0.33046,-3.85527 0.87305,-6.08593 0.12058,-0.45212 0.99462,-1.66016 -0.48242,-1.66016 -1.59761,0 -1.3847,0.60276 -1.5957,1.11523 0,0 -0.98804,3.28808 -1.07227,6.37305 -0.39723,0.75075 -1.07243,1.4013 -2.22461,1.64649 0.0904,-0.33155 0.14844,-0.72422 0.14844,-1.08594 0,-2.86369 -1.83716,-3.9493 -3.25391,-6.45117 0.0302,-0.18091 0.72266,-1.17476 0.72266,-2.04883 0,-0.81395 -0.3625,-1.35547 -1.08594,-1.35547 -0.81388,0 -2.56055,1.35409 -2.56055,2.37891 0,0.51246 0.18099,0.96573 0.48243,1.41796 -0.54259,1.59751 -1.17708,3.31628 -1.47852,4.64258 -0.24114,1.02493 1.41843,1.86764 1.75,0.60157 0.39186,-1.44688 0.69347,-2.47082 1.17578,-3.64649 1.05502,1.08527 2.16992,2.35284 2.16992,4.25195 0,0.7535 -0.33248,1.44416 -0.66406,1.83594 -1.50718,0 -4.24868,-1.74609 -4.85156,-1.74609 -0.66315,0 -1.47702,1.59697 0,3.01367 0.60288,0.5727 2.04842,1.26562 3.31445,1.26562 1.23589,0 2.23163,-0.453 2.95508,-1.08593 1.65345,-0.10668 2.79344,-0.57647 3.68555,-1.20313 0.46423,1.44129 1.46237,2.31836 2.89648,2.31836 1.32631,0 2.29022,-0.90385 3.01367,-2.16992 0.211,1.20573 1.1162,2.14062 2.47266,2.14062 1.28375,0 2.21827,-0.66678 2.90234,-1.58007 0.37007,0.92482 1.15814,1.58007 2.28907,1.58007 1.32846,0 2.28283,-0.71725 2.97265,-1.67968 0.42444,1.16879 1.33783,1.67968 2.50977,1.67968 1.59708,0 2.66445,-1.03125 3.37109,-2.2871 1.00821,1.4755 2.61103,2.2871 4.27344,2.2871 4.4311,0 5.6386,-3.64756 5.84961,-5.48632 0.12057,-1.0551 -1.56857,-1.65726 -1.83985,-0.30078 -0.36173,1.83876 -1.32653,3.79687 -3.67773,3.79687 -1.56747,0 -2.38073,-0.84227 -2.80273,-1.86719 2.92392,-0.87408 4.46093,-3.52921 4.46093,-5.75976 0,-1.8087 -1.02485,-3.04297 -2.71289,-3.04297 -2.32105,0 -4.61133,2.86313 -4.61133,6.6914 0,0.45811 0.0391,0.89211 0.11133,1.30274 -0.30431,1.24761 -0.83657,2.67578 -1.8789,2.67578 -0.63301,0 -1.02539,-0.42018 -1.02539,-1.38477 l 0,-9.55664 c 1.59761,0 3.37563,-4.3e-4 5.7871,-0.0605 0.78375,-0.0301 1.05692,-2.92388 0.2129,-2.01953 -2.04977,0.0902 -4.16124,0.12109 -6,0.12109 l 0,-5.27539 c 0,-0.72344 -0.63223,-1.32617 -1.62696,-1.32617 z m -4.30664,2.47265 c -0.99474,0 -1.80859,0.78279 -1.80859,1.83789 0,0.99475 0.81385,1.83789 1.80859,1.83789 1.05503,0 1.83985,-0.84314 1.83985,-1.83789 0,-1.0551 -0.78482,-1.83789 -1.83985,-1.83789 z m 13.06641,8.37891 c 0.39186,0 0.63476,0.39159 0.63476,1.05469 0,1.8087 -0.96546,3.37509 -2.47265,4.06836 0,-0.18091 -0.0312,-0.3601 -0.0312,-0.54102 -0.0603,-1.26596 0.39211,-4.58203 1.86914,-4.58203 z"
       id="path4142"
       inkscape:connector-curvature="0" />
    <path
       style="display:inline;fill:#ffffff;fill-opacity:1;stroke:none"
       d="m 189.98254,828.20434 c -0.42202,0 -0.96485,0.11906 -0.96485,0.33007 0,0.211 0.30078,0.27036 0.30078,1.14453 l 0,5.09375 c -1.62774,-0.0302 -2.71288,-0.0898 -2.71288,-0.0898 -0.87416,0 -0.3318,2.01953 0.63281,2.01953 0,0 0.75377,0.0606 2.08008,0.0606 l 0,9.58594 c 0,2.38129 1.14568,3.34766 2.77344,3.34766 1.16366,0 2.03555,-0.56326 2.70312,-1.34571 l 0,0.0176 c 0,1.11533 0.84441,1.32813 1.44727,1.32813 0.87416,0 0.8418,-0.72419 0.8418,-1.29688 l 0,-4.40234 c 0.21099,-2.38136 2.08091,-4.97266 2.95507,-4.97266 0.57273,0 0.63282,0.78235 0.63282,1.7168 l 0,6.11914 c 0,1.53739 0.93365,2.83594 2.53125,2.83594 1.58691,0 2.6408,-1.02069 3.3457,-2.26563 1.00919,1.4602 2.60252,2.26563 4.25586,2.26563 1.84042,0 3.11842,-0.63446 4.00586,-1.50195 l 0,0.17382 c 0,1.11533 0.8444,1.32813 1.44726,1.32813 0.87416,0 0.84571,-0.72419 0.84571,-1.29688 l 0,-4.40234 c 0.18086,-2.38136 1.89706,-4.97266 2.71093,-4.97266 0.51245,0 0.57422,0.78235 0.57422,1.7168 l 0,7.62695 c 0,1.11533 0.84245,1.32813 1.44532,1.32813 0.87417,0 0.84375,-0.72419 0.84375,-1.29688 l 0,-4.40234 c 0.18086,-2.38136 1.90097,-4.97266 2.71484,-4.97266 0.51244,0 0.57227,0.78235 0.57227,1.7168 l 0,6.11914 c 0,1.53739 0.93361,2.83594 2.53124,2.83594 1.59488,0 2.65058,-1.03168 3.35547,-2.28516 1.00843,1.47234 2.61096,2.28516 4.27149,2.28516 4.4311,0 5.63469,-3.64756 5.8457,-5.48633 0.12057,-1.05499 -1.5666,-1.65924 -1.83789,-0.30273 -0.36172,1.83866 -1.32654,3.79883 -3.67773,3.79883 -1.56747,0 -2.38072,-0.84433 -2.80274,-1.86915 2.92393,-0.87418 4.46094,-3.52719 4.46094,-5.75781 0,-1.80862 -1.02485,-3.04492 -2.71289,-3.04492 -2.32106,0 -4.61328,2.86513 -4.61328,6.69336 0,0.47578 0.0414,0.92509 0.11914,1.34961 -0.30665,1.23599 -0.83659,2.62891 -1.86524,2.62891 -0.78373,0 -0.78515,-1.1154 -0.78515,-1.38672 l 0,-6.24024 c 0,-1.38661 -0.45083,-3.04492 -2.41016,-3.04492 -1.35647,0 -2.41242,1.23637 -3.16601,2.83398 -0.0603,-1.35645 -0.57225,-2.83398 -2.38086,-2.83398 -1.35647,0 -2.40962,1.26483 -3.19336,2.89258 l 0,-1.26367 c 0,-0.72344 -0.63613,-1.32813 -1.63086,-1.32813 -0.42202,0 -0.78125,0.21028 -0.78125,0.51172 0,0.211 0.11914,0.39211 0.11914,0.96484 l 0,5.11329 c -0.36429,1.83377 -1.32979,3.78125 -3.67383,3.78125 -1.56746,0 -2.38268,-0.84433 -2.80469,-1.86915 2.92393,-0.87418 4.46289,-3.52719 4.46289,-5.75781 0,-1.80862 -1.02485,-3.04492 -2.71289,-3.04492 -2.32105,0 -4.61133,2.86513 -4.61133,6.69336 0,0.49452 0.049,0.95935 0.13282,1.39844 -0.30887,1.22382 -0.8423,2.58008 -1.85743,2.58008 -0.78373,0 -0.7832,-1.1154 -0.7832,-1.38672 l 0,-6.24024 c 0,-1.38661 -0.48233,-3.04492 -2.50195,-3.04492 -1.47703,0 -2.56308,1.29635 -3.37695,2.98438 l 0,-3.3125 c 0.12656,-0.003 0.18232,-8.5e-4 0.3125,-0.004 0.78374,-0.0302 1.0569,-2.92384 0.21289,-2.01954 -0.17455,0.008 -0.35018,0.0108 -0.52539,0.0176 l 0,-4.56836 c 0,-0.72345 -0.63222,-1.32617 -1.62696,-1.32617 -0.42201,0 -0.96484,0.11908 -0.96484,0.33008 0,0.21101 0.30273,0.27232 0.30273,1.14648 l 0,4.48633 c -1.10516,0.0226 -2.18725,0.0371 -3.18554,0.0371 l 0,-5.27734 c 0,-0.72344 -0.63223,-1.32422 -1.62696,-1.32422 z m 4.8125,8.52539 0,7.28125 c -0.0575,0.12197 -0.10713,0.26358 -0.14063,0.43946 -0.27128,1.3263 -0.81379,3.25586 -2.01953,3.25586 -0.63302,0 -1.02539,-0.42213 -1.02539,-1.38672 l 0,-9.55664 c 0.87926,0 2.12135,-0.0232 3.18555,-0.0332 z m 15.01562,2.32421 c 0.39187,0 0.63476,0.3935 0.63476,1.05665 0,1.80862 -0.96548,3.37509 -2.47264,4.06835 0,-0.18079 -0.0293,-0.36217 -0.0293,-0.54296 -0.0603,-1.26605 0.39017,-4.58204 1.86719,-4.58204 z m 25.31641,0 c 0.39186,0 0.63282,0.3935 0.63282,1.05665 0,1.80862 -0.96549,3.37509 -2.47266,4.06835 0,-0.18079 -0.0293,-0.36217 -0.0293,-0.54296 -0.0603,-1.26605 0.3921,-4.58204 1.86914,-4.58204 z"
       id="path4138"
       inkscape:connector-curvature="0" />
    <path
       style="display:inline;fill:#ffffff;fill-opacity:1;stroke:none"
       d="m 175.04755,753.76067 0.003,0.006 -0.83858,0 0,52.79147 -39.83146,-52.79147 0,2.07361 0,7.56559 0,3.36047 0,2.08579 0,52.3859 2.84815,0 0,-42.24659 c -0.0192,-1.80355 2.53796,-2.9942 3.8697,-1.22892 l 32.79646,43.47551 1.57656,0 0,-13.01491 0,-52.64509 5.02849,6.66297 0,58.99703 1.25636,0 0,-0.0182 7.12344,0 0,0.0182 1.2594,0 0,-58.25906 10.08746,0 c 1.10258,0.0286 2.14862,0.91246 2.14679,2.06444 l 0,56.1885 1.25635,0 7.12648,0 1.25635,0 0,-56.1885 c 0,-1.15215 1.04708,-2.03562 2.14987,-2.06444 l 10.08745,0 0,3.78737 0,2.08579 0,0.70442 0,14.63109 0,1.15877 0,0.50925 0,35.38236 1.25941,0 0,-32.19572 c 0.0259,-2.17737 1.61717,-3.60705 3.74468,-3.69589 l 7.43753,0 3.51292,4.65645 0,7.13869 c 0,13.16164 10.45375,23.76892 23.54148,24.06598 l 0.0182,0.0305 0.53974,0 1.0368,0 8.85553,0 0.95445,0 -1.43322,-1.89979 c 8.64378,-3.65336 14.68293,-12.19223 14.68291,-22.19668 l 0,-12.64898 0,-6.62942 0,-9.08117 14.36581,19.0375 0.78675,-1.0429 4.1289,-5.4676 0.78371,-1.0429 -19.98586,-26.48721 0,-0.0156 -9.83743,0 -1.57349,0 0,0.003 10.07221,13.34728 0,10.4107 0,6.96791 0,12.64899 c 0,9.59728 -5.86136,17.76324 -14.21331,21.15377 l -7.58695,-10.06002 -15.49712,-20.54085 0,-2.34804 9.51112,0 c 8.74822,0 15.79291,-7.04171 15.79291,-15.78987 0,-8.74821 -7.04469,-15.78987 -15.79291,-15.78987 l -17.7354,0 -1.41493,0 -0.16465,0 -11.73111,0 -0.006,-0.006 -1.57656,0 -14.71343,0 -9.63918,0 -27.32582,0 z m 158.44452,0.006 -50.91303,67.47136 1.57349,0 20.45853,-27.11236 c 0.94117,-0.88995 2.57556,-0.61069 3.25984,0.46047 l 20.10478,26.64883 1.57655,0 8.88293,0 0.94532,0 -0.94532,-1.25331 -24.90762,-33.00992 -0.5794,-0.76845 c -0.73951,-0.97092 -0.60372,-2.2917 -0.0366,-3.0799 l 0.33849,-0.44217 c 0.0528,-0.0671 0.0982,-0.13067 0.15254,-0.20126 l 21.66608,-28.71024 -1.57044,0 -0.006,-0.003 z m -83.64849,49.0163 12.92343,17.13161 c -4.89328,-0.32321 -9.36153,-2.15989 -12.92342,-5.06812 l 0,-12.06349 z"
       id="path4614"
       inkscape:connector-curvature="0" />
  </g>
</svg>
