<?xml version="1.0" encoding="UTF-8" standalone="no"?>
<!-- Created with Inkscape (http://www.inkscape.org/) -->

<svg
   xmlns:dc="http://purl.org/dc/elements/1.1/"
   xmlns:cc="http://creativecommons.org/ns#"
   xmlns:rdf="http://www.w3.org/1999/02/22-rdf-syntax-ns#"
   xmlns:svg="http://www.w3.org/2000/svg"
   xmlns="http://www.w3.org/2000/svg"
   xmlns:sodipodi="http://sodipodi.sourceforge.net/DTD/sodipodi-0.dtd"
   xmlns:inkscape="http://www.inkscape.org/namespaces/inkscape"
   width="205.48712"
   height="119.22218"
   id="svg4219"
   version="1.1"
   inkscape:version="0.48+devel r"
   viewBox="0 0 205.48709 119.22218"
   sodipodi:docname="logo-nitrux-icons.svg"
   inkscape:export-filename="/home/uri/Web/nitruxSA/images/logo.png"
   inkscape:export-xdpi="168.34319"
   inkscape:export-ydpi="168.34319">
  <defs
     id="defs4221" />
  <sodipodi:namedview
     id="base"
     pagecolor="#ffffff"
     bordercolor="#666666"
     borderopacity="1.0"
     inkscape:pageopacity="0.0"
     inkscape:pageshadow="2"
     inkscape:zoom="1.0532866"
     inkscape:cx="68.939535"
     inkscape:cy="35.80791"
     inkscape:document-units="px"
     inkscape:current-layer="layer1"
     showgrid="false"
     fit-margin-top="0"
     fit-margin-left="0"
     fit-margin-right="0"
     fit-margin-bottom="0"
     inkscape:showpageshadow="false"
     borderlayer="true"
     inkscape:window-width="1366"
     inkscape:window-height="666"
     inkscape:window-x="-2"
     inkscape:window-y="25"
     inkscape:window-maximized="1" />
  <metadata
     id="metadata4224">
    <rdf:RDF>
      <cc:Work
         rdf:about="">
        <dc:format>image/svg+xml</dc:format>
        <dc:type
           rdf:resource="http://purl.org/dc/dcmitype/StillImage" />
        <dc:title></dc:title>
      </cc:Work>
    </rdf:RDF>
  </metadata>
  <g
     inkscape:label="Capa 1"
     inkscape:groupmode="layer"
     id="layer1"
     transform="translate(-134.38051,-742.50628)">
    <path
       style="font-style:normal;font-variant:normal;font-weight:normal;font-stretch:normal;font-size:40px;line-height:125%;font-family:Allura;-inkscape-font-specification:Allura;letter-spacing:25px;word-spacing:0px;fill:#ffffff;fill-opacity:1;stroke:none"
       d="m 200.88083,838.50436 c -4.76217,-0.26173 -9.46437,10.30914 -10.08233,11.61773 -0.15,0.30008 -0.33734,0.63789 -0.56247,0.93807 l -0.18863,-0.0751 c -0.75045,-0.41275 -1.20028,0.59942 -0.48734,0.97465 -0.8255,1.12567 -1.91291,2.36391 -3.00107,3.75224 -0.33771,0.48779 -0.33864,1.35082 0.0367,0.93807 1.0131,-1.08816 2.55269,-2.88811 3.07801,-3.56352 -1.08815,2.77668 -2.77775,7.72954 -3.00289,8.29237 -0.37523,0.71295 1.61447,-0.18798 1.98972,-0.37557 0.71292,-0.41277 3.86334,-5.36648 6.00212,-7.31766 2.73915,-2.36391 2.92714,-1.50023 2.25172,-0.26199 -0.75045,1.38833 -1.80028,3.33968 -1.98789,4.91563 -0.11267,0.71291 -0.11353,1.35071 0.0367,1.80099 0.75045,2.25135 3.5647,1.35127 4.76544,0.45073 1.83861,-1.3508 4.12762,-3.82776 4.84054,-5.14104 0.18756,-0.33771 -0.22556,-0.56313 -0.45071,-0.30047 -1.57595,2.17631 -4.38918,4.54077 -5.5899,5.21619 -1.23824,0.63789 -1.98854,-0.22609 -1.72588,-1.83954 0.0751,-0.8255 0.48713,-2.25032 1.20007,-3.71369 0.56283,-1.05063 1.8018,-2.73943 1.68923,-3.97767 -0.0751,-1.1632 -1.46374,-1.08788 -3.18977,0.22543 -2.06374,1.61346 -5.32763,5.13916 -6.90355,7.09033 0.37521,-1.1632 1.01339,-3.22618 2.17659,-5.81525 3.52711,-2.8517 8.66712,-6.60365 10.65581,-10.0933 0.86301,-1.53841 1.05047,-3.26438 -1.08831,-3.67712 -0.15366,-0.0317 -0.30807,-0.0521 -0.46169,-0.0607 z m -38.9314,5.85562 c -0.14958,-0.009 -0.29903,3.8e-4 -0.43973,0.0194 -0.52532,0.0751 -0.60095,0.45138 -1.53899,2.06486 l -1.87615,3.48846 c -0.0751,0 -0.11093,1.9e-4 -0.14849,0.0751 -0.71292,0.0376 -1.68953,0.0384 -1.9897,0.67616 -0.22515,0.48779 0.15064,0.82445 0.52582,0.82445 0.18755,0 0.48772,-1.9e-4 0.86294,-0.0751 -0.48779,0.90054 -0.8263,1.50239 -0.8263,1.57741 -0.56283,0.86303 -1.57601,2.25061 -2.8893,3.86408 -0.3377,0.45026 0.0389,0.93853 0.41407,0.52578 0.78796,-0.90055 1.12435,-1.46337 1.46205,-1.87612 -0.78798,1.72603 -1.42512,3.75215 -1.12495,4.61518 0.75045,2.25135 3.52624,1.35127 4.72698,0.45073 1.87612,-1.35082 4.16608,-3.82775 4.879,-5.14104 0.18755,-0.33773 -0.26309,-0.56314 -0.4507,-0.30048 -1.57594,2.17632 -4.38917,4.54079 -5.58991,5.2162 -1.23824,0.63787 -1.99037,-0.22608 -1.72771,-1.83954 0.11266,-1.20073 1.12605,-3.1883 2.25172,-5.43963 0.11245,-0.33771 0.56385,-0.97557 1.05166,-1.87613 1.76355,-0.18755 3.67674,-0.45177 4.2396,-0.63938 1.57592,-0.37524 0.78738,-0.6376 0.33712,-0.6376 -1.42586,-0.0375 -2.36372,0.15129 -3.52692,0.26378 l -0.48733,0.0365 1.80098,-3.15132 c 0.22514,-0.45027 0.60024,-0.41257 0.78784,-0.78779 0.22515,-0.3377 0.67483,-1.0888 0.33712,-1.53908 -0.16877,-0.25327 -0.6123,-0.37992 -1.06081,-0.39567 z m 74.06844,5.42678 c -2.9619,-0.22353 -8.14026,4.24586 -9.19559,6.6379 -2.06373,4.72783 2.73915,6.26721 6.56643,4.7288 2.62659,-1.08818 4.99044,-3.1519 6.49134,-5.62839 0.15,-0.18755 0.15108,-0.37568 -0.0367,-0.45075 -0.0751,-0.0751 -0.26214,-0.076 -0.41223,0.1118 -1.35082,2.06374 -3.75314,4.09042 -6.5298,5.21611 -2.43895,0.97555 -5.3279,0.93869 -4.38986,-2.2132 0.82552,-2.73913 4.05216,-5.85388 6.26598,-6.86697 0.52532,-0.26266 1.87709,-0.82521 1.9146,0.22539 0.0751,0.82549 -1.05136,1.9508 -1.68924,2.43858 -1.38833,1.1257 -3.4896,2.32604 -4.69031,2.43863 -0.56285,0.0375 -0.30083,0.56327 0.26197,0.52576 1.68853,-0.15 5.25412,-1.57661 6.60494,-3.56529 0.71291,-1.05065 0.93746,-2.96315 -0.60095,-3.48845 -0.1759,-0.0581 -0.36318,-0.095 -0.56063,-0.10986 z m 80.76131,0 c -2.96193,-0.22353 -8.14028,4.24586 -9.19559,6.6379 -2.06374,4.72783 2.73912,6.26721 6.56643,4.7288 2.62659,-1.08818 4.99043,-3.1519 6.49132,-5.62839 0.15,-0.18755 0.15108,-0.37568 -0.0367,-0.45075 -0.0751,-0.0751 -0.26212,-0.076 -0.41223,0.1118 -1.35082,2.06374 -3.75315,4.09042 -6.5298,5.21611 -2.43895,0.97555 -5.32789,0.93869 -4.38984,-2.2132 0.8255,-2.73913 4.05216,-5.85388 6.26596,-6.86697 0.5253,-0.26266 1.87706,-0.82521 1.91459,0.22539 0.0751,0.82549 -1.05133,1.9508 -1.68922,2.43858 -1.38833,1.1257 -3.48958,2.32604 -4.69031,2.43863 -0.56286,0.0375 -0.30087,0.56327 0.26199,0.52576 1.68852,-0.15 5.25411,-1.57661 6.6049,-3.56529 0.71295,-1.05065 0.93748,-2.96315 -0.60094,-3.48845 -0.17591,-0.0581 -0.36318,-0.095 -0.56062,-0.10986 z m -42.98417,0.21988 c -0.57757,0 -1.39206,0.34999 -2.30669,1.05354 -2.06374,1.61346 -5.3276,5.13918 -6.90353,7.09035 0.45029,-1.20074 1.65076,-4.5393 2.58885,-6.60304 0.30015,-0.60034 0.33652,-0.93824 -0.26385,-1.08833 -1.68852,-0.45028 -1.83868,0.86265 -1.95125,1.50052 -0.63787,1.23825 -0.93682,1.72603 -2.47523,3.75226 -0.33769,0.48779 -0.33864,1.3508 0.0367,0.93805 0.45027,-0.45026 1.01274,-1.20062 1.50054,-1.95125 -0.93805,2.70161 -2.13836,6.19233 -2.36346,6.68012 -0.37524,0.71292 1.61447,-0.18798 1.98971,-0.3756 0.71289,-0.41274 3.86334,-5.36647 6.00212,-7.31763 2.73914,-2.36391 3.07737,-1.57631 2.40194,-0.37561 -0.33766,0.6379 -1.50125,2.88923 -2.2517,4.69031 -0.56283,1.42586 1.42586,1.08815 1.87614,0 1.12566,-1.16317 3.37795,-3.78977 5.66684,-4.69031 -0.37524,0.56284 -0.789,1.57632 -1.05166,2.25172 -0.52533,1.31331 -0.93777,3.5654 -0.63758,4.57849 0.75043,2.25136 3.52717,1.3513 4.76542,0.45076 1.87612,-1.35082 4.16611,-3.82778 4.87901,-5.14106 0.18755,-0.33771 -0.30156,-0.56311 -0.48918,-0.30045 -1.53841,2.17629 -4.35165,4.54077 -5.58989,5.21619 -1.20073,0.63788 -1.95104,-0.22609 -1.72589,-1.83954 0.15001,-1.20073 1.0502,-3.78988 2.36348,-5.77858 1.01309,-1.5384 -1.61361,-0.63748 -2.02635,-0.4874 -1.68851,0.63788 -3.86439,2.4398 -5.17767,3.64053 0.33768,-0.60037 1.0502,-2.25144 1.42541,-2.96439 0.98496,-1.94647 0.68045,-2.92712 -0.28215,-2.92965 z"
       id="path16560"
       inkscape:connector-curvature="0" />
    <path
       inkscape:connector-curvature="0"
       style="font-style:normal;font-variant:normal;font-weight:normal;font-stretch:normal;font-size:40px;line-height:125%;font-family:Allura;-inkscape-font-specification:Allura;letter-spacing:25px;word-spacing:0px;fill:#ffffff;fill-opacity:1;stroke:none"
       d="m 147.05497,808.53513 c -0.21764,0.0669 -0.60575,0.32007 -1.25761,0.84461 -0.38156,0.31787 -3.81624,2.86171 -3.81624,3.17969 0,1.33546 1.59096,1.33524 2.73566,1.33524 0.63593,0 2.09601,-2.41497 2.09601,-3.1145 0,-0.95391 0.89501,-2.44472 0.24214,-2.24504 z m 114.29528,7.75363 c -1.72001,0.0889 -3.76868,1.0561 -5.53343,2.63004 -2.86171,2.54378 -4.96269,5.91463 -5.59861,8.33121 -1.1447,3.94283 -0.38148,6.93197 1.71715,8.20386 2.09857,1.33549 5.53464,1.1436 8.39638,-1.27309 0.82673,-0.763 1.65122,-1.59074 2.47793,-2.48103 0.44517,0.9539 1.52724,1.58983 2.60837,1.58983 2.48014,0 5.02238,-2.73266 6.42148,-4.44971 0.95395,-1.14471 1.78275,-2.16196 2.1643,-2.92507 0.31787,-0.57235 -0.4459,-0.95441 -0.76388,-0.50925 -0.63592,0.8903 -1.46326,1.84533 -2.22641,2.73562 -1.27188,1.3355 -3.3711,3.68587 -5.40609,3.68587 -0.82672,0 -1.52625,-0.50889 -1.58986,-1.71715 1.39906,-1.97142 3.62598,-5.91326 2.73569,-8.52061 -0.50877,-1.71705 -3.3079,-1.08196 -2.60836,0.69866 0.31787,0.76311 0.82895,2.09951 -0.88806,5.53343 -1.08112,-0.31787 -1.97146,0.70151 -1.58987,2.037 0,0.19058 0.12583,0.25166 0.18948,0.37881 -1.90781,2.86175 -4.64262,4.96207 -6.61403,4.96207 -2.35298,0 -3.11561,-2.16203 -2.67044,-4.64223 1.01751,-5.78702 7.12289,-12.27476 9.92105,-12.27476 1.20827,0 1.3351,1.01763 1.20788,1.71716 0,0.50877 0.95342,0.57348 1.08061,-0.44403 0.25422,-1.58987 -0.69975,-2.67084 -1.84446,-3.05239 -0.47694,-0.17485 -1.01341,-0.24399 -1.58675,-0.21436 z m -55.8,0.0292 c -5.01989,-0.37886 -13.79626,7.19593 -15.58486,11.25007 -2.86171,6.61375 1.7169,9.79417 7.82195,8.71312 6.2958,-1.08109 10.49436,-5.15147 14.11921,-10.04836 0.12729,-0.25422 0.31788,-0.82609 0,-0.95331 -0.12729,0 -0.44589,-0.25423 -0.76387,0.12729 -3.62485,4.64237 -6.74072,7.56893 -12.46416,9.22237 -3.62486,1.01751 -7.31281,0.63508 -5.85017,-4.07086 1.71705,-5.78707 9.60283,-12.27476 12.84612,-12.27476 0.63596,0 0.95328,0.70074 0.95328,1.27308 0,0.3816 -0.25313,0.82489 -0.31677,1.27003 -0.0636,0.19094 2.5e-4,0.511 0.25459,0.70179 0.44516,0.57232 1.52625,-1.78277 1.58986,-2.16433 0.44517,-1.65343 -0.51034,-2.47829 -1.65505,-2.85984 -0.29812,-0.0984 -0.61554,-0.16094 -0.95021,-0.18619 z m 124.49576,0.41612 c -0.16935,-0.0147 -0.35334,-0.011 -0.54963,0.0146 -0.9427,0.12071 -2.18156,0.70102 -3.56475,1.72648 -3.49767,2.73452 -9.02934,8.71008 -11.70026,12.01702 0.76312,-2.03502 2.79774,-7.69336 4.38757,-11.19104 0.50877,-1.01751 0.57037,-1.59012 -0.44711,-1.84448 -3.30691,-0.89033 -3.05115,2.09984 -3.36913,2.86294 -1.27188,3.49768 -5.02465,14.37187 -5.53342,15.64391 -0.63593,1.2083 2.73631,-0.31861 3.37227,-0.63655 1.20823,-0.69953 6.54765,-9.09522 10.1725,-12.4021 4.64237,-4.00641 4.89883,-2.41694 3.75416,-0.38192 -1.58986,2.92533 -6.80465,13.03923 -0.12729,13.67519 1.78065,0.19057 3.87801,-0.69954 5.08629,-1.58986 3.17969,-2.2894 7.0608,-6.48733 8.26908,-8.71312 0.31787,-0.57235 -0.51112,-0.95441 -0.82909,-0.50925 -2.60735,3.68846 -7.43886,7.69575 -9.47385,8.84044 -2.03503,1.08109 -3.30669,-0.38305 -2.9251,-3.11761 0.19094,-1.20827 0.63582,-2.92382 1.46252,-4.83163 0.82673,-2.16221 2.28765,-4.13508 2.98718,-6.2973 0.69559,-2.08668 0.21253,-3.16477 -0.97189,-3.26663 z m -188.19222,0.46886 c -0.89029,0.19094 -1.52687,1.77963 -2.22637,3.75105 -0.19094,0.38155 -0.19094,0.6383 -0.12729,0.82906 -0.95391,1.46268 -2.67106,3.8143 -4.89685,6.54886 -0.57235,0.7631 0.0658,1.5907 0.70177,0.89117 1.33546,-1.52625 1.90557,-2.48016 2.47792,-3.17973 -1.33549,2.92536 -2.41534,6.3593 -1.9066,7.82195 1.27188,3.81565 5.97636,2.29013 8.01139,0.76387 3.17969,-2.28936 7.06078,-6.48733 8.26908,-8.71311 0.31787,-0.57235 -0.44589,-0.95441 -0.76387,-0.50925 -2.67095,3.68846 -7.43889,7.69575 -9.47392,8.84045 -2.09856,1.08108 -3.37334,-0.38306 -2.92818,-3.11762 0.19095,-2.03499 1.90847,-5.40361 3.81627,-9.21926 0.95394,-1.97141 1.65469,-3.18046 1.27313,-3.94356 -0.31787,-0.63596 -1.39969,-0.82745 -2.22644,-0.76388 z"
       id="path16554" />
    <path
       style="display:inline;fill:#ffffff;fill-opacity:1;stroke:none"
       d="m 178.48085,742.50628 0.004,0.007 -0.79493,0 0,50.0678 -37.77757,-50.0678 0,1.96853 0,7.17311 0,3.18891 0,1.97808 0,49.68276 2.70153,0 0,-40.06612 c -0.0183,-1.71053 2.40726,-2.8418 3.67029,-1.16759 l 31.10456,41.23371 1.49359,0 0,-12.34312 0,-49.92803 4.76955,6.31899 0,55.95216 1.19236,0 0,-0.0147 6.75688,0 0,0.0147 1.19239,0 0,-55.25343 9.56701,0 c 1.04576,0.0256 2.03877,0.86681 2.03701,1.95934 l 0,53.28788 1.1924,0 6.75684,0 1.1924,0 0,-53.28788 c 0,-1.09272 0.99421,-1.93198 2.04008,-1.95934 l 9.56704,0 0,3.59259 0,1.97808 0,0.66759 0,13.87695 0,1.09924 0,0.48123 0,33.55775 1.1924,0 0,-30.53323 c 0.0256,-2.06506 1.53456,-3.42151 3.55232,-3.50572 l 7.05496,0 3.33185,4.41565 0,6.76925 c 0,12.48271 9.91357,22.54438 22.32623,22.82611 l 0.0183,0.0292 0.50928,0 0.98434,0 8.39949,0 0.90361,0 -1.35697,-1.80096 c 8.19791,-3.46493 13.92359,-11.56473 13.92359,-21.0531 l 0,-11.99541 0,-6.28786 0,-8.61378 13.62551,18.05653 0.74526,-0.98744 3.91562,-5.18565 0.74522,-0.99047 -18.9571,-25.12082 0,-0.0147 -9.32793,0 -1.49359,0 0,0.004 9.55461,12.65979 0,9.87435 0,6.60775 0,11.99541 c 0,9.1022 -5.56152,16.84683 -13.48267,20.06247 l -7.19465,-9.53911 -14.69679,-19.48185 0,-2.22641 9.02048,0 c 8.29696,0 14.97629,-6.67929 14.97629,-14.97618 0,-8.29696 -6.67933,-14.97622 -14.97629,-14.97622 l -16.8207,0 -1.34142,0 -0.15839,0 -11.12586,0 -0.007,-0.007 -1.49359,0 -13.95464,0 -9.14164,0 -25.91578,0 z m 150.27181,0.007 -48.28853,63.99139 1.49358,0 19.40113,-25.71408 c 0.8926,-0.84402 2.44376,-0.57805 3.09274,0.43785 l 19.06888,25.27305 1.49355,0 8.42433,0 0.89742,0 -0.89742,-1.18921 -23.62104,-31.30633 -0.54961,-0.72975 c -0.70136,-0.92084 -0.57209,-2.17139 -0.0329,-2.91896 l 0.3197,-0.41908 c 0.0501,-0.0637 0.0944,-0.12546 0.14595,-0.1924 l 20.54696,-27.22933 -1.49052,0 -0.004,-0.004 z m -79.3341,46.48747 12.25615,16.24935 c -4.64087,-0.30653 -8.87798,-2.04853 -12.25615,-4.80676 l 0,-11.44259 z"
       id="path4614"
       inkscape:connector-curvature="0" />
  </g>
</svg>
