<?xml version="1.0" encoding="UTF-8" standalone="no"?>
<!-- Created with Inkscape (http://www.inkscape.org/) -->

<svg
   xmlns:dc="http://purl.org/dc/elements/1.1/"
   xmlns:cc="http://creativecommons.org/ns#"
   xmlns:rdf="http://www.w3.org/1999/02/22-rdf-syntax-ns#"
   xmlns:svg="http://www.w3.org/2000/svg"
   xmlns="http://www.w3.org/2000/svg"
   xmlns:sodipodi="http://sodipodi.sourceforge.net/DTD/sodipodi-0.dtd"
   xmlns:inkscape="http://www.inkscape.org/namespaces/inkscape"
   width="205.48712"
   height="119.22218"
   id="svg4219"
   version="1.1"
   inkscape:version="0.48+devel r"
   viewBox="0 0 205.48709 119.22218"
   sodipodi:docname="logo-sugar-icons.svg"
   inkscape:export-filename="/home/uri/Web/nitruxSA/images/logo.png"
   inkscape:export-xdpi="168.34319"
   inkscape:export-ydpi="168.34319">
  <defs
     id="defs4221" />
  <sodipodi:namedview
     id="base"
     pagecolor="#ffffff"
     bordercolor="#666666"
     borderopacity="1.0"
     inkscape:pageopacity="0.0"
     inkscape:pageshadow="2"
     inkscape:zoom="128"
     inkscape:cx="85.925896"
     inkscape:cy="22.069537"
     inkscape:document-units="px"
     inkscape:current-layer="layer1"
     showgrid="false"
     fit-margin-top="0"
     fit-margin-left="0"
     fit-margin-right="0"
     fit-margin-bottom="0"
     inkscape:showpageshadow="false"
     borderlayer="true"
     inkscape:window-width="1366"
     inkscape:window-height="666"
     inkscape:window-x="-2"
     inkscape:window-y="25"
     inkscape:window-maximized="1" />
  <metadata
     id="metadata4224">
    <rdf:RDF>
      <cc:Work
         rdf:about="">
        <dc:format>image/svg+xml</dc:format>
        <dc:type
           rdf:resource="http://purl.org/dc/dcmitype/StillImage" />
        <dc:title />
      </cc:Work>
    </rdf:RDF>
  </metadata>
  <g
     inkscape:label="Capa 1"
     inkscape:groupmode="layer"
     id="layer1"
     transform="translate(-134.38051,-742.50628)">
    <path
       style="font-style:normal;font-variant:normal;font-weight:normal;font-stretch:normal;font-size:medium;line-height:125%;font-family:'Blenda Script';-inkscape-font-specification:'Blenda Script';letter-spacing:0px;word-spacing:0px;fill:#ffffff;fill-opacity:1;stroke:none;stroke-width:1px;stroke-linecap:butt;stroke-linejoin:miter;stroke-opacity:1"
       d="m 29.181641,20.878906 c -4.303533,-0.117597 -8.473537,0.779741 -12.40625,2.746094 -8.0591806,4.10708 -9.6096105,12.554382 -5.8125,19.451172 1.39486,2.55723 4.106822,5.50146 6.664062,7.59375 2.55724,1.85981 4.339138,3.099751 7.361328,5.269531 2.78972,2.24727 6.200866,5.65792 4.728516,9.6875 -1.16238,3.64213 -3.720056,6.120823 -6.509766,7.283203 -5.34696,2.55724 -11.779651,1.239787 -13.019531,-2.402344 -1.08489,-3.02219 1.394438,-6.897261 7.361328,-9.144531 l -7.128906,-7.283203 c -5.8119003,2.8672 -8.3680351,9.45309 -7.5156251,15.1875 2.9447001,18.753071 44.5571461,12.786886 39.5976561,-11.390625 -0.61993,-3.02219 -2.324995,-5.269096 -4.572265,-7.128906 -2.169771,-2.09229 -5.035827,-3.874565 -7.748047,-5.734375 -2.47975,-1.54984 -5.115599,-3.643519 -6.355469,-5.19336 -1.39485,-1.78232 -1.62753,-2.09188 -1.9375,-4.49414 -0.30997,-2.40225 1.317818,-5.811488 3.642578,-7.361328 2.16977,-1.47235 4.726704,-2.170615 6.896484,-2.015625 5.889391,0.85241 4.262673,7.052605 2.945313,10.384765 l 10.460937,4.650391 c 0.77492,-3.64212 0.775604,-7.052712 -0.154296,-9.919922 -2.092291,-5.88939 -7.749695,-9.299289 -14.646485,-10.074219 -0.619936,-0.05812 -1.236772,-0.09453 -1.851562,-0.111328 z M 194.21484,39.96875 c -5.57231,-0.296138 -9.73542,3.247836 -13.09179,8.841797 l 1.62695,-8.447266 -10.61523,0 -5.80274,28.716797 c -4.00026,5.723214 -11.89649,9.381987 -10.45117,1.892578 1.78232,-8.91158 3.41024,-15.807772 5.8125,-27.664062 l 0.61914,-2.945313 -19.60547,0 c -13.87107,0.46495 -19.99128,12.941749 -21.07617,25.417969 -0.3239,3.724823 0.38884,6.69526 1.76367,8.923828 -3.06585,2.211515 -5.37161,3.409962 -9.11133,4.433594 0.87164,-3.153711 1.565,-6.51553 2.1836,-9.947266 l 5.96679,-29.214844 -6.50976,0 -10.84766,0 c -1.62733,0 -3.02179,0.07682 -4.49414,0.154297 -7.749198,0.38746 -18.055626,7.440502 -19.605468,25.263672 -0.211101,2.520789 0.04283,4.702531 0.644532,6.552735 -3.535644,3.791866 -7.776506,5.059185 -6.65625,-1.128907 1.62734,-8.98908 3.333443,-17.823877 5.658203,-30.455078 l -10.384766,0 c -4.882,25.804851 -5.036416,26.656721 -5.191406,27.431641 -3.40965,6.43184 -11.004918,11.547558 -9.455078,3.023437 1.54985,-8.60162 3.488375,-17.823877 5.890625,-30.455078 l -10.539063,0 -4.960937,24.875 c -3.25466,17.823171 11.00459,17.590904 19.21875,7.439453 1.386102,9.182916 10.862682,8.633836 17.654297,1.921875 4.454374,7.039758 15.493831,6.597527 21.988281,-1.535156 l -1.8125,8.746094 c -7.148549,1.566174 -14.169468,3.097385 -17.294922,4.972656 -4.470895,2.732691 -4.706576,7.207044 -1.499036,9.58114 0.994992,0.546737 1.445207,0.678269 2.164148,0.869462 15.38067,3.916115 22.44431,-2.885106 26.39153,-13.452555 6.06133,-2.528161 9.55569,-4.512086 12.75,-6.589844 5.43078,4.50842 15.09919,2.795661 20.57422,-5.365234 0.76167,10.077442 11.5762,9.649408 19.11914,2.68164 l -0.92969,4.601563 10.92774,0 4.33984,-22.394531 c 3.95209,-6.43184 9.68603,-12.398202 15.96289,-7.826172 l 7.20703,-5.966797 c -3.17233,-1.888869 -5.99643,-2.818517 -8.5293,-2.953125 z m -88.94531,3.234375 c 1.81679,0.02737 3.51428,1.129 4.84375,3.591797 l -3.95312,19.605469 c -10.693908,14.56851 -16.117262,7.284615 -13.017582,-7.128907 2.0608,-9.190067 7.484052,-16.138309 12.126952,-16.068359 z m 40.00391,0.775391 c 1.7869,0.01884 3.4674,1.094469 4.79687,3.513672 l -3.7207,19.21875 c -10.6939,14.41352 -15.80798,7.129576 -12.86328,-6.896485 1.94941,-9.022979 7.22057,-15.884072 11.78711,-15.835937 z m -42.54297,40.40625 c -0.58693,2.374429 -1.16762,4.7504 -1.76172,7.123046 -16.593525,2.048649 -4.161627,-4.436104 1.76172,-7.123046 z"
       transform="translate(134.3805,742.50628)"
       id="path4178"
       inkscape:connector-curvature="0"
       sodipodi:nodetypes="sccccccccccscccsccccccssccccccccscccccscccscccccccccccccccccccccccsscccsscccsccc" />
  </g>
</svg>
