<?xml version="1.0" encoding="UTF-8" standalone="no"?>
<!-- Created with Inkscape (http://www.inkscape.org/) -->

<svg
   xmlns:dc="http://purl.org/dc/elements/1.1/"
   xmlns:cc="http://creativecommons.org/ns#"
   xmlns:rdf="http://www.w3.org/1999/02/22-rdf-syntax-ns#"
   xmlns:svg="http://www.w3.org/2000/svg"
   xmlns="http://www.w3.org/2000/svg"
   xmlns:sodipodi="http://sodipodi.sourceforge.net/DTD/sodipodi-0.dtd"
   xmlns:inkscape="http://www.inkscape.org/namespaces/inkscape"
   width="141"
   height="141"
   id="svg4219"
   version="1.1"
   inkscape:version="0.48+devel r"
   viewBox="0 0 140.99998 141"
   sodipodi:docname="logo-nxq.svg"
   inkscape:export-filename="/home/uri/Web/nitruxSA/images/logo.png"
   inkscape:export-xdpi="168.34319"
   inkscape:export-ydpi="168.34319">
  <defs
     id="defs4221" />
  <sodipodi:namedview
     id="base"
     pagecolor="#ffffff"
     bordercolor="#666666"
     borderopacity="1.0"
     inkscape:pageopacity="0.0"
     inkscape:pageshadow="2"
     inkscape:zoom="2.9333115"
     inkscape:cx="36.362852"
     inkscape:cy="128.66518"
     inkscape:document-units="px"
     inkscape:current-layer="layer1"
     showgrid="false"
     fit-margin-top="0"
     fit-margin-left="0"
     fit-margin-right="0"
     fit-margin-bottom="0"
     inkscape:showpageshadow="false"
     borderlayer="true"
     inkscape:window-width="1366"
     inkscape:window-height="666"
     inkscape:window-x="-2"
     inkscape:window-y="25"
     inkscape:window-maximized="1" />
  <metadata
     id="metadata4224">
    <rdf:RDF>
      <cc:Work
         rdf:about="">
        <dc:format>image/svg+xml</dc:format>
        <dc:type
           rdf:resource="http://purl.org/dc/dcmitype/StillImage" />
        <dc:title />
      </cc:Work>
    </rdf:RDF>
  </metadata>
  <g
     inkscape:label="Capa 1"
     inkscape:groupmode="layer"
     id="layer1"
     transform="translate(-139.91192,-665.50809)">
    <path
       style="display:inline;fill:#ffffff;fill-opacity:1;stroke:none"
       d="M 0.04296875 30.25 L 0.04296875 32.726562 L 0.04296875 41.75 L 0.04296875 45.761719 L 0.04296875 48.251953 L 0.04296875 110.75 L 3.4433594 110.75 L 3.4433594 60.349609 C 3.4203594 58.197809 6.4717469 56.774659 8.0605469 58.880859 L 32.457031 91.222656 L 33.396484 92.466797 L 47.189453 110.75 L 49.068359 110.75 L 49.068359 95.222656 L 49.068359 80.507812 L 71.886719 110.75 L 73.765625 110.75 L 84.361328 110.75 L 85.490234 110.75 L 84.361328 109.25391 L 54.648438 69.871094 L 53.957031 68.955078 C 53.074831 67.796778 53.237462 66.223703 53.914062 65.283203 L 54.314453 64.755859 C 54.377453 64.675859 54.4352 64.597172 54.5 64.513672 L 80.347656 30.257812 L 78.470703 30.257812 L 39.257812 82.222656 L 0.046875 30.257812 L 0.04296875 30.25 z M 11.148438 30.25 L 41.806641 70.880859 L 42.746094 69.636719 L 47.669922 63.113281 L 48.607422 61.867188 L 24.761719 30.265625 L 24.761719 30.25 L 13.025391 30.25 L 11.148438 30.25 z M 86.705078 30.25 L 77.923828 41.75 L 126.54883 41.75 L 126.76758 41.75 C 134.58518 48.82845 139.48613 59.07498 139.48633 70.5 C 139.48633 78.2596 137.19523 85.4514 133.29883 91.5 L 133.26953 91.46875 C 132.30743 92.95995 131.26438 94.4085 130.11328 95.75 C 129.10138 96.1896 128.01808 96.162 126.98828 95.78125 L 126.58203 95.25 L 126.17578 94.6875 L 126.14453 94.6875 L 115.89453 81.125 L 115.83203 81.125 L 104.20703 81.125 L 102.33203 81.125 L 117.80078 101.625 C 118.12498 103.3915 117.51148 105.0926 115.80078 106.125 L 115.76953 106.15625 L 115.36328 106.40625 C 114.70258 106.67495 114.01003 106.86025 113.33203 107.09375 L 113.36328 107.125 C 109.47928 108.45937 105.32748 109.24841 100.98828 109.28125 C 100.89428 109.28196 100.80133 109.28125 100.70703 109.28125 L 100.36328 109.28125 L 97.394531 109.28125 L 85.082031 93.03125 L 85.082031 95.5 L 95.550781 109.3125 L 96.613281 110.75 L 100.70703 110.75 C 100.80103 110.75 100.89418 110.75065 100.98828 110.75 C 108.16998 110.7003 114.86738 108.75539 120.67578 105.4375 L 124.67578 110.75 L 124.70703 110.75 L 126.58203 110.75 L 136.39453 110.75 L 137.14453 110.75 L 138.26953 110.75 L 137.14453 109.25 L 129.30078 98.875 C 136.50688 91.6084 140.95703 81.5892 140.95703 70.5 C 140.95703 57.9576 135.27063 46.77716 126.33203 39.40625 C 126.28003 39.36345 126.22808 39.32385 126.17578 39.28125 C 125.73358 38.91549 125.29023 38.56481 124.83203 38.21875 C 124.80203 38.19645 124.76828 38.17845 124.73828 38.15625 C 124.24888 37.78895 123.74568 37.43602 123.23828 37.09375 C 121.09758 35.6499 118.80383 34.42197 116.39453 33.40625 C 115.80103 33.15606 115.18963 32.91019 114.58203 32.6875 C 114.57203 32.6845 114.55978 32.6905 114.55078 32.6875 C 113.32638 32.23969 112.07858 31.82931 110.80078 31.5 C 110.79078 31.498 110.77953 31.502 110.76953 31.5 C 110.12573 31.33457 109.48823 31.19611 108.83203 31.0625 C 108.18573 30.93092 107.51988 30.81893 106.86328 30.71875 C 106.85328 30.71675 106.84203 30.72075 106.83203 30.71875 C 104.83103 30.41508 102.79753 30.25 100.70703 30.25 L 86.707031 30.25 L 86.705078 30.25 z M 45.517578 77.773438 C 46.264878 77.733438 47.032259 78.014881 47.568359 78.550781 L 47.568359 93.234375 L 40.193359 83.458984 L 44.007812 78.402344 C 44.428912 78.004144 44.967078 77.802738 45.517578 77.773438 z "
       transform="translate(139.91191,665.50809)"
       id="rect4660-8" />
    <path
       inkscape:connector-curvature="0"
       style="display:inline;fill:#88c431;fill-opacity:1;stroke:none"
       d="m 217.83656,707.25815 -16.8437,22.0625 21.4687,28.3438 0,-44.2813 -4.625,-6.125 z"
       id="path4648" />
  </g>
</svg>
