<?xml version="1.0" encoding="UTF-8" standalone="no"?>
<!-- Created with Inkscape (http://www.inkscape.org/) -->

<svg
   xmlns:dc="http://purl.org/dc/elements/1.1/"
   xmlns:cc="http://creativecommons.org/ns#"
   xmlns:rdf="http://www.w3.org/1999/02/22-rdf-syntax-ns#"
   xmlns:svg="http://www.w3.org/2000/svg"
   xmlns="http://www.w3.org/2000/svg"
   xmlns:sodipodi="http://sodipodi.sourceforge.net/DTD/sodipodi-0.dtd"
   xmlns:inkscape="http://www.inkscape.org/namespaces/inkscape"
   width="205.48712"
   height="119.22218"
   id="svg4219"
   version="1.1"
   inkscape:version="0.48+devel r"
   viewBox="0 0 205.48709 119.22218"
   sodipodi:docname="logo-compass-icons.svg"
   inkscape:export-filename="/home/uri/Web/nitruxSA/images/logo.png"
   inkscape:export-xdpi="168.34319"
   inkscape:export-ydpi="168.34319">
  <defs
     id="defs4221" />
  <sodipodi:namedview
     id="base"
     pagecolor="#ffffff"
     bordercolor="#666666"
     borderopacity="1.0"
     inkscape:pageopacity="0.0"
     inkscape:pageshadow="2"
     inkscape:zoom="1.0697442"
     inkscape:cx="127.57678"
     inkscape:cy="125.10695"
     inkscape:document-units="px"
     inkscape:current-layer="layer1"
     showgrid="false"
     fit-margin-top="0"
     fit-margin-left="0"
     fit-margin-right="0"
     fit-margin-bottom="0"
     inkscape:showpageshadow="false"
     borderlayer="true"
     inkscape:window-width="1366"
     inkscape:window-height="666"
     inkscape:window-x="-2"
     inkscape:window-y="25"
     inkscape:window-maximized="1" />
  <metadata
     id="metadata4224">
    <rdf:RDF>
      <cc:Work
         rdf:about="">
        <dc:format>image/svg+xml</dc:format>
        <dc:type
           rdf:resource="http://purl.org/dc/dcmitype/StillImage" />
        <dc:title />
      </cc:Work>
    </rdf:RDF>
  </metadata>
  <g
     inkscape:label="Capa 1"
     inkscape:groupmode="layer"
     id="layer1"
     transform="translate(-134.38051,-742.50628)">
    <path
       style="font-style:normal;font-variant:normal;font-weight:300;font-stretch:normal;font-size:60px;line-height:125%;font-family:'Josefin Sans Std';-inkscape-font-specification:'Josefin Sans Std Light';letter-spacing:0px;word-spacing:0px;fill:#ffffff;fill-opacity:1;stroke:none"
       d="m 156.93948,770.0656 c -11.82,0 -21.41992,9.66101 -21.41992,21.54101 0,11.82003 9.59992,21.41993 21.41992,21.41993 3.96,0 7.68133,-1.08141 10.86133,-2.94141 l -1.67969,-1.61914 c -2.76,1.5 -5.88164,2.33984 -9.18164,2.33984 -10.56,0 -19.19922,-8.63918 -19.19922,-19.19922 0,-10.56 8.63922,-19.32031 19.19922,-19.32031 3.3,0 6.48023,0.90039 9.24023,2.40039 l 1.56055,-1.74023 c -3.18,-1.86 -6.90078,-2.88086 -10.80078,-2.88086 z m 101.03711,19.5 c -4.74,0 -8.1593,2.69957 -9.7793,6.59961 l -0.24023,-6.11915 -1.98047,0 0,32.11915 c -0.81784,0.19781 -1.55634,0.60517 -2.20508,1.25391 -0.93333,0.91665 -1.40039,2.00872 -1.40039,3.27539 l 0,2.72461 c 0,1.25 0.47578,2.3595 1.42578,3.32617 0.95,0.95 2.04883,1.42383 3.29883,1.42383 1.26667,0 2.37617,-0.47384 3.32617,-1.42383 0.96667,-0.96667 1.44922,-2.07617 1.44922,-3.32617 l 0,-2.72461 c 0,-1.28334 -0.47383,-2.38216 -1.42383,-3.29883 -0.66604,-0.64267 -1.42011,-1.04618 -2.25,-1.23828 l 0,-15.79102 c 1.62,3.9 5.0393,6.59961 9.7793,6.59961 6.48,0 11.69922,-5.27922 11.69922,-11.69922 0,-6.42 -5.21922,-11.70117 -11.69922,-11.70117 z m -73.76172,0.0605 c -6.48,0 -11.69922,5.27922 -11.69922,11.69923 0,6.42 5.21922,11.75976 11.69922,11.75976 6.6,0 11.75977,-5.33976 11.75977,-11.75976 0,-6.42001 -5.15977,-11.69923 -11.75977,-11.69923 z m 30.03516,0 c -4.5,0.12 -7.98016,2.64044 -9.66016,6.48047 l -0.23828,-6 -1.98047,0 0,22.43946 2.21875,0 0,-12.53906 c 0,-4.86001 4.5607,-8.4004 9.7207,-8.4004 3.72,0.18 5.39953,2.22024 5.51953,4.74024 l 0,16.19922 2.22071,0 0,-12.90039 c 0,-4.68001 4.6807,-8.03907 9.7207,-8.03907 3.72,0.17999 5.39953,2.22024 5.51953,4.74024 l 0,16.19921 2.21875,0 0,-16.19921 c -0.12,-3.96003 -3.05883,-6.72072 -7.79883,-6.72072 -4.5,0.12 -7.98015,2.64068 -9.66015,6.72072 -0.12,-3.96003 -3.06078,-6.72072 -7.80078,-6.72072 z m 71.29101,0 c -6.48,0 -11.69921,5.27922 -11.69921,11.69923 0,6.42 5.21921,11.75976 11.69921,11.75976 4.74,0 8.34095,-2.93984 9.96095,-6.83984 l -0.1797,2.70117 0,3.59961 2.21875,0 0,-22.50001 -1.91992,0 -0.29883,6.17969 c -1.62,-3.90003 -5.04125,-6.59961 -9.78125,-6.59961 z m 26.89258,0.11914 c -2.94,0 -6.24023,2.04161 -6.24023,6.18164 0,4.26001 3.53921,4.97923 5.69921,5.69923 2.58,0.84 5.28125,1.73937 5.28125,4.85937 0,3.24 -2.93968,4.44055 -4.67968,4.56055 -1.74,0.12 -4.62172,-0.90094 -5.76171,-2.46094 l -1.31836,1.6211 c 1.62,2.04 4.61843,2.82031 6.89844,2.82031 4.98,0 7.08007,-3.72016 7.08007,-6.66016 0,-4.26 -4.26,-5.82039 -7.5,-6.90039 -2.1,-0.72001 -3.53906,-1.49984 -3.53906,-3.83985 0,-2.88 2.28008,-3.90039 4.08008,-3.90039 2.04,0 4.25992,1.32016 4.91992,2.16016 l 1.14063,-1.56055 c -1.68,-1.92 -4.38055,-2.58008 -6.06055,-2.58008 z m 19.33594,0 c -2.94,0 -6.24023,2.04161 -6.24023,6.18164 0,4.26001 3.53922,4.97923 5.69921,5.69923 2.58001,0.84 5.28125,1.73937 5.28125,4.85937 0,3.24 -2.93969,4.44055 -4.67969,4.56055 -1.74,0.12 -4.62171,-0.90094 -5.76171,-2.46094 l -1.31836,1.6211 c 1.62,2.04 4.61843,2.82031 6.89843,2.82031 4.98,0 7.08008,-3.72016 7.08008,-6.66016 0,-4.26 -4.26,-5.82039 -7.5,-6.90039 -2.1,-0.72001 -3.53906,-1.49984 -3.53906,-3.83985 0,-2.88 2.28008,-3.90039 4.08008,-3.90039 2.04,0 4.25992,1.32016 4.91992,2.16016 l 1.14062,-1.56055 c -1.68,-1.92 -4.38054,-2.58008 -6.06054,-2.58008 z m -73.79296,1.80078 c 5.58,0 9.48046,4.14071 9.48046,9.72071 0,5.46 -3.90047,9.7793 -9.48047,9.7793 -5.64,0 -9.53906,-4.3193 -9.53906,-9.7793 0,-5.58 3.89906,-9.72071 9.53906,-9.72071 z m -73.76172,0.0606 c 5.64,0 9.54102,4.13875 9.54102,9.71876 0,5.46 -3.90102,9.78125 -9.54102,9.78125 -5.58,0 -9.48047,-4.32125 -9.48047,-9.78125 0,-5.58001 3.90047,-9.71876 9.48047,-9.71876 z m 101.32617,0 c 5.64,0 9.54102,4.13875 9.54102,9.71876 0,5.46 -3.90102,9.78125 -9.54102,9.78125 -5.58,0 -9.47851,-4.32125 -9.47851,-9.78125 0,-5.58001 3.89851,-9.71876 9.47851,-9.71876 z m -1.37109,23.31251 c -0.23334,0 -0.42422,0.0591 -0.57422,0.17578 -0.15,0.11666 -0.22656,0.25911 -0.22656,0.42578 l 0,17.82422 c 0,0.16666 0.0766,0.31588 0.22656,0.44922 0.16667,0.13333 0.35755,0.20117 0.57422,0.20117 0.21666,0 0.40755,-0.0678 0.57422,-0.20117 0.16666,-0.13334 0.25,-0.28256 0.25,-0.44922 l 0,-6.65039 c 0,-0.95 0.30039,-1.7155 0.90039,-2.29883 0.61666,-0.58333 1.31627,-0.875 2.09961,-0.875 0.83333,0 1.55911,0.32461 2.17578,0.97461 0.61666,0.65 0.92578,1.38255 0.92578,2.19922 l 0,6.65039 c 0,0.2 0.0833,0.35794 0.25,0.47461 0.16667,0.11666 0.34883,0.17578 0.54883,0.17578 0.23333,0 0.42617,-0.0591 0.57617,-0.17578 0.16667,-0.11667 0.25,-0.27461 0.25,-0.47461 l 0,-6.65039 c 0,-1.28334 -0.44284,-2.38216 -1.32617,-3.29883 -0.86667,-0.91667 -1.89961,-1.375 -3.09961,-1.375 -0.76667,0 -1.44206,0.18216 -2.02539,0.54883 -0.56667,0.36666 -0.99206,0.81627 -1.27539,1.34961 l 0,-8.39844 c 0,-0.16667 -0.0833,-0.30912 -0.25,-0.42578 -0.15,-0.11667 -0.34089,-0.17579 -0.57422,-0.17579 z m -8.47266,1.625 c -0.2,0 -0.38216,0.0591 -0.54883,0.17578 -0.16666,0.11666 -0.25,0.25911 -0.25,0.42578 l 0,13.17383 c 0,2.45 1.31589,3.67578 3.94922,3.67578 l 0.70117,0 c 0.21667,0 0.39011,-0.0746 0.52344,-0.22461 0.15,-0.15 0.22656,-0.32539 0.22656,-0.52539 0,-0.2 -0.0766,-0.36667 -0.22656,-0.5 -0.13333,-0.15 -0.30677,-0.22461 -0.52344,-0.22461 l -0.70117,0 c -0.86666,0 -1.47422,-0.1599 -1.82422,-0.47656 -0.33333,-0.33334 -0.5,-0.90795 -0.5,-1.72461 l 0,-6.79883 3.22461,0 c 0.16667,0 0.30039,-0.0678 0.40039,-0.20117 0.11667,-0.13334 0.17383,-0.29128 0.17383,-0.47461 0,-0.18334 -0.0572,-0.34128 -0.17383,-0.47461 -0.1,-0.13334 -0.23372,-0.20117 -0.40039,-0.20117 l -3.22461,0 0,-5.02344 c 0,-0.16667 -0.0833,-0.30912 -0.25,-0.42578 -0.16666,-0.11667 -0.3595,-0.17578 -0.57617,-0.17578 z m -48.94336,0.0508 c -0.31666,0 -0.58411,0.10078 -0.80078,0.30078 -0.21667,0.2 -0.32422,0.44127 -0.32422,0.72461 0,0.28333 0.10755,0.53333 0.32422,0.75 0.21667,0.2 0.48412,0.29883 0.80078,0.29883 0.3,0 0.55,-0.0988 0.75,-0.29883 0.21667,-0.21667 0.32422,-0.46667 0.32422,-0.75 0,-0.28334 -0.10755,-0.52461 -0.32422,-0.72461 -0.2,-0.2 -0.45,-0.30078 -0.75,-0.30078 z m 9.38477,5.42578 c -1.58334,0 -2.78294,0.44088 -3.59961,1.32422 -0.81667,0.86666 -1.22461,2.00039 -1.22461,3.40039 l 0,2.67383 c 0,1.43333 0.40794,2.5845 1.22461,3.45117 0.81667,0.86666 2.025,1.29883 3.625,1.29883 1.03333,0 1.89961,-0.17344 2.59961,-0.52344 0.7,-0.36667 1.05078,-0.74167 1.05078,-1.125 0,-0.20001 -0.0746,-0.38413 -0.22461,-0.55079 -0.13333,-0.16666 -0.30872,-0.25 -0.52539,-0.25 -0.11667,0 -0.28333,0.0833 -0.5,0.25 -0.2,0.15 -0.50039,0.30795 -0.90039,0.47461 -0.38333,0.15 -0.85912,0.22461 -1.42578,0.22461 -1.08334,0 -1.90795,-0.28295 -2.47461,-0.84961 -0.55,-0.56667 -0.82422,-1.36706 -0.82422,-2.40039 l 0,-2.67383 c 0,-1.01666 0.27422,-1.80834 0.82422,-2.375 0.56666,-0.56667 1.3845,-0.8496 2.45117,-0.8496 0.53333,0 0.99167,0.0833 1.375,0.25 0.38333,0.14999 0.675,0.29921 0.875,0.44921 0.21667,0.15 0.37461,0.22461 0.47461,0.22461 0.18333,0 0.35,-0.0833 0.5,-0.25 0.15,-0.18334 0.22461,-0.3655 0.22461,-0.54882 0,-0.36667 -0.34206,-0.72618 -1.02539,-1.07618 -0.66667,-0.36667 -1.5,-0.54882 -2.5,-0.54882 z m 24.32617,0 c -0.78333,0 -1.46549,0.18216 -2.04883,0.54883 -0.58333,0.36666 -1.01745,0.81627 -1.30078,1.34961 l 0,-1.14844 c 0,-0.16667 -0.0746,-0.30912 -0.22461,-0.42579 -0.15,-0.11667 -0.32539,-0.17578 -0.52539,-0.17578 -0.23333,0 -0.42422,0.0591 -0.57422,0.17578 -0.15,0.1 -0.22656,0.24245 -0.22656,0.42579 l 0,10.57421 c 0,0.16666 0.0766,0.31588 0.22656,0.44922 0.15,0.13333 0.34089,0.20117 0.57422,0.20117 0.21667,0 0.40755,-0.0678 0.57422,-0.20117 0.16667,-0.13334 0.25,-0.28256 0.25,-0.44922 l 0,-6.65039 c 0,-0.95 0.30039,-1.7155 0.90039,-2.29882 0.6,-0.58334 1.29284,-0.875 2.07617,-0.875 0.85,0 1.58255,0.32461 2.19922,0.9746 0.61667,0.65 0.92578,1.38256 0.92578,2.19922 l 0,6.65039 c 0,0.20001 0.0833,0.35794 0.25,0.47461 0.16667,0.11666 0.34883,0.17578 0.54883,0.17578 0.21667,0 0.40951,-0.0591 0.57617,-0.17578 0.16667,-0.11667 0.25,-0.27461 0.25,-0.47461 l 0,-6.65039 c 0,-1.28333 -0.44284,-2.38216 -1.32617,-3.29882 -0.88333,-0.91667 -1.925,-1.375 -3.125,-1.375 z m 40.63281,0 c -1.31666,0 -2.44166,0.45833 -3.375,1.375 -0.93333,0.9 -1.40039,1.97461 -1.40039,3.22461 l 0,2.79883 c 0,1.41666 0.5,2.56783 1.5,3.45117 1,0.86666 2.29167,1.29883 3.875,1.29883 1.06667,0 1.95912,-0.18217 2.67578,-0.54883 0.71667,-0.38334 1.07422,-0.74961 1.07422,-1.09961 0,-0.16667 -0.0746,-0.33333 -0.22461,-0.5 -0.13333,-0.18333 -0.29127,-0.27539 -0.47461,-0.27539 -0.13333,0 -0.31744,0.0833 -0.55078,0.25 -0.21666,0.16666 -0.54127,0.33333 -0.97461,0.5 -0.41666,0.16666 -0.90794,0.25 -1.47461,0.25 -1.11666,0 -2.03333,-0.29167 -2.75,-0.875 -0.7,-0.6 -1.05078,-1.39167 -1.05078,-2.375 l 0,-0.92578 5.65039,0 c 0.35,0 0.62422,-0.0155 0.82422,-0.0488 0.2,-0.0333 0.41706,-0.1099 0.65039,-0.22656 0.25,-0.11667 0.42539,-0.31628 0.52539,-0.59961 0.11667,-0.28334 0.17383,-0.65834 0.17383,-1.125 0,-1.3 -0.4651,-2.38334 -1.39844,-3.25 -0.91666,-0.86667 -2.00873,-1.29883 -3.27539,-1.29883 z m 13.04883,0 c -0.76667,0 -1.44206,0.18216 -2.02539,0.54883 -0.56667,0.35 -0.99883,0.79961 -1.29883,1.34961 l 0,-1.14844 c 0,-0.16667 -0.0746,-0.30912 -0.22461,-0.42579 -0.15,-0.11667 -0.33411,-0.17578 -0.55078,-0.17578 -0.23333,0 -0.42422,0.0591 -0.57422,0.17578 -0.15,0.11667 -0.22656,0.25911 -0.22656,0.42579 l 0,10.57421 c 0,0.16666 0.0766,0.31588 0.22656,0.44922 0.16667,0.13333 0.35755,0.20117 0.57422,0.20117 0.21667,0 0.40755,-0.0678 0.57422,-0.20117 0.16667,-0.13334 0.25,-0.28256 0.25,-0.44922 l 0,-6.65039 c 0,-0.96667 0.29167,-1.73216 0.875,-2.29882 0.6,-0.58334 1.29284,-0.875 2.07617,-0.875 0.78334,0 1.45,0.29844 2,0.89844 0.56667,0.58333 0.84961,1.31783 0.84961,2.20117 l 0,6.75 c 0,0.41666 0.26745,0.625 0.80078,0.625 0.55,0 0.82422,-0.20834 0.82422,-0.625 l 0,-6.77539 c 0,-0.9 0.29167,-1.63255 0.875,-2.19922 0.6,-0.58333 1.28412,-0.875 2.05078,-0.875 0.75,0 1.40795,0.28294 1.97461,0.84961 0.58334,0.56666 0.875,1.34088 0.875,2.32422 l 0,6.65039 c 0,0.16666 0.0746,0.31588 0.22461,0.44922 0.16667,0.13333 0.35755,0.20117 0.57422,0.20117 0.23333,0 0.42617,-0.0678 0.57617,-0.20117 0.16667,-0.13334 0.25,-0.28256 0.25,-0.44922 l 0,-6.65039 c 0,-1.41667 -0.41666,-2.55039 -1.25,-3.40039 -0.83333,-0.85 -1.81784,-1.27344 -2.95117,-1.27344 -0.75,0 -1.4651,0.2151 -2.14844,0.64844 -0.68333,0.41666 -1.23372,1.03489 -1.6504,1.85156 -0.29999,-0.75 -0.76706,-1.35078 -1.40039,-1.80079 -0.63333,-0.46667 -1.35038,-0.69921 -2.15039,-0.69921 z m 19.9082,0 c -1.31666,0 -2.44166,0.45833 -3.375,1.375 -0.93333,0.9 -1.40039,1.97461 -1.40039,3.22461 l 0,2.79883 c 0,1.41666 0.5,2.56783 1.5,3.45117 1,0.86666 2.29166,1.29883 3.875,1.29883 1.06667,0 1.95912,-0.18217 2.67578,-0.54883 0.71667,-0.38334 1.07422,-0.74961 1.07422,-1.09961 0,-0.16667 -0.0746,-0.33333 -0.22461,-0.5 -0.13333,-0.18333 -0.29128,-0.27539 -0.47461,-0.27539 -0.13333,0 -0.31744,0.0833 -0.55078,0.25 -0.21667,0.16666 -0.54128,0.33333 -0.97461,0.5 -0.41666,0.16666 -0.90795,0.25 -1.47461,0.25 -1.11666,0 -2.03333,-0.29167 -2.75,-0.875 -0.7,-0.6 -1.05078,-1.39167 -1.05078,-2.375 l 0,-0.92578 5.65039,0 c 0.35,0 0.62422,-0.0155 0.82422,-0.0488 0.2,-0.0333 0.41705,-0.1099 0.65039,-0.22656 0.25,-0.11667 0.42539,-0.31628 0.52539,-0.59961 0.11667,-0.28334 0.17382,-0.65834 0.17382,-1.125 0,-1.3 -0.4651,-2.38334 -1.39844,-3.25 -0.91666,-0.86667 -2.00872,-1.29883 -3.27539,-1.29883 z m -107.30078,0.14844 c -0.23334,0 -0.42422,0.0591 -0.57423,0.17578 -0.15,0.11666 -0.22656,0.25911 -0.22656,0.42578 l 0,10.57422 c 0,0.16666 0.0766,0.31588 0.22656,0.44922 0.16667,0.13333 0.35756,0.20117 0.57423,0.20117 0.21667,0 0.40755,-0.0678 0.57422,-0.20117 0.16667,-0.13334 0.25,-0.28256 0.25,-0.44922 l 0,-10.57422 c 0,-0.16667 -0.0833,-0.30912 -0.25,-0.42578 -0.15,-0.11667 -0.34089,-0.17578 -0.57422,-0.17578 z m 74.31835,1.20117 c 0.9,0 1.64129,0.31588 2.22461,0.94922 0.6,0.63333 0.90039,1.36784 0.90039,2.20117 0,0.35 -0.0833,0.58255 -0.25,0.69922 -0.16665,0.1 -0.5,0.15039 -1,0.15039 l -5,0 0,-0.95117 c 0,-0.83334 0.30039,-1.54844 0.9004,-2.14844 0.61666,-0.6 1.35794,-0.90039 2.2246,-0.90039 z m 32.95704,0 c 0.89999,0 1.64128,0.31588 2.22461,0.94922 0.6,0.63333 0.90039,1.36784 0.90039,2.20117 0,0.35 -0.0833,0.58255 -0.25,0.69922 -0.16666,0.1 -0.5,0.15039 -1,0.15039 l -5,0 0,-0.95117 c 0,-0.83334 0.30039,-1.54844 0.90039,-2.14844 0.61667,-0.6 1.35794,-0.90039 2.22461,-0.90039 z m -86.93359,0.15039 c 0.85,0 1.5845,0.32461 2.20117,0.97461 0.63333,0.65 0.94922,1.38255 0.94922,2.19922 l 0,2.72461 c 0,0.85 -0.30716,1.60872 -0.92383,2.27539 -0.61666,0.65 -1.35989,0.97461 -2.22656,0.97461 -0.85,0 -1.58255,-0.32461 -2.19922,-0.97461 -0.60001,-0.66667 -0.9004,-1.42539 -0.9004,-2.27539 l 0,-2.72461 c 0,-0.81667 0.30039,-1.54922 0.9004,-2.19922 0.61667,-0.65 1.34922,-0.97461 2.19922,-0.97461 z"
       id="path9744"
       inkscape:connector-curvature="0" />
  </g>
</svg>
