<?xml version="1.0" encoding="UTF-8" standalone="no"?>
<!-- Created with Inkscape (http://www.inkscape.org/) -->

<svg
   xmlns:dc="http://purl.org/dc/elements/1.1/"
   xmlns:cc="http://creativecommons.org/ns#"
   xmlns:rdf="http://www.w3.org/1999/02/22-rdf-syntax-ns#"
   xmlns:svg="http://www.w3.org/2000/svg"
   xmlns="http://www.w3.org/2000/svg"
   xmlns:sodipodi="http://sodipodi.sourceforge.net/DTD/sodipodi-0.dtd"
   xmlns:inkscape="http://www.inkscape.org/namespaces/inkscape"
   width="205.48712"
   height="119.22218"
   id="svg4219"
   version="1.1"
   inkscape:version="0.48+devel r"
   viewBox="0 0 205.48709 119.22218"
   sodipodi:docname="logo-flattr-icons.svg"
   inkscape:export-filename="/home/uri/Web/nitruxSA/images/logo.png"
   inkscape:export-xdpi="168.34319"
   inkscape:export-ydpi="168.34319">
  <defs
     id="defs4221" />
  <sodipodi:namedview
     id="base"
     pagecolor="#ffffff"
     bordercolor="#666666"
     borderopacity="1.0"
     inkscape:pageopacity="0.0"
     inkscape:pageshadow="2"
     inkscape:zoom="1.536485"
     inkscape:cx="26.060012"
     inkscape:cy="75.653541"
     inkscape:document-units="px"
     inkscape:current-layer="layer1"
     showgrid="false"
     fit-margin-top="0"
     fit-margin-left="0"
     fit-margin-right="0"
     fit-margin-bottom="0"
     inkscape:showpageshadow="false"
     borderlayer="true"
     inkscape:window-width="1366"
     inkscape:window-height="666"
     inkscape:window-x="-2"
     inkscape:window-y="25"
     inkscape:window-maximized="1" />
  <metadata
     id="metadata4224">
    <rdf:RDF>
      <cc:Work
         rdf:about="">
        <dc:format>image/svg+xml</dc:format>
        <dc:type
           rdf:resource="http://purl.org/dc/dcmitype/StillImage" />
        <dc:title />
      </cc:Work>
    </rdf:RDF>
  </metadata>
  <g
     inkscape:label="Capa 1"
     inkscape:groupmode="layer"
     id="layer1"
     transform="translate(-134.38051,-742.50628)">
    <path
       style="font-style:normal;font-variant:normal;font-weight:300;font-stretch:normal;font-size:70px;line-height:125%;font-family:Canter;-inkscape-font-specification:'Canter Light';letter-spacing:0px;word-spacing:0px;fill:#ffffff;fill-opacity:1;stroke:none"
       d="m 157.78942,751.56555 0,79.38683 3.17379,0 0,-21.66304 17.91967,0 0,-2.94604 -17.91967,0 0,-51.94253 21.09348,0 0,-2.83522 -24.26727,0 z m 31.43131,15.98935 0,63.39748 17.3501,0 0,-2.94922 -14.1762,0 0,-60.44826 -3.1739,0 z m 32.73506,0 -9.75247,63.39748 3.06307,0 2.72135,-17.2393 12.24913,0 2.60747,17.2393 3.17695,0 -9.98032,-63.39748 -4.08518,0 z m 18.68862,0 0,2.8353 8.95821,0 0,60.56218 2.94919,0 0,-60.56218 8.95821,0 0,-2.8353 -20.86561,0 z m 24.80835,0 0,2.8353 8.9582,0 0,60.56218 2.9492,0 0,-60.56218 8.9582,0 0,-2.8353 -20.8656,0 z m 27.98224,0 0,63.39748 3.28774,0 0,-16.89757 9.98033,0 c 4.08278,0 6.46471,2.49394 6.46471,6.123 l 0,10.77457 3.29091,0 0,-10.77457 c 0,-3.85592 -2.04274,-7.25719 -6.69254,-8.27794 4.42299,-1.81449 6.23686,-6.57946 6.23686,-10.32202 l 0,-21.65988 c 0,-9.07279 -6.23582,-12.36307 -11.67957,-12.36307 l -10.88844,0 z m 3.28774,2.94916 7.6007,0 c 5.21688,0 8.61964,3.63004 8.61964,9.41391 l 0,21.65988 c 0,6.01075 -4.87707,9.5278 -8.61964,9.5278 l -7.6007,0 0,-40.60159 z m -72.72272,2.49667 5.78122,38.10492 -11.56565,0 5.78443,-38.10492 z m 15.03372,58.76489 0,20.79917 0.7911,0 0,-8.03109 c 0,-0.82489 0.42005,-1.48315 1.26252,-1.97452 0.86002,-0.50905 1.73763,-0.76263 2.63279,-0.76263 0.84246,0 1.57222,0.31745 2.18656,0.94931 0.61424,0.61428 0.92079,1.34088 0.92079,2.18334 l 0,7.63559 0.76262,0 0,-7.63559 c 0,-1.14085 -0.36717,-2.07132 -1.10435,-2.79095 -0.7196,-0.73711 -1.64235,-1.10435 -2.76562,-1.10435 -0.71963,0 -1.45719,0.13235 -2.21187,0.39561 -0.73719,0.26325 -1.29732,0.63818 -1.68344,1.12967 l 0,-10.79356 -0.7911,0 z m -59.13824,3.66112 c -0.1931,0 -0.35958,0.0602 -0.49998,0.18357 -0.12285,0.12283 -0.18357,0.28157 -0.18357,0.47463 0,0.19304 0.0603,0.3595 0.18357,0.49992 0.1404,0.12286 0.30688,0.18356 0.49998,0.18356 0.17545,0 0.32642,-0.0602 0.44927,-0.18356 0.14041,-0.14042 0.20888,-0.30688 0.20888,-0.49992 0,-0.1755 -0.068,-0.32648 -0.20888,-0.44934 -0.12285,-0.1404 -0.27382,-0.20886 -0.44927,-0.20886 z m 52.04693,1.73718 0,3.37009 -1.71189,0 0,0.57908 1.71189,0 0,11.4517 0.81641,0 0,-11.4517 3.29093,0 0,-0.57908 -3.29093,0 0,-3.37009 -0.81641,0 z m -30.31114,3.55357 c -1.59721,0 -2.92451,0.58663 -3.97754,1.7626 -1.03556,1.17588 -1.55056,2.59813 -1.55056,4.26548 0,1.68493 0.515,3.09934 1.55056,4.24018 1.03546,1.12331 2.36276,1.68342 3.97754,1.68342 1.61478,0 2.93891,-0.56011 3.97437,-1.68342 1.03557,-1.14084 1.55373,-2.55525 1.55373,-4.24018 0,-1.66735 -0.5259,-3.0896 -1.57904,-4.26548 -1.03546,-1.17597 -2.35185,-1.7626 -3.94906,-1.7626 z m -12.49279,0.0255 c -1.59722,0 -2.92909,0.57887 -3.99968,1.73721 -1.0707,1.15838 -1.6075,2.57281 -1.6075,4.24026 0,1.66737 0.5368,3.07859 1.6075,4.237 1.07059,1.14086 2.40246,1.71189 3.99968,1.71189 1.8429,0 3.21216,-0.57103 4.10732,-1.71189 l 0.21204,-0.26264 -0.57913,-0.55375 -0.18667,0.23734 c -0.78987,1.00044 -1.97391,1.50302 -3.55356,1.50302 -1.36899,0 -2.508,-0.50258 -3.42062,-1.50302 -0.91272,-1.018 -1.37016,-2.23628 -1.37016,-3.65795 0,-1.43923 0.45744,-2.66074 1.37016,-3.66116 0.91262,-1.01796 2.05163,-1.52521 3.42062,-1.52521 1.36898,0 2.55312,0.49944 3.55356,1.49986 l 0.18667,0.23731 0.57913,-0.55374 -0.21204,-0.26265 c -0.91272,-1.14086 -2.28199,-1.71188 -4.10732,-1.71188 z m -9.6639,0.0536 0,11.76818 0.7911,0 0,-11.76818 -0.7911,0 z m 76.56427,0.15824 c -1.63224,0 -2.97512,0.57103 -4.02815,1.71188 -1.05313,1.14084 -1.57904,2.53342 -1.57904,4.18324 0,1.80787 0.56329,3.24867 1.68657,4.31936 1.05313,1.00044 2.35852,1.49984 3.92062,1.49984 1.8429,0 3.29152,-0.42777 4.34466,-1.28781 l -0.57905,-0.58226 c -0.84249,0.71958 -2.09824,1.08217 -3.76561,1.08217 -1.28128,0 -2.36732,-0.43876 -3.26248,-1.3163 -0.89505,-0.8776 -1.40546,-2.00103 -1.52831,-3.37004 l 10.58469,0 0.0255,-0.37027 c 0.0878,-1.35141 -0.41169,-2.66006 -1.49986,-3.92376 l 0,-0.0255 c -1.31639,-1.28126 -2.75727,-1.92075 -4.31934,-1.92075 z m 33.16859,0 c -1.63234,0 -2.97512,0.57103 -4.02825,1.71188 -1.05303,1.14084 -1.58211,2.53342 -1.58211,4.18324 0,1.80787 0.56327,3.24867 1.68662,4.31936 1.05302,1.00044 2.36167,1.49984 3.92374,1.49984 1.84291,0 3.28838,-0.42777 4.34141,-1.28781 l -0.57906,-0.58226 c -0.84247,0.71958 -2.09497,1.08217 -3.76235,1.08217 -1.28126,0 -2.37045,-0.43876 -3.26561,-1.3163 -0.89516,-0.8776 -1.40548,-2.00103 -1.5284,-3.37004 l 10.58476,0 0.0256,-0.37027 c 0.0878,-1.35141 -0.41172,-2.66006 -1.4999,-3.92376 l 0,-0.0255 c -1.31641,-1.28126 -2.75406,-1.92075 -4.31615,-1.92075 z m -73.91575,0.0791 c -0.66694,0 -1.38896,0.13234 -2.16123,0.39561 -0.77225,0.2457 -1.35106,0.6206 -1.73723,1.12967 l 0,-1.47463 -0.7626,0 0,11.48024 0.7626,0 0,-8.03109 c 0,-0.80733 0.41235,-1.46557 1.2373,-1.97452 0.8249,-0.50907 1.71341,-0.76263 2.66116,-0.76263 0.84246,0 1.56909,0.30655 2.18339,0.92079 0.61434,0.61432 0.92082,1.35183 0.92082,2.21186 l 0,7.63559 0.76577,0 0,-7.63559 c 0,-1.17587 -0.37808,-2.11419 -1.13282,-2.81624 -0.73719,-0.71962 -1.64891,-1.07906 -2.73716,-1.07906 z m 54.28419,0.10451 c -0.63191,0 -1.29003,0.13997 -1.97452,0.42079 -0.68451,0.26326 -1.25243,0.66008 -1.70872,1.18662 l 0,-1.55364 -0.7658,0 0,11.37261 0.73733,0 0,-7.952 c 0,-0.78977 0.38581,-1.43702 1.15812,-1.94606 0.7722,-0.50895 1.62338,-0.7658 2.55359,-0.7658 0.84248,0 1.53801,0.30972 2.08213,0.92405 0.56169,0.59675 0.84174,1.32339 0.84174,2.18342 l 0,7.55639 0.76256,0 0,-7.73997 c 0,-0.84246 0.32518,-1.53483 0.97466,-2.079 0.66692,-0.56165 1.44965,-0.84489 2.34472,-0.84489 0.86004,0 1.58664,0.30972 2.18342,0.92405 0.61433,0.59675 0.92078,1.32339 0.92078,2.18342 l 0,7.5311 0.7658,0 0,-7.5311 c 0,-1.0707 -0.37808,-1.98252 -1.13283,-2.73716 -0.75476,-0.75477 -1.66646,-1.13283 -2.73717,-1.13283 -0.73718,0 -1.44045,0.19288 -2.10738,0.57906 -0.66702,0.38609 -1.19292,0.93074 -1.57903,1.63281 -0.80734,-1.47437 -1.91529,-2.21187 -3.3194,-2.21187 z m -67.94461,0.37018 c 1.36898,0 2.49241,0.50728 3.37,1.5252 0.89516,1.01796 1.3417,2.25499 1.3417,3.71178 0,1.42167 -0.44654,2.63221 -1.3417,3.63266 -0.87759,1.00044 -2.00102,1.50302 -3.37,1.50302 -1.38654,0 -2.52873,-0.50258 -3.42378,-1.50302 -0.87759,-1.00045 -1.31639,-2.21099 -1.31639,-3.63266 0,-1.45679 0.4388,-2.69382 1.31639,-3.71178 0.89505,-1.01792 2.03724,-1.5252 3.42378,-1.5252 z m 54.40758,0.26265 c 1.28125,0 2.40468,0.44655 3.36998,1.3417 0.96541,0.87758 1.50997,1.98227 1.63282,3.31622 l -9.79359,0 c 0.12285,-1.33395 0.63326,-2.43864 1.52831,-3.31622 0.89516,-0.89515 1.9812,-1.3417 3.26248,-1.3417 z m 33.16859,0 c 1.28127,0 2.40153,0.44655 3.36685,1.3417 0.96531,0.87758 1.50997,1.98227 1.6328,3.31622 l -9.79366,0 c 0.12292,-1.33395 0.63324,-2.43864 1.5284,-3.31622 0.89516,-0.89515 1.98435,-1.3417 3.26561,-1.3417 z"
       id="text11094"
       inkscape:connector-curvature="0" />
  </g>
</svg>
